<?xml version="1.0" encoding="UTF-8" standalone="no"?>
<!-- Generator: Adobe Illustrator 12.0.0, SVG Export Plug-In  -->

<svg
   xmlns:dc="http://purl.org/dc/elements/1.1/"
   xmlns:cc="http://creativecommons.org/ns#"
   xmlns:rdf="http://www.w3.org/1999/02/22-rdf-syntax-ns#"
   xmlns:svg="http://www.w3.org/2000/svg"
   xmlns="http://www.w3.org/2000/svg"
   xmlns:sodipodi="http://sodipodi.sourceforge.net/DTD/sodipodi-0.dtd"
   xmlns:inkscape="http://www.inkscape.org/namespaces/inkscape"
   version="1.1"
   viewBox="-0.3779297 -0.9741211 472.44043 52.79834"
   enable-background="new -0.3779297 -0.9741211 501 82"
   xml:space="preserve"
   id="svg2"
   inkscape:version="0.48.1 "
   sodipodi:docname="AJAX.svg"><metadata
   id="metadata64"><rdf:RDF><cc:Work
       rdf:about=""><dc:format>image/svg+xml</dc:format><dc:type
         rdf:resource="http://purl.org/dc/dcmitype/StillImage" /></cc:Work></rdf:RDF></metadata><sodipodi:namedview
   pagecolor="#ffffff"
   bordercolor="#666666"
   borderopacity="1"
   objecttolerance="10"
   gridtolerance="10"
   guidetolerance="10"
   inkscape:pageopacity="0"
   inkscape:pageshadow="2"
   inkscape:window-width="1280"
   inkscape:window-height="1004"
   id="namedview62"
   showgrid="false"
   fit-margin-top="0"
   fit-margin-left="0"
   fit-margin-right="0"
   fit-margin-bottom="0"
   inkscape:zoom="1.4581158"
   inkscape:cx="232.37228"
   inkscape:cy="-79.891867"
   inkscape:window-x="-8"
   inkscape:window-y="-8"
   inkscape:window-maximized="1"
   inkscape:current-layer="svg2" />
<defs
   id="defs4">
</defs>
<polygon
   clip-rule="evenodd"
   points="500,0 500,80.808105 0,80.808105 0,0 0,0 "
   id="polygon6"
   style="opacity:0;fill:#ffffff;fill-rule:evenodd"
   transform="translate(-14.157227,-9.9282227)" />
<path
   clip-rule="evenodd"
   d="M 81.570312,12.225586 H 68.371093 l -1.100097,1.649902 h 9.350097 l 0.549805,0.549805 h -0.549805 l -9.899902,0.549804 -1.649902,1.649903 11,0.549804 0,0 v 0.549805 h -11 l -1.649903,2.201172 h 11.549805 0.550293 l -0.550293,0.548828 H 62.871582 l -1.649903,2.199707 h 13.199707 l 0.549805,0.551269 H 74.421386 L 60.67041,23.77539 59.571777,25.425292 h 13.749512 l 0.550293,0.549805 -0.550293,0.549805 H 59.020996 l -1.649903,1.649902 15.400391,0.552246 h 0.549805 l -0.549805,0.547364 H 56.821289 l -1.100098,1.652343 v -1.652343 l -19.25,0.552734 1.649902,-1.652344 H 55.171386 V 26.524902 H 39.222167 l 0.549805,-1.099609 h 14.84961 L 54.071289,23.77539 H 40.321777 V 22.674316 H 54.071289 L 53.521484,21.024414 H 40.321777 V 19.374511 L 53.521484,19.925781 52.971679,17.724609 39.771972,18.274902 38.671875,16.625 h 14.299804 l -0.550293,-1.649903 -14.849121,0.549805 c -1.101074,-1.099609 -1.650879,-1.649414 -2.199707,-2.199707 l 16.499024,0.550293 V 12.225586 H 9.5219718 v 1.099609 l 21.9995122,0.550293 0.550293,0.549805 H 31.521484 L 8.9721668,15.524902 8.4218738,16.625 34.271484,17.174804 h 0.549805 l -0.549805,0.549805 -26.3994142,0.550293 v 1.099609 l 28.0493162,0.55127 0,0 v 0.548828 h -9.349121 c 0.549805,0.549805 1.649902,1.101074 1.649902,2.199707 h 7.699219 v 0.55127 l 0,0 -7.149414,0.549804 -0.549805,1.649903 h 6.599121 l 0.55127,0.549804 -0.55127,0.549805 H 28.222167 C 27.672363,27.074707 27.12207,27.625 26.02246,28.174804 l 6.599121,0.552246 h 0.549804 L 32.621581,29.274414 5.1225578,30.375 l -0.549805,0.551757 23.6494132,0.547852 0.549805,0.551758 H 28.222166 L 4.0224598,33.126953 v 0.546875 l 27.4990232,0.552734 v 0.547852 0.551757 h -7.148926 c 0.548828,0.547852 0.548828,1.09961 1.100098,1.647461 h 7.148927 l 0.549803,0.552735 -0.549803,0.546875 h -7.148927 c 0,1.100586 0,1.652344 -0.55127,2.200195 h 7.700196 v 0.552734 l 0,0 -8.249024,0.546875 c -1.101074,0.552735 -1.650879,1.09961 -2.750976,1.652344 h 9.899902 l 0.550293,0.547852 H 31.521483 L 1.2729488,44.672851 v 1.09961 l 28.0488272,0.552734 h 0.550293 l -0.550293,0.546875 -28.59863224,0.552734 -0.55127,1.09961 25.85058524,0.547851 0,0 V 49.625 l -26.40038924,0.546875 v 1.105469 H 41.421873 l 0.549805,-1.105469 H 29.321777 l 2.199707,-1.647461 h 10.450195 l 0.549805,-1.652344 h -9.350098 l 1.649903,-1.099609 h 8.25 V 44.125 h -7.149903 l 0.549805,-1.09961 h 7.150391 l 0.549804,-1.652343 H 37.02246 v -1.647461 h 7.148926 l 0.549805,-1.652344 -7.148926,0.552734 -0.549805,-1.652343 h 8.249024 l 0.549805,-1.647461 h -9.350098 l -1.098633,-1.09961 h 10.448731 l 0.549804,-1.099609 v 1.099609 h 18.700196 l 0.549804,-1.099609 v 1.099609 h 5.500489 l 0.550293,0.547852 -0.550293,0.551758 h -6.050293 v 1.647461 H 70.5708 l 0.550782,0.552734 -0.550782,0.546875 h -6.049316 l -0.549805,2.200195 h 5.500489 l 0.548339,0.552735 h -0.548339 l -5.500489,0.546875 -0.550293,1.652343 h 5.499512 l 0.55127,0.547852 h -0.55127 l -6.049316,0.551758 -0.549806,1.647461 6.049316,0.552734 0,0 v 0.546875 h -6.049316 l -0.550293,1.652344 6.049317,0.547852 0,0 -0.549804,0.552734 h -5.499512 l -0.549805,1.652344 h 10.450196 l 9.898437,-39.051758 0,0 z m -9.350098,19.800781 0,0 -38.499023,0.547851 -0.549805,-0.547851 c 0.549805,-0.551758 0.549805,-0.551758 1.100098,-0.551758 h 37.948731 v 0.551758 l -10e-7,0 z"
   id="path8"
   inkscape:connector-curvature="0"
   style="fill:#d34736;fill-rule:evenodd" />
<polygon
   clip-rule="evenodd"
   points="60.52832,45.254394 61.07959,46.901856 77.578613,46.901856 78.678711,45.254394 78.678711,45.254394 "
   id="polygon10"
   style="fill:#d34736;fill-rule:evenodd"
   transform="translate(-14.157227,-9.9282227)" />
<polygon
   clip-rule="evenodd"
   points="61.07959,48.554199 61.628418,50.20166 75.378906,50.20166 76.479004,48.001465 76.479004,48.001465 "
   id="polygon12"
   style="fill:#d34736;fill-rule:evenodd"
   transform="translate(-14.157227,-9.9282227)" />
<polygon
   clip-rule="evenodd"
   points="61.628418,51.301269 62.179199,52.953613 73.729004,52.953613 74.827637,51.301269 74.827637,51.301269 "
   id="polygon14"
   style="fill:#d34736;fill-rule:evenodd"
   transform="translate(-14.157227,-9.9282227)" />
<polygon
   clip-rule="evenodd"
   points="62.179199,54.053223 62.729492,55.700684 71.52832,55.700684 72.62793,54.053223 72.62793,54.053223 "
   id="polygon16"
   style="fill:#d34736;fill-rule:evenodd"
   transform="translate(-14.157227,-9.9282227)" />
<polygon
   clip-rule="evenodd"
   points="62.729492,56.800293 63.279297,58.452637 69.328613,59.000488 70.978516,56.800293 70.978516,56.800293 "
   id="polygon18"
   style="fill:#d34736;fill-rule:evenodd"
   transform="translate(-14.157227,-9.9282227)" />
<polygon
   clip-rule="evenodd"
   points="63.279297,59.553223 63.829102,61.205566 68.228516,61.205566 68.778809,59.553223 68.778809,59.553223 "
   id="polygon20"
   style="fill:#d34736;fill-rule:evenodd"
   transform="translate(-14.157227,-9.9282227)" />
<path
   clip-rule="evenodd"
   d="m 17.771972,21.024414 c -3.299316,0 -7.148926,0 -10.4497072,0 l -0.549805,1.101074 10.4497072,0.548828 0.549805,-1.649902 0,0 z"
   id="path22"
   inkscape:connector-curvature="0"
   style="fill:#d34736;fill-rule:evenodd" />
<polygon
   clip-rule="evenodd"
   points="20.929688,34.253418 20.379395,35.353516 30.82959,35.353516 30.82959,33.703613 30.82959,33.703613 "
   id="polygon24"
   style="fill:#d34736;fill-rule:evenodd"
   transform="translate(-14.157227,-9.9282227)" />
<polygon
   clip-rule="evenodd"
   points="19.82959,37.00293 19.82959,38.103027 29.729492,38.655273 30.279785,36.453125 30.279785,36.453125 "
   id="polygon26"
   style="fill:#d34736;fill-rule:evenodd"
   transform="translate(-14.157227,-9.9282227)" />
<polygon
   clip-rule="evenodd"
   points="17.629883,45.802246 17.629883,46.901856 27.528809,46.901856 28.080078,45.254394 28.080078,45.254394 "
   id="polygon28"
   style="fill:#d34736;fill-rule:evenodd"
   transform="translate(-14.157227,-9.9282227)" />
<polygon
   clip-rule="evenodd"
   points="17.080078,48.554199 16.529785,49.653809 26.97998,50.20166 26.97998,48.554199 26.97998,48.554199 "
   id="polygon30"
   style="fill:#d34736;fill-rule:evenodd"
   transform="translate(-14.157227,-9.9282227)" />
<polygon
   clip-rule="evenodd"
   points="15.979004,51.854004 15.979004,52.953613 25.878906,52.953613 26.430176,51.301269 26.430176,51.301269 "
   id="polygon32"
   style="fill:#d34736;fill-rule:evenodd"
   transform="translate(-14.157227,-9.9282227)" />
<polygon
   clip-rule="evenodd"
   points="77.028809,8.9541016 68.228516,22.153809 70.978516,35.90332 79.77832,22.153809 79.77832,22.153809 "
   id="polygon34"
   style="fill:#455a7e;fill-rule:evenodd"
   transform="translate(-14.157227,-9.9282227)" />
<path
   clip-rule="evenodd"
   d="m 128.31982,20.474609 c 0,-6.049316 -6.04932,-8.249023 -12.09961,-8.249023 H 97.520993 l -0.551271,2.749511 c 3.300778,0 4.400878,1.100098 4.400878,2.199707 0,1.100098 0,2.750977 -0.5498,3.299805 L 93.120113,51.277343 H 107.4209 c 4.39941,0 9.34912,-0.552734 12.09863,-2.205078 3.85058,-2.200195 6.60058,-5.499023 6.60058,-9.898437 0,-5.5 -4.9497,-8.247071 -8.80029,-8.247071 6.05029,-1.099609 11,-4.401855 11,-10.452148 l 0,0 z m -8.80029,0.549805 c 0,4.950683 -3.29932,7.702636 -8.79883,7.702636 h -2.75098 l 2.19971,-9.352539 C 110.7207,17.174804 111.2705,16.625 114.0205,16.625 c 3.84913,0 5.49903,1.649902 5.49903,4.399414 l 0,0 z m -2.19971,17.048828 c 0,5.5 -4.39941,8.798828 -10.44971,8.798828 -3.2998,0 -3.2998,-1.099609 -3.2998,-2.199219 l 3.2998,-11.545898 h 4.40039 c 4.39942,0 6.04932,1.647461 6.04932,4.946289 l 0,0 z"
   id="path36"
   inkscape:connector-curvature="0"
   style="fill:#455a7e;fill-rule:evenodd" />
<path
   clip-rule="evenodd"
   d="m 152.51904,24.875 c -0.54981,-0.549805 -1.64941,-1.09961 -3.29932,-1.09961 -2.74951,0 -5.49951,1.649903 -7.14941,4.95166 l 1.09863,-4.95166 -12.64941,1.649903 -0.54981,2.199707 c 2.74951,0.549804 3.85059,1.649414 3.85059,3.301757 l -0.55127,1.647461 -4.39941,18.703125 h 8.25048 l 3.29932,-13.750976 c 1.1001,-4.399414 3.84961,-7.151368 7.15039,-7.151368 1.6499,0 2.74951,0.551758 3.29981,1.09961 l 1.64941,-6.599609 0,0 z"
   id="path38"
   inkscape:connector-curvature="0"
   style="fill:#455a7e;fill-rule:evenodd" />
<path
   clip-rule="evenodd"
   d="m 169.01953,16.075195 c 0,-2.199707 -1.65088,-4.399414 -4.9502,-4.399414 -3.2998,0 -4.9497,2.199707 -4.9497,4.949219 0,2.199707 1.6499,3.849609 4.39941,3.849609 3.2998,0 5.50049,-2.199707 5.50049,-4.399414 l 0,0 z m -2.20069,7.700195 -13.1997,1.09961 -0.54981,2.199707 c 2.74951,0 3.85059,1.100097 3.85059,2.752441 l -0.54981,1.099609 -4.95068,20.350586 h 8.25 l 7.14941,-27.501953 0,0 z"
   id="path40"
   inkscape:connector-curvature="0"
   style="fill:#455a7e;fill-rule:evenodd" />
<path
   clip-rule="evenodd"
   d="m 204.21923,16.075195 c 0,-2.199707 -1.6499,-4.399414 -4.95068,-4.399414 -3.2998,0 -4.94922,2.199707 -4.94922,4.949219 0,2.199707 1.64942,3.849609 4.39942,3.849609 3.29931,0 5.50048,-2.199707 5.50048,-4.399414 l 0,0 z m -2.20117,7.700195 c -3.29931,0 -8.79883,0.549805 -10.44873,0.549805 h -9.35107 l 2.75097,-10.449707 -9.90039,6.050293 -1.09961,4.399414 h -4.39941 l -1.1001,3.84961 h 4.39942 l -3.84961,15.398437 c 0,1.099609 0,2.199219 0,2.751953 0,4.399414 3.2998,5.499024 8.24902,5.499024 1.6499,0 3.85108,0 4.94971,-0.546875 l 1.10107,-3.85254 c -1.10107,0 -2.1997,0 -3.2998,0 -2.19971,0 -2.75098,-0.552734 -2.75098,-1.652343 0,-1.09961 0,-1.647461 0,-2.747071 l 3.85108,-14.850586 h 8.24902 c 1.65088,0 2.20068,1.09961 2.20068,2.200196 v 1.651367 l -4.95068,19.250977 h 8.25049 l 7.14892,-27.501954 0,0 z"
   id="path42"
   inkscape:connector-curvature="0"
   style="fill:#455a7e;fill-rule:evenodd" />
<path
   clip-rule="evenodd"
   d="m 225.66797,24.875 c -1.64991,-0.549805 -4.94971,-1.09961 -7.69922,-1.09961 -8.25049,0 -13.20118,3.299317 -13.20118,8.798828 0,4.399415 2.75098,6.051758 5.50098,7.699219 3.29932,1.652344 4.39942,2.751953 4.39942,4.399414 0,2.199219 -1.64991,3.299805 -4.94971,3.299805 -3.29932,0 -6.05029,-1.647461 -7.7002,-3.847656 l -1.6499,6.599609 c 2.20117,0.552735 6.05078,1.09961 8.80029,1.09961 8.8003,0 13.19971,-3.851563 13.19971,-9.351563 0,-3.84668 -1.6499,-6.046875 -4.94922,-7.698242 -3.2998,-2.200195 -4.40088,-2.748047 -4.40088,-4.399414 0,-1.64795 1.64991,-2.75 4.40088,-2.75 3.29932,0 4.94922,1.649414 6.59912,3.849609 l 1.64991,-6.599609 0,0 z"
   id="path44"
   inkscape:connector-curvature="0"
   style="fill:#455a7e;fill-rule:evenodd" />
<path
   clip-rule="evenodd"
   d="m 254.81933,29.274414 c 0,-2.749512 -2.20215,-5.499024 -6.05176,-5.499024 -4.39941,0 -7.69921,1.649903 -10.45019,4.399414 l 4.40039,-17.049316 -13.19922,1.100098 -0.5498,2.749511 c 3.29931,0 3.84961,1.100098 3.84961,2.199707 l -0.5503,2.199707 -7.70019,31.902832 h 8.25049 l 3.29931,-13.750976 c 1.1001,-4.399414 4.40088,-8.799317 7.70069,-8.799317 1.64941,0 2.19921,1.100098 2.19921,2.199707 0,0.547852 0,1.647461 -0.5498,2.747071 l -4.39941,17.603515 h 8.24902 l 4.94922,-17.603515 c 0,-1.647461 0.55273,-2.74707 0.55273,-4.399414 l 0,0 z"
   id="path46"
   inkscape:connector-curvature="0"
   style="fill:#455a7e;fill-rule:evenodd" />
<path
   clip-rule="evenodd"
   d="m 317.5166,12.225586 h -9.89942 c -4.95117,8.249023 -12.65039,21.448242 -17.0498,28.600586 l -3.29981,-28.600586 h -14.85058 l -1.09961,2.749511 c 3.2998,0 4.94922,1.100098 4.94922,2.199707 0,0.549805 -0.54981,2.199707 -0.54981,3.299805 l -8.24902,30.802734 h 6.04883 c 1.65039,-4.952148 4.39941,-18.703125 6.59961,-28.051757 l 3.85156,28.051757 h 6.0498 c 3.84961,-6.604492 10.44825,-17.603515 16.5,-27.501953 l -6.60156,27.501953 h 8.25196 l 9.34863,-39.051757 0,0 z"
   id="path48"
   inkscape:connector-curvature="0"
   style="fill:#455a7e;fill-rule:evenodd" />
<path
   clip-rule="evenodd"
   d="m 332.91699,16.075195 c 0,-2.199707 -1.64942,-4.399414 -4.40235,-4.399414 -3.29882,0 -5.49902,2.199707 -5.49902,4.949219 0,2.199707 1.65039,3.849609 4.94922,3.849609 3.30273,0 4.95215,-2.199707 4.95215,-4.399414 l 0,0 z m -2.2002,7.700195 -13.20019,1.649903 -0.54981,2.199707 c 2.74903,0.549804 3.84961,1.10205 3.84961,2.75 l -0.55078,1.651367 -4.39941,19.250976 h 8.24902 l 6.60156,-27.501953 0,0 z"
   id="path50"
   inkscape:connector-curvature="0"
   style="fill:#455a7e;fill-rule:evenodd" />
<path
   clip-rule="evenodd"
   d="m 365.36523,11.125488 -12.65039,1.100098 -0.5498,2.749511 c 2.75195,0 3.30175,0.549805 3.30175,2.199707 v 2.199707 l -2.20019,7.700196 c -1.10156,-1.649415 -3.30176,-3.299317 -6.60156,-3.299317 -9.89844,0 -15.39747,9.351563 -15.39747,18.697266 0,5.5 3.84961,9.351562 9.34864,9.351562 3.2998,0 6.04883,-1.652344 7.69922,-3.851562 l -0.54981,3.304687 h 7.70117 l 9.89844,-40.151855 0,0 z m -13.74805,21.44873 c 0,6.051758 -3.30175,14.850586 -8.25195,14.850586 -2.19922,0 -3.29883,-1.652343 -3.29883,-4.399414 0,-7.151367 3.84961,-14.29834 7.69922,-14.29834 2.74902,0 3.85156,1.64795 3.85156,3.847168 l 0,0 z"
   id="path52"
   inkscape:connector-curvature="0"
   style="fill:#455a7e;fill-rule:evenodd" />
<path
   clip-rule="evenodd"
   d="m 380.76562,11.125488 -13.20019,1.100098 -0.54981,2.749511 c 3.29883,0 3.84961,0.549805 3.84961,2.199707 l -0.55078,2.199707 -8.24805,31.902832 h 8.24805 l 10.45117,-40.151855 0,0 z"
   id="path54"
   inkscape:connector-curvature="0"
   style="fill:#455a7e;fill-rule:evenodd" />
<path
   clip-rule="evenodd"
   d="m 403.86328,30.375 c 0,-2.200196 -1.09766,-4.399903 -3.29981,-5.5 -1.64941,-0.549805 -3.84961,-1.09961 -6.59863,-1.09961 -3.84961,0 -6.0498,0.549805 -8.24902,1.649903 -2.75,1.649414 -4.39942,3.849121 -4.39942,6.601074 h 8.79883 c 1.09961,-3.299317 2.19922,-4.95166 3.84961,-4.95166 1.64941,0 2.19922,1.100097 2.19922,2.199707 v 2.200195 l -1.09961,3.851562 c -4.39941,0 -9.34863,0.547852 -12.09863,1.647461 -3.85157,1.652344 -5.50196,4.399414 -5.50196,8.251953 0,3.84668 2.75196,6.598633 7.15137,6.598633 3.29981,0 6.04981,-1.652344 7.14942,-3.299805 l -0.54981,2.75293 h 8.24902 l 3.85157,-15.951172 c 0.54785,-1.099609 0.54785,-3.299804 0.54785,-4.951171 l 0,0 z m -9.89844,8.798828 -0.55078,3.851562 c -1.09961,2.747071 -2.74902,4.399414 -4.94922,4.399414 -1.64941,0 -2.74902,-1.099609 -2.74902,-2.751953 0,-2.200195 1.09961,-3.846679 2.74902,-4.399414 1.65039,-0.547851 3.84961,-1.099609 5.5,-1.099609 l 0,0 z"
   id="path56"
   inkscape:connector-curvature="0"
   style="fill:#455a7e;fill-rule:evenodd" />
<path
   clip-rule="evenodd"
   d="m 436.31445,29.274414 c 0,-3.299317 -2.2002,-5.499024 -6.59961,-5.499024 -3.84961,0 -7.70117,2.749512 -9.90137,4.95166 l 1.65039,-4.95166 -13.19824,1.649903 -0.55078,2.199707 c 2.75,0.549804 3.84961,1.10205 3.84961,2.75 l -0.54981,1.651367 -4.94921,19.250976 h 8.24902 l 3.2998,-13.750976 c 1.64942,-4.952149 4.94922,-8.799317 7.69922,-8.799317 1.64942,0 2.75196,0.547364 2.75196,2.199707 0,0.547852 -0.54981,1.647461 -0.54981,2.200196 l -4.40234,18.15039 h 8.25195 l 4.39941,-18.703125 c 0.54981,-0.547851 0.54981,-2.199218 0.54981,-3.299804 l 0,0 z"
   id="path58"
   inkscape:connector-curvature="0"
   style="fill:#455a7e;fill-rule:evenodd" />
<path
   clip-rule="evenodd"
   d="m 472.0625,11.125488 -12.64844,1.100098 -0.54981,2.749511 c 2.74903,0 3.29981,0.549805 3.29981,2.199707 v 2.199707 l -2.2002,7.700196 c -1.09961,-1.649415 -3.2998,-3.299317 -6.59961,-3.299317 -9.90136,0 -15.40039,9.351563 -15.40039,18.697266 0,5.5 3.84961,9.351562 9.34864,9.351562 3.30273,0 6.05175,-1.652344 7.70214,-3.851562 l -0.5498,3.304687 h 7.14844 l 10.44922,-40.151855 0,0 z m -13.74805,21.44873 c 0,6.051758 -3.29981,14.850586 -8.80176,14.850586 -1.64941,0 -2.75,-1.652343 -2.75,-4.399414 0,-7.151367 3.85254,-14.29834 7.70215,-14.29834 2.74902,0 3.84961,1.64795 3.84961,3.847168 l 0,0 z"
   id="path60"
   inkscape:connector-curvature="0"
   style="fill:#455a7e;fill-rule:evenodd" />
</svg>