<?xml version="1.0" encoding="UTF-8" standalone="no"?>
<!-- Created with Inkscape (http://www.inkscape.org/) -->
<svg
   xmlns:svg="http://www.w3.org/2000/svg"
   xmlns="http://www.w3.org/2000/svg"
   version="1.0"
   viewBox="0 0 313 69"
   id="svg1340">
  <defs
     id="defs1343" />
  <g
     transform="matrix(0.715993,0,0,0.715993,-43.7539,-20.18618)"
     id="g1362">
    <path
       d="M 422.97681,107.17065 C 423.31462,106.37833 423.95047,104.58495 424.38983,103.18537 C 425.07742,100.99502 425.56975,100.33147 427.92536,98.420262 C 431.61029,95.430509 436.54414,89.724941 439.41807,85.129946 C 440.63493,83.184363 440.63826,83.16103 439.59285,83.902277 C 433.72278,88.064465 426.47514,91.645573 421.99401,92.597979 C 419.51216,93.125465 413.57603,93.27514 412.43921,92.838899 C 412.06897,92.696826 411.8535,92.34776 411.96039,92.063197 C 412.06727,91.778635 411.57011,91.214115 410.8556,90.808715 C 408.90501,89.701989 408.00967,87.628623 408.29375,84.876181 C 408.73157,80.634126 411.95604,76.030928 415.52535,74.552468 C 416.64768,74.087583 416.8582,73.785799 416.68654,72.887822 C 416.34345,71.09309 417.81646,67.946913 419.61748,66.627669 C 420.50994,65.973947 421.57431,65.034543 421.98275,64.540103 C 422.57702,63.820713 423.37651,63.608242 425.9848,63.476529 C 427.77749,63.386003 430.05939,63.531433 431.05568,63.799707 C 434.70402,64.782101 438.21355,68.606797 441.21778,74.87439 C 442.16561,76.851809 443.07841,78.469698 443.24622,78.469698 C 443.41403,78.469698 443.90386,77.546615 444.33473,76.418401 L 445.11813,74.367104 L 443.97035,73.531007 C 443.33908,73.071154 442.21092,71.741729 441.46334,70.576728 C 437.4132,64.26513 436.93724,55.664711 440.26967,49.007492 C 442.3235,44.904538 446.04866,40.65827 447.25765,41.041987 C 447.8229,41.221391 448.4745,40.998552 449.09832,40.412505 C 452.08524,37.606446 458.70284,37.419256 459.73599,40.111601 C 459.96192,40.700369 460.25376,40.659409 461.88283,39.810289 C 464.42417,38.485667 468.71422,38.219488 471.34277,39.223342 C 473.68962,40.119608 474.94852,41.58766 475.6046,44.193192 C 475.88247,45.296706 476.34786,46.111864 476.69999,46.111864 C 477.48008,46.111864 477.46927,46.652442 476.62433,49.897243 C 474.8618,56.665813 470.51432,61.068046 458.25217,68.500791 C 450.29373,73.324824 448.64702,74.601408 447.81542,76.591722 C 447.45443,77.455681 447.21329,78.216767 447.27955,78.283026 C 447.34581,78.349284 448.59509,77.501076 450.05573,76.398118 C 456.9926,71.159962 466.75563,65.256108 470.8755,63.808092 C 472.2814,63.313954 475.12792,62.690699 477.20108,62.42308 C 480.53719,61.992433 481.01667,62.019044 481.37234,62.65458 C 481.59336,63.049524 482.56501,63.585605 483.53157,63.845871 C 484.49812,64.106138 486.08725,65.078494 487.06295,66.006662 C 488.68789,67.552427 488.83697,67.887449 488.83697,69.9934 C 488.83697,72.683046 488.08352,74.697667 486.48641,76.278476 L 485.34151,77.411688 L 486.64598,79.997818 C 488.70011,84.070143 488.33505,87.455495 485.47615,90.846352 C 484.77277,91.680608 484.19401,92.676485 484.19002,93.059411 C 484.1797,94.049286 480.35707,95.993345 476.20412,97.120771 C 473.28616,97.912922 471.97114,98.035266 468.78001,97.811482 C 460.38036,97.222437 453.61944,93.333273 447.64086,85.651364 L 445.22982,82.553416 L 443.3789,85.801367 C 439.33006,92.906159 434.13347,99.240529 427.71316,104.89706 C 423.0734,108.98486 421.97943,109.51001 422.97681,107.17065 z "
       style="fill:#5fba45"
       id="path1353" />
    <path
       d="M 296.463,113.92693 C 288.64027,112.35826 284.73876,109.72755 284.19225,105.65301 C 283.68937,101.90375 286.29629,99.538079 290.84344,99.617324 C 292.26284,99.642058 293.52984,99.767983 293.65902,99.897153 C 293.78819,100.02633 293.57433,100.58822 293.18378,101.14582 C 291.53747,103.49626 292.81792,106.72465 296.01006,108.27168 C 298.77884,109.61355 305.05702,109.8972 308.67953,108.84411 C 312.15,107.83522 314.63658,105.43482 314.63658,103.09353 C 314.63658,99.307837 312.48359,98.185637 304.44164,97.779621 C 295.78279,97.342462 294.80562,97.160992 293.11441,95.676096 C 290.67539,93.534606 290.64444,90.102916 293.03672,87.061625 C 293.76823,86.131661 293.8516,85.799505 293.39197,85.646298 C 292.21483,85.253917 289.29094,82.268313 288.34676,80.494595 C 287.5788,79.051927 287.38702,77.9379 287.38775,74.923634 C 287.38851,71.706142 287.55971,70.832294 288.56005,68.939651 C 291.05838,64.212847 294.37756,62.429257 301.18834,62.153734 C 306.06391,61.956498 309.08774,62.614924 311.30074,64.355662 C 312.55545,65.342623 313.46161,65.006059 313.98439,63.358898 C 314.23803,62.559756 314.79512,62.51241 323.94443,62.51241 L 333.63581,62.51241 L 333.77705,75.291508 L 333.9183,88.070604 L 335.14925,89.683536 C 338.3939,93.935058 345.38679,92.337189 348.29998,86.678601 C 349.40865,84.52513 349.43233,84.28417 349.43233,75.157986 C 349.43233,66.329153 349.38044,65.749053 348.44995,64.174628 L 347.46757,62.51241 L 352.77172,62.51241 L 358.07586,62.51241 L 358.07586,78.143819 C 358.07586,92.933428 358.12365,93.86439 358.96324,95.430881 L 359.85062,97.086534 L 354.97391,97.086534 L 350.09722,97.086534 L 350.09722,94.604138 L 350.09722,92.121739 L 347.68506,94.326309 C 345.78336,96.064359 344.65875,96.697127 342.37061,97.316496 C 337.34583,98.676642 331.02263,97.41958 328.23157,94.505633 C 325.80502,91.972241 325.5467,90.633017 325.29022,79.256357 C 325.06507,69.269029 325.00546,68.692326 324.10546,67.793611 C 322.70398,66.394136 319.69263,66.184457 317.14976,67.309289 L 315.09738,68.217152 L 315.96539,70.129804 C 317.23858,72.93528 317.16275,77.574264 315.79645,80.464359 C 313.46041,85.405737 309.50556,87.297655 301.11721,87.486599 C 298.1318,87.553841 298.0144,87.597923 298.0144,88.651543 C 298.0144,90.216802 299.63033,90.866064 303.55513,90.877753 C 308.71564,90.893116 313.96671,91.633813 315.89722,92.618684 C 320.91787,95.180033 322.70269,101.68257 319.88691,107.15416 C 317.52946,111.73514 312.43246,113.96034 303.77675,114.18739 C 300.85125,114.26413 297.56006,114.14693 296.463,113.92693 z M 305.75551,81.46169 C 308.23213,80.191746 309.31771,78.200856 309.31679,74.93055 C 309.31546,70.198535 307.08872,67.750864 302.55302,67.495701 C 299.34274,67.315102 297.47968,68.199392 296.01735,70.597817 C 294.85106,72.510675 294.81242,76.762557 295.94172,78.919872 C 296.90477,80.759585 299.92205,82.45902 302.22535,82.45902 C 303.09721,82.45902 304.68578,82.010221 305.75551,81.46169 z M 134.57652,97.544818 C 129.60992,96.640439 124.81047,93.303358 122.57853,89.202543 C 118.49026,81.691033 119.49985,71.924033 124.92541,66.498479 C 129.48643,61.937457 137.46759,60.526493 143.79868,63.161932 C 145.92508,64.047087 149.07929,67.038653 150.22632,69.25814 C 151.26163,71.261425 152.38866,75.870265 152.3976,78.137254 L 152.40415,79.799472 L 140.63065,79.799472 L 128.85715,79.799472 L 129.16636,81.904948 C 130.07183,88.070671 133.6305,91.643454 139.32139,92.100263 C 142.94916,92.391465 145.84747,91.655657 150.74356,89.200451 C 150.92729,89.108316 150.50716,90.595659 149.80994,92.505658 L 148.54224,95.978389 L 146.25803,96.75183 C 143.54703,97.669773 137.51243,98.079427 134.57652,97.544818 z M 144.06712,72.928973 C 143.73491,69.69878 140.50206,66.944283 137.04476,66.945679 C 133.76159,66.947005 130.16629,69.86853 129.52948,73.052561 L 129.23952,74.502333 L 136.7217,74.38054 L 144.20388,74.258747 L 144.06712,72.928973 z M 372.925,97.501871 C 371.46225,97.272286 369.27361,96.835583 368.06135,96.531415 L 365.85725,95.978389 L 364.66048,92.210696 C 364.00226,90.138465 363.44824,88.211099 363.42934,87.927658 C 363.41043,87.644217 364.44215,87.993491 365.72206,88.70382 C 370.78135,91.511647 377.42349,92.585218 380.8579,91.150232 C 382.80882,90.335085 383.61155,88.256179 382.67482,86.444747 C 381.99941,85.138648 380.14023,84.10091 373.94445,81.571703 C 367.45881,78.924178 365.16799,76.321163 365.16799,71.599199 C 365.16799,69.009614 366.15785,66.442966 367.66955,65.112788 C 368.12213,64.714557 369.39002,63.916693 370.48708,63.339756 C 372.33086,62.370133 372.98471,62.291581 379.13061,62.30136 C 383.17092,62.307789 386.51858,62.531872 387.66333,62.872518 L 389.54718,63.433096 L 389.54718,66.78787 C 389.54718,69.805849 389.4693,70.111425 388.77148,69.83168 C 384.59361,68.156856 378.66826,67.403337 376.16709,68.228797 C 375.22094,68.541054 374.40087,69.196127 374.08315,69.893435 C 373.32553,71.556241 374.4207,72.980277 377.50595,74.344042 C 387.60167,78.80663 389.20944,79.874209 390.72022,83.118508 C 393.26834,88.590391 390.61199,94.808968 384.86305,96.830278 C 382.22955,97.756208 376.57295,98.074428 372.925,97.501871 z M 70.929713,96.228267 C 72.693794,94.840643 74.309917,91.292917 82.603504,70.601868 L 90.465444,50.987702 L 95.23515,50.987702 C 98.637439,50.987702 100.06827,51.146548 100.22605,51.541775 C 102.26665,56.653232 115.86902,88.31526 116.90455,90.364048 C 117.68503,91.908203 119.13554,94.052464 120.12793,95.129071 L 121.93225,97.086534 L 113.61508,97.086534 L 105.29791,97.086534 L 106.4665,95.917946 C 108.13014,94.254306 107.9767,92.92845 105.30799,85.907221 L 102.98088,79.784754 L 94.348176,79.902928 L 85.71547,80.021101 L 83.613131,85.561826 C 81.165493,92.012591 80.948634,94.164347 82.569848,95.913664 L 83.656828,97.086534 L 76.747717,97.086534 L 69.838606,97.086534 L 70.929713,96.228267 z M 100.54296,74.078567 C 100.54296,73.517398 94.773929,58.817276 94.399023,58.423144 C 94.134749,58.145318 88.11016,73.24716 88.125921,74.147932 C 88.134322,74.628033 100.54296,74.558714 100.54296,74.078567 z M 157.27913,95.430881 C 158.11302,93.875015 158.1665,92.932892 158.1665,79.799472 C 158.1665,66.66605 158.11302,65.723929 157.27913,64.168063 L 156.39175,62.51241 L 161.26845,62.51241 L 166.14515,62.51241 L 166.16839,65.282773 C 166.19142,68.026014 166.19896,68.042287 166.93847,66.94499 C 169.17766,63.622482 172.21365,61.957982 175.66555,62.160311 L 177.89148,62.290781 L 177.89148,65.911644 C 177.89148,67.903119 177.79146,69.632119 177.6692,69.753866 C 177.54695,69.875614 176.50359,69.759363 175.35064,69.49553 C 172.50397,68.844117 170.08946,69.584809 168.57131,71.575214 C 166.96721,73.678288 166.45701,77.644063 166.65874,86.441498 C 166.80988,93.033157 166.92689,93.954575 167.80096,95.436014 L 168.7748,97.086534 L 162.58327,97.086534 L 156.39175,97.086534 L 157.27913,95.430881 z M 194.1669,96.754091 C 194.26061,96.571247 194.82576,95.424317 195.4228,94.205357 L 196.50832,91.989067 L 196.50832,74.258747 C 196.50832,58.308463 196.42927,56.330382 195.72095,54.555772 C 195.28789,53.470812 194.60871,52.224149 194.21166,51.785409 C 193.51927,51.020324 193.79315,50.987702 200.90914,50.987702 C 204.9898,50.987702 208.25186,51.137302 208.15815,51.320146 C 208.06445,51.502989 207.49979,52.64992 206.90336,53.868879 L 205.81894,56.085169 L 205.67066,73.301011 L 205.52238,90.516852 L 212.54006,90.361215 C 218.60766,90.226647 219.84278,90.074636 221.66321,89.238398 C 222.82122,88.706453 223.76869,88.409111 223.76869,88.577647 C 223.76869,88.746178 223.15384,90.729625 222.40236,92.985303 L 221.03603,97.086534 L 207.51628,97.086534 C 200.08041,97.086534 194.07319,96.936934 194.1669,96.754091 z M 228.77029,95.424317 C 229.72865,93.802732 229.75267,93.420768 229.75267,79.799472 C 229.75267,67.337647 229.66929,65.684366 228.97697,64.418269 C 228.55033,63.638052 228.20127,62.883521 228.20127,62.741534 C 228.20127,62.599547 230.44526,62.539775 233.18792,62.608707 L 238.17457,62.734039 L 238.3962,78.691327 C 238.59933,93.316953 238.68682,94.750338 239.44451,95.867575 L 240.27119,97.086534 L 234.02955,97.086534 L 227.78791,97.086534 L 228.77029,95.424317 z M 245.93159,96.958627 C 245.93159,96.888278 246.33052,96.048242 246.8181,95.091873 C 247.64785,93.46438 247.70462,92.477901 247.70462,79.68809 C 247.70462,66.852079 247.6503,65.916675 246.80909,64.267783 L 245.91357,62.51241 L 250.79842,62.51241 L 255.68326,62.51241 L 255.68326,65.234364 L 255.68326,67.956319 L 257.43959,65.96102 C 260.10239,62.935922 262.90262,61.857458 268.09449,61.857458 C 271.56642,61.857458 272.71319,62.040916 274.62884,62.902812 C 277.36205,64.132552 279.78875,66.64454 280.53745,69.019092 C 280.86457,70.056587 281.17651,75.349065 281.34265,82.680649 C 281.58454,93.355166 281.7032,94.780356 282.44054,95.867575 L 283.26722,97.086534 L 277.02558,97.086534 L 270.78393,97.086534 L 271.76632,95.424317 C 272.70719,93.832329 272.7487,93.312631 272.7487,83.123907 C 272.7487,72.732828 272.72453,72.446854 271.70857,70.812751 C 270.35606,68.637338 268.4449,67.659426 265.59805,67.686084 C 261.03706,67.728793 257.44519,71.01935 256.53558,75.988327 C 256.26593,77.461346 256.12036,82.045514 256.20242,86.479853 C 256.33903,93.862204 256.41142,94.440789 257.35875,95.720909 L 258.36935,97.086534 L 252.15047,97.086534 C 248.73008,97.086534 245.93159,97.028977 245.93159,96.958627 z M 231.47611,59.442132 C 229.96914,58.795105 228.64452,56.771747 228.64452,55.116863 C 228.64452,49.810555 235.22793,47.593482 237.97703,51.973984 C 239.20057,53.923613 238.93196,56.859038 237.38879,58.4022 C 236.17854,59.612457 233.12405,60.149685 231.47611,59.442132 z "
       style="fill:#008f7e"
       id="path1351" />
  </g>
</svg>
