<?xml version="1.0" encoding="UTF-8" standalone="no"?>
<!-- Created with Inkscape (http://www.inkscape.org/) -->

<svg
   xmlns:dc="http://purl.org/dc/elements/1.1/"
   xmlns:cc="http://creativecommons.org/ns#"
   xmlns:rdf="http://www.w3.org/1999/02/22-rdf-syntax-ns#"
   xmlns:svg="http://www.w3.org/2000/svg"
   xmlns="http://www.w3.org/2000/svg"
   xmlns:sodipodi="http://sodipodi.sourceforge.net/DTD/sodipodi-0.dtd"
   xmlns:inkscape="http://www.inkscape.org/namespaces/inkscape"
   width="307"
   height="63.238998"
   viewBox="0 0 81.227085 16.731985"
   version="1.1"
   id="svg498"
   inkscape:version="0.92.0 r15299"
   sodipodi:docname="monarch 80s.svg">
  <defs
     id="defs492" />
  <sodipodi:namedview
     id="base"
     pagecolor="#ffffff"
     bordercolor="#666666"
     borderopacity="1.0"
     inkscape:pageopacity="0.0"
     inkscape:pageshadow="2"
     inkscape:zoom="2.620915"
     inkscape:cx="153"
     inkscape:cy="31.1195"
     inkscape:document-units="mm"
     inkscape:current-layer="layer1"
     showgrid="false"
     fit-margin-top="0"
     fit-margin-left="0"
     fit-margin-right="0"
     fit-margin-bottom="0"
     units="px"
     inkscape:window-width="1280"
     inkscape:window-height="744"
     inkscape:window-x="-4"
     inkscape:window-y="-4"
     inkscape:window-maximized="1" />
  <metadata
     id="metadata495">
    <rdf:RDF>
      <cc:Work
         rdf:about="">
        <dc:format>image/svg+xml</dc:format>
        <dc:type
           rdf:resource="http://purl.org/dc/dcmitype/StillImage" />
        <dc:title></dc:title>
      </cc:Work>
    </rdf:RDF>
  </metadata>
  <g
     inkscape:label="Layer 1"
     inkscape:groupmode="layer"
     id="layer1"
     transform="translate(51.064584,-326.29934)">
    <g
       id="g537"
       transform="matrix(0.26458333,0,0,0.26458333,-50.932293,326.43163)">
      <g
         id="g504">
	<polygon
   id="polygon500"
   points="55.432,58.823 55.087,58.982 54.823,59.168 54.478,59.273 54.187,59.407 53.842,59.538 53.524,59.618 53.18,59.67 52.783,59.75 52.465,59.803 52.068,59.881 51.697,59.909 51.697,62.239 73.6,62.239 73.6,60.015 73.229,59.961 72.832,59.909 72.461,59.881 72.037,59.881 71.64,59.803 71.216,59.698 70.792,59.67 70.422,59.538 70.078,59.407 69.707,59.247 69.362,59.062 69.018,58.823 68.78,58.611 68.462,58.267 68.223,57.976 68.012,57.579 68.012,38.403 80.856,61.153 93.702,38.403 93.702,57.579 93.49,57.976 93.251,58.267 92.933,58.611 92.695,58.823 92.351,59.062 92.007,59.247 91.636,59.407 91.292,59.538 90.921,59.67 90.497,59.698 90.073,59.803 89.676,59.881 89.252,59.881 88.881,59.909 88.484,59.961 88.113,60.015 88.113,62.239 110.016,62.239 110.016,59.909 109.645,59.881 109.248,59.803 108.931,59.75 108.533,59.67 108.188,59.618 107.871,59.538 107.527,59.407 107.235,59.273 106.891,59.168 106.626,58.982 106.282,58.823 106.044,58.638 105.752,58.426 105.487,58.188 105.222,57.896 105.01,57.631 105.117,14.674 104.984,14.144 104.719,13.773 104.295,13.508 103.845,13.482 103.289,13.561 102.812,13.773 102.442,14.144 102.23,14.674 80.856,54.67 59.483,14.674 59.271,14.144 58.901,13.773 58.424,13.561 57.868,13.482 57.418,13.508 56.994,13.773 56.729,14.144 56.597,14.674 56.703,57.631 56.491,57.896 56.226,58.188 55.961,58.426 55.669,58.638 " />

	<polygon
   id="polygon502"
   points="80.856,49.739 70.766,31.73 80.592,14.197 90.815,31.57 " />

</g>
      <rect
         id="rect506"
         height="31.118999"
         width="188.16701"
         y="31.120001"
         x="117.833" />
      <rect
         id="rect508"
         height="31.120001"
         width="188.16701"
         x="117.833"
         y="0"
         style="fill:#f69820" />
      <rect
         id="rect510"
         height="31.118999"
         width="42.5"
         y="31.120001"
         x="0" />
      <rect
         id="rect512"
         height="31.120001"
         width="42.5"
         x="0"
         y="0"
         style="fill:#f69820" />
      <circle
         id="circle514"
         r="4.033"
         cy="6.7290001"
         cx="57.716999" />
      <circle
         id="circle516"
         r="4.033"
         cy="6.7290001"
         cx="103.342" />
      <circle
         id="circle518"
         r="4.033"
         cy="6.7290001"
         cx="80.791" />
    </g>
    <g
       transform="matrix(0.26458333,0,0,0.26458333,-50.932293,326.43163)"
       id="g559">
      <g
         id="g543">
	<polygon
   points="55.432,58.823 55.087,58.982 54.823,59.168 54.478,59.273 54.187,59.407 53.842,59.538 53.524,59.618 53.18,59.67 52.783,59.75 52.465,59.803 52.068,59.881 51.697,59.909 51.697,62.239 73.6,62.239 73.6,60.015 73.229,59.961 72.832,59.909 72.461,59.881 72.037,59.881 71.64,59.803 71.216,59.698 70.792,59.67 70.422,59.538 70.078,59.407 69.707,59.247 69.362,59.062 69.018,58.823 68.78,58.611 68.462,58.267 68.223,57.976 68.012,57.579 68.012,38.403 80.856,61.153 93.702,38.403 93.702,57.579 93.49,57.976 93.251,58.267 92.933,58.611 92.695,58.823 92.351,59.062 92.007,59.247 91.636,59.407 91.292,59.538 90.921,59.67 90.497,59.698 90.073,59.803 89.676,59.881 89.252,59.881 88.881,59.909 88.484,59.961 88.113,60.015 88.113,62.239 110.016,62.239 110.016,59.909 109.645,59.881 109.248,59.803 108.931,59.75 108.533,59.67 108.188,59.618 107.871,59.538 107.527,59.407 107.235,59.273 106.891,59.168 106.626,58.982 106.282,58.823 106.044,58.638 105.752,58.426 105.487,58.188 105.222,57.896 105.01,57.631 105.117,14.674 104.984,14.144 104.719,13.773 104.295,13.508 103.845,13.482 103.289,13.561 102.812,13.773 102.442,14.144 102.23,14.674 80.856,54.67 59.483,14.674 59.271,14.144 58.901,13.773 58.424,13.561 57.868,13.482 57.418,13.508 56.994,13.773 56.729,14.144 56.597,14.674 56.703,57.631 56.491,57.896 56.226,58.188 55.961,58.426 55.669,58.638 "
   id="polygon539" />

	<polygon
   points="80.856,49.739 70.766,31.73 80.592,14.197 90.815,31.57 "
   id="polygon541" />

</g>
      <rect
         x="117.833"
         y="31.120001"
         width="188.16701"
         height="31.118999"
         id="rect545" />
      <rect
         style="fill:#f69820"
         y="0"
         x="117.833"
         width="188.16701"
         height="31.120001"
         id="rect547" />
      <rect
         x="0"
         y="31.120001"
         width="42.5"
         height="31.118999"
         id="rect549" />
      <rect
         style="fill:#f69820"
         y="0"
         x="0"
         width="42.5"
         height="31.120001"
         id="rect551" />
      <circle
         cx="57.716999"
         cy="6.7290001"
         r="4.033"
         id="circle553" />
      <circle
         cx="103.342"
         cy="6.7290001"
         r="4.033"
         id="circle555" />
      <circle
         cx="80.791"
         cy="6.7290001"
         r="4.033"
         id="circle557" />
    </g>
  </g>
</svg>
