<?xml version="1.0" encoding="UTF-8"?><svg id="Calque_1" xmlns="http://www.w3.org/2000/svg" width="1920" height="1080" viewBox="0 0 1920 1080"><defs><style>.cls-1{fill:#21306b;}.cls-2{fill:#807f84;}</style></defs><path class="cls-1" d="M398.659615980421222,53.018546055034676h10.124172243171415c6.231071645624979,1.520104338818783,11.861208563532273,5.211975669350068,15.553028911224828,10.507767126633553,10.290886127930207,13.899400516083915,14.685046070859244,30.922825497736994,21.918644269962897,46.409576717773234,10.775325067676022,23.973380153891412,23.187709107696719,47.227902272587016,37.455052775550939,69.313209444468157,17.441127384654465,26.946826803365184,38.991777520006508,50.953830139822458,61.394376392740014,73.840867952301778,7.083479228562283,6.164768463017026,13.231193931809685,13.832612996502576,21.785069230800218,17.992353843983437,3.75863335869326,1.587350703952325,4.995094670644903-2.956902718096899,4.928307151063564-5.780255888448664-.284127363838707-12.128282167601355-1.754523434265138-24.340380123136129-5.763660974231243-35.851132648800558-2.856976352919446-8.353079386110039-4.293749240778197-17.290549568560891-2.973930986447158-26.077875289051008,.58482415047547-4.594446027414961,1.403608550845092-10.324509310496069,6.04778833806995-12.613205444318737,5.847017916610639-2.856976352921265,12.696562386698133-2.389081344552324,18.994880397460292-1.787687771280616,6.648748557208819,.752022372207648,10.959067220785073,6.314912924979581,15.837181766484719,10.240693522566289,3.174242562354266-4.126117664913181,2.522630892297457-9.538863755724378,2.104953980713617-14.400408878625967-.701804275422546-8.269747935151827-6.415272644289871-14.952094183507143-7.818422349579123-23.037615628574713-1.804257194076854-7.00014777760407-1.08588349585807-14.350700610235435,1.102427427234943-21.183191320553306,3.307792110095761-1.119481187004567,6.832975047291256-1.654138223535483,10.241152368118492-.568254727677413,10.541390309201233,2.021597038334221,15.619816430807987,12.512794742169717,21.768015471026956,20.130931007262916,1.787203434305411,2.288696133822668,4.727536729606072,5.763660974231243,7.968566811541677,3.959403780154389,4.427273297102147-2.1551720774969,10.491656549389518-6.031218915273712,14.868278395573725-1.720900251697458,2.639611017242714,5.312360880081542,1.336846522683118,11.911375677478645-1.21940755218202,17.023450473072444-4.611040941632382,7.484561225928701-14.567581608938781,6.248099913977057-21.233383925917224,10.574988000349549-3.157673139556209,3.558321782787971-1.921211827604566,8.803920634705719,.233934758472969,12.563012838954819,4.995094670646722,9.037855393180507,10.040381946659181,18.694158119404165,10.090574552024918,29.285741033969316-.501492699515438,6.398244375939612-3.040718506030316,13.548485632663869-8.837518325854035,16.940119022112412-6.064383252287371,1.95435067319886-12.446058205428926-1.136076101221988-17.658492720333015-4.110007087667327-7.250167621899891-4.042760722533785-10.641801011350253-11.927970591696067-14.951635337953121-18.577203485878272-2.77361941054005-4.243072298439074-5.513156792960217-9.421883630777302-11.126698796650089-10.073520792253476-.985472793707231,6.381674953139736-.768107458030499,12.896873962605241,.350889392000681,19.245384578731318,1.403634042264457,9.505724910130084,9.05490915295195,16.806085137393893,9.973594427076023,26.462387863619369,1.152645524020045,12.245262292548432-.033138845592475,24.708348766327617,1.921237319025749,36.870254116494834,3.190811985150503,4.477007056913862,8.052357108053911,7.400745437997102,11.944998860046326,11.24319458462378,18.393461332765582,17.8919558875441,30.454955980787418,40.929584261826676,41.798561267560217,63.633351512462468,11.978163197059985,23.605424256405968,21.86794183620259,48.230416080356008,30.354570770057762,73.289182647418784,7.668303379037752,22.436680900857027,15.219652124549611,44.956234407118245,24.975881215947084,66.590708296469529,5.562890552771933,12.428991699947801,15.252357616011068,24.892077775422877,29.636655917393,26.863024134550869,13.314550874189081,1.119489974575117,26.62908900266666-.818307407114844,39.944111468119445-1.252559616470535,21.166596406335884-.434725792136305,42.450160191907344-1.086341046926464,63.53294081030981,1.38657639903613,14.200103675575519,1.653662848388194,27.247555454276153,8.302883594316881,38.591154368194111,16.755885362568733,4.143152306118282,3.190831103713208,7.918355087611417,7.183867625719358,9.689460690384294,12.195525346307477,1.937800368963508,5.529732588613115,2.238503528455112,11.543913676254306,4.694378765443616,16.906479907407629,3.658700620664604,7.300363413693049,11.360168336716015,11.226628348254962,15.85422915340132,17.875376905461962,3.05681315113543,4.945360910836825,1.269606530400779,10.8255240458966,.384053729016159,16.138362890094868-4.494060816685305,1.620515040969622-9.939971244510161,1.970945587416281-13.899387770374233-1.119487559859408-2.790201579049608-2.839928966002844-4.627603991573778-6.415285389999553-7.166817052377155-9.438950136256608-5.813866325306662-7.333983409835128-17.424551589003386-6.365086411778975-22.586799871398398-14.450607856846545-4.527212407987463-7.434378179847045-3.675276416313864-17.040494673559806-8.920875268231612-24.140540138492725-4.544259794905884-5.99713370072277-12.195528532736716-8.302885187529682-19.228802410225398-9.823003865270948-15.118795322554433-3.023664746258873-30.655751893667912-3.808824370846196-46.025051397493371-2.923744753938081-10.140767157390655,.41767850479664-19.713254095680895,4.828391938384812-29.937365449739445,4.46091241180693-14.467655243761328-.501497479153841-29.101998880860265-.501497479153841-43.235334155418968-4.026186520093688-16.154932312891106-4.110005494456345-32.476578510541003-11.995212177191206-42.299569630102269-25.944795739354959-11.410367314934774-17.240334658205029-15.67049337314711-37.889337347063702-20.214287949642312-57.73613143120383-5.964456887111737-30.287789623329445-18.059574717697615-58.82200536777782-27.180761561838153-88.191090598418668-6.080952675083608-19.445696154636607-14.033408909381251-39.108744899242083-28.500605307588557-53.927315026425276-13.916428784435993-13.381312902351056-31.390695014684752-22.085307171881141-47.11138099319578-33.027779478448792-17.340742173924809-11.861208563532273-31.457482534266092-27.564840782273677-46.42568729501545-42.132422391210639-26.32886380729542-26.128526739968947-48.23042882606569-56.383171144849257-66.941640705243117-88.325118110280528-10.440979607052213-17.123835683802099-18.626886262849439-35.450509496988161-26.345382247251109-53.910248520944151-2.789729987784085-8.219555329784271-13.732227785771101-9.906832398915867-15.052020548682776-18.861305358297614-2.322370299230897-5.362578976864825-.56779588212521-13.882831093285859-7.334034392673857-16.020949411013135-3.124024465569164,5.211975669350068-4.209907961425415,11.193027470679226-5.429315513607435,17.040045387288046-1.136050609802624,5.897185030557011-7.367581100981624,8.520252116422853-9.990189341295263,13.548485632663869-1.704305337480037,6.131119789028162-1.186217723747177,12.696536895278768-3.073857351620973,18.811112752930057-1.319792762911675,4.611015450213017-3.942808865938787,8.670345595544859-5.696873454649904,13.097644384066371,.38405372901434,3.97599869437181,3.190811985148684,7.183380102318552,4.844491363131965,10.725132462310285,5.246083188891134,9.104617421342482,6.799785218856414,21.550650135350224,.067246365135361,30.355029615611784-2.172225837268343,3.859018569424734-6.699400008128578,7.433909775008942-5.713493860284871,12.29545489791235,2.806299410580323,4.226502875642836,6.715561568209523,7.951971897324256,7.400770929414648,13.264817114379184,2.756132296635769,14.434032061191829-.217339844257367,29.201925246035898,1.403149705291071,43.752937432176623,3.474990331827939,46.192211382096502,16.371813311594451,91.549068941025325,36.151880418274231,133.364671222647303,7.985595079893756,16.121321876033107,16.455629099529688,32.710513269015792,30.271213827680185,44.688676466075776,6.832924064452527,6.548828564886207,15.603705853565771,13.565061428313129,15.403394277658663,23.972908562625889,.317266209433001,5.145672486742114-4.092953327899522,9.305400588513294-9.021260478964905,9.672884894731396-9.940481072902912,.935745406752176-20.364891257157069-2.021144565635041-27.949404339680768-8.603596313092567-9.789826782549426-8.018746671194094-21.183165829133941-14.818085790207988-33.91332590698039-16.555568210411366-5.412746090809378-.484451685455497-12.395814617222641-.484451685455497-15.687062795943348,4.660749210022914-3.792256541262759,6.465484368216494,.050218096785102,13.949586748592992,3.073857351622792,19.914043635704729,10.959067220785073,19.646007730543715,32.593533144068715,29.034758888579745,51.671770483908404,38.891385936422012,5.279222034485429,3.190827917285787,12.262290560898691,6.866107520028891,12.5966360215225,13.849188792151836-1.553753012804009,7.150244443151678-8.954523942220476,10.992689606744534-15.369796586510347,13.081078944302135-8.052382599473276,3.007089747214195-18.326189476212676,2.539214654016178-23.756014818212861,10.290878012498069,4.494035325264122,4.928312876674681,11.327010372557197,5.796817494539937,17.424557961858227,7.534299914745134,13.23116844039032,3.207878490631629,25.677201154398062,8.904301862405191,37.8893246013522,14.801513977592549,4.577392267643518,1.787679805209336,8.002164502686355,6.231544830103303,6.715969430922996,11.310448915828601-3.02409810039353,1.853975021749648-9.121645689692741,3.257599504731843-6.431842067086109,7.968550879400937,6.882683315683607,4.744571370811173,16.121334621744609,2.806774188273266,23.271575878468866,7.066900246483783,4.343483000589913,2.037717174858699,6.498629586667448,7.63422135091605,4.260126058212336,11.994738992712882-4.594471518836144,10.341072360441103-13.882831093287678,17.825174740813964-23.756473663768702,22.853886221175344-10.056976860876603,5.195399873698989-21.500483021405671,6.231543236888683-32.108635358768879,9.80642806961805-.183742153109051,1.537164471445067-.350914883421865,3.073857351624611-.518087613734679,4.627603991575597,10.357673647513366,6.415279017144712,23.30471472406316,5.479533610390718,34.280861196039041,10.391264965805021,6.331456856354635,3.3243742786035,4.56082284484728,16.020936665301633-3.34146627550399,15.63687019057943-21.116378309552601,1.403149705289252-40.328139705716239-8.921346859498954-59.991201196029579-14.851708972777487-4.911737728269145-2.05476137534788-11.677466410425041-3.140632125494449-13.849182419298813-8.703981523822222-.300696786636763-5.796818938390061,2.372027584780881-11.610685263696723,7.016207372005738-15.085650104105298,11.426987720573379-9.121193216997199,26.094954540239996-11.994738992712882,39.125811404725027-17.942148492906199,2.722942468200927-.918698019837393,3.541726868570549-3.525163818630972,3.758658850112624-6.114575857653108-9.138266095329527-2.505589878235696-18.660534936836484-1.336374931419414-27.982543185275063-2.171735127440115-9.338526688396087-.785154844947101-18.794058993162253-1.603939245316724-27.715444089786615-4.627603991571959-3.775636135627792-1.419725500943969-7.818422349580942-3.641656420177242-9.321957265601668-7.61764236883937-1.403149705291071-6.281742215109261,2.305749893592292-13.097653943348632,8.252694175378565-15.436555428244901,6.09800643485687-2.255554101799135,13.047426287281269-.568270659816335,18.961690569027269-3.458392231183097,2.940333295300661-4.109530716765221-2.405676258767926-5.262169867930425-5.345958571228039-6.197920054322822-12.228692869750375-2.923269976245138-24.340889951528879-6.866109113245329-35.249739075528851-13.214148138105884-5.312819725635563-2.873546970628013-9.238651306059182-9.272256322259636-7.250626467453912-15.336160259930693,1.871019222238829-6.966504281559537,9.321957265599849-9.823477448051563,15.369745603669799-12.229148927181086,6.916331989670653-2.923271569457938,15.068640954319562-1.336379711059635,21.651086328920428-5.061856698808697,4.243046807019709-2.205356716794995,3.858993078005369-9.655839101027595-.952359439532302-10.908869835777296-11.460534428881147-3.608508015298867-22.452740495258695-9.021273224674587-32.008658010754516-16.338684025282419-11.210055739029485-8.637213122803587-15.152456742251161-23.806207423578599-12.930522636592286-37.354686683387627,.701370921287889-11.627261059347802,6.147714703247402-24.240460130811698,17.641438960561572-28.767672538802799,14.350700610235435-5.49658737016216,29.987545309393681-1.971417178678166,44.906041801752508-1.938278333083872,2.973472140891317-5.79681256553522-.417651420164475-11.84461364931667-2.873545775717503-17.123364092538395-15.202623856197533-30.23806223637439-32.309405780230009-59.657352818088839-43.953682362220206-91.549553278000531-7.06642546879084-19.663061490313339-12.763349906279473-39.944111468117626-15.235813684630557-60.743223568235408-2.723401313756767-21.801179808040615,0-43.769506854974679,2.722993451041475-65.420542201056378,1.102452918654308-10.508251463606939,6.164742971597661-19.913565671586184,11.042883008718491-29.068860035267789,5.295791457281666-9.488671150358641,3.97599869437181-20.715296312184364,4.092953327897703-31.139731987857886-.183742153109051-16.572609224474945,1.15262003260068-33.930379666751833,9.43896288196629-48.681703428797846,6.231071645626798-11.493724257315989,15.586677585213693-23.421669357589053,29.636171580419614-24.691295006556174h0Zm275.232566293363561,29.01820858434985c2.689803622606632-1.15267101543941,6.365080038922315-.18374215311087,7.751660321415329,2.556228583442135,5.445910427824856,8.46957517408373,6.41481379873585,18.794109976000982,8.219070992812703,28.466982125022696,6.71599492234418,51.220929235309086,16.021382765147791,102.207439375173635,18.811112752930057,153.862614944864617,2.33891423060777,34.698512616199878,6.465490741074973,69.296627275960418,13.147862480851472,103.443913432834961,1.804257194076854,8.820948903057797,4.494060816685305,17.441114638944782,7.584487591106154,25.894591981494159,7.317413987037071,18.911051863819011,20.982854253226833,34.464565112017226,28.968462078826633,53.041755852183996,2.70638579111619,6.732570717998897,4.911266137003622,14.95163533795494,.785161217801942,21.600855486427463-2.756578396480108,5.579925193975214-9.438950136256608,8.58702051743785-15.47016905153032,6.966505476470047-8.50319835665141-2.171735127440115-15.152431250833615-9.271783778800454-18.392976995794015-17.240809435894334-13.933023698651596-42.817644498125446-35.467104411207401-83.279830834268068-43.786560614746122-127.834957752598712-7.918833051729962-55.046337367877641-12.245721138102454-110.577100929791413-14.885332155346987-166.09129506890531-.250504181271026-24.44124967083917-2.522630892295638-49.082352072029607,1.286195071765178-73.339834098340361,.935739033895516-4.109573733534489,2.038191952551642-9.088047998546244,5.981026309907975-11.326551527001357h0Zm-158.841140192715102,776.297137416100668c.935280188343313-5.864071676380263,2.906684621311797-14.567581608936962,10.741727376527706-13.231193931809685,2.806758256134344,10.341078733295944,2.923712889662056,22.1023354402314-2.589418411878796,31.62462977315954-7.83504275521409,14.300023667894493-15.954161891429976,28.466956633599693-24.457385739500751,42.383410909455051-11.210055739029485,16.538986041907265-22.653561899560373,32.943963690515375-35.216549247094008,48.480907515919171-14.099712091989204,16.43814198561995-30.488604654776282,30.888768961032838-48.130043615337854,43.435645731322438-10.524795394983812,7.082994891592534-21.751420556809535,14.200097302720678-34.581506999833437,15.954161891433614h-7.267246873092517c-5.496103033186955-1.553753012804009-9.455532304762528-5.746632705880984-12.479630405156058-10.357673647513366-7.417340352210886,3.257599504733662-15.402935432104641,6.130686434897143-23.655629607483206,5.078451613027937-12.379296177265132-.751996880790102-24.808249640082067-9.004232210614646-27.364529206366569-21.667604768877936-2.238503528456931-11.477154834519752,5.847017916610639-21.232925080363202,12.178933618521114-29.870590675865969-8.119119136215886,.801705149176996-16.288456369216874,.952767302245775-24.441224179419805,.518036630892311-4.710967306808016-.417651420164475-9.772798514197348-.901631514354449-13.665440266189762-3.842423655205494-3.291248178720707-6.198391645588345-1.319792762911675-14.767893184847708,4.260126058210517-19.045073002827849,8.703994269530085-6.79886752775019,19.495888760002344-10.107118483401791,29.98708646383966-13.013344259159567,33.428886967234575-8.23658359813453,67.392430971000067-14.267828004829425,100.570788265542433-23.522564396711459-8.436895174043457,6.098006434855051-17.775421862439543,11.193001979258042-27.916214511249564,13.816043573704519-16.338164637605587,4.493601971129465-32.660269680809506,9.104617421342482-48.697788514618878,14.634827974074142-3.642112079303843,1.235518129422417-6.966499103617025,3.190353139596482-10.124172243173234,5.379148399661062,8.487062287989829,1.21940755218202,17.575110286534255,1.519645493262942,25.777637347968266-1.286195071765178,8.536821539217271-5.195865092106033,18.159475591455703-8.72150687485555,28.216401469489938-9.122130026666127,4.845001191526535,.050192605363918,10.692019108135355,3.358469052436703,10.641801011352072,8.753702537922436-1.370010859696777,7.284275141442777-8.53682153921909,11.076506191284352-14.083142669192966,14.986201703048209-13.030856864483212,8.336025626338596-24.140068547227202,19.161568790797901-35.483648342584274,29.585978975052058-4.627610364426801,4.477007056913862-10.074005129225043,9.071478575750007-10.625180605713467,15.987300737027908,7.768204252794021,3.675301907733228,16.322105043203919,1.570781281156087,24.274051449108811-.18328330755503,6.248150896815787-19.596273970735638,22.28561874778643-33.646226811491942,37.671984757093014-46.275542833056534,13.665899111743784-10.942497797985197,26.880090266620755-22.904550417802966,42.851280426404628-30.43838655799118,4.911278882713304-2.740480564947575,11.911375677476826-2.272611047996179,15.369286758115777,2.555310892337729,2.689803622608451,4.677802969792538,.985957130682436,10.291344973484229-1.269574666126573,14.784946944613694-5.395717822459119,10.775325067676022-15.302550221374986,18.125877900307387-24.20685606681036,25.844858221686081-15.402935432104641,12.662454867155247-31.658252955727221,24.356949545930547-48.798683553744922,34.581557982672166,3.809284809613018,5.445426090849651,11.159837642244383,4.192879693073337,16.221719832474264,1.352472762950129,14.45062697540925-7.718037138847649,25.443291887342639-20.230398526882709,36.519313741655424-32.008250148035586,21.951783115555372-25.07578208970881,43.1018100990932-50.970399562620514,61.795942727078-78.58589179581395,7.267246873092517-11.710146410463494,16.004379988216897-23.271575878468866,17.975784421185381-37.287446691105288h0Zm-120.267039584290615,108.63976577923313c-7.016717200400308,8.75321820094905-14.283913090654096,18.142013968968968-16.088144793311585,29.536270706663345,13.983165321178603-7.284275141444596,26.562773074350844-16.923549599316175,39.008805788358586-26.513064805960312,6.04778833806995-5.379148399661062,13.498777364271518-10.056951369455419,16.672561081069944-17.841291690911021,.06673653674261-3.391607898030998-4.143171424682805-2.707316227933916-6.331507839195183-2.840406930123208-12.796947597429607,1.169699283789669-25.176192791854191,7.617651928117994-33.261714236921762,17.658492720331196h0Zm267.547693491529571-103.177285928612037c3.391149052475157,.050676942340942,6.765703190734712,.151062153070598,10.157336580185074,.351373728975886-3.458395417612337,15.218734433439749-5.930833704544057,30.688890739260387-10.107628311794542,45.757506202160585,6.849544470087494-9.087563661572858,13.749281545542544-20.949231070659152,26.028141529237473-22.720349419139893,6.682371739776499-1.637084463765859,11.677466410425041,4.995553516200744,10.591608405986335,11.193001979258042-1.73749516591306,14.768836367371478-5.596513735339613,29.219463342782547-8.219070992810884,43.853322642908097-3.374579629678919-.033138845594294-6.749618104913679-.016110577240397-10.12419773459078,.050676942339123,1.787687771278797-9.623163880631182,3.809310301030564-19.21222024171766,5.646706340703531-28.834925276793001,1.019095976274912-5.646222003730145,3.190837476569868-11.560486285477964,.785161217800123-17.156974529396393-9.021260478964905,2.572823497661375-14.300023667894493,10.891820855649712-19.762987855490792,17.859263141792326-2.756565650768607,4.042276385560399-6.766187527709917,7.601082505323575-7.45093804336102,12.696562386699952-1.06928858163883,5.060888024860105-2.021622529753586,10.156367906236483-2.839922593149822,15.285955307157565-3.474964840406756,.049249422834691-6.933360258020912,.116495787971871-10.391271338658044,.116495787971871,5.078426121604934-26.177776162807277,10.307455550726445-52.33995157676145,15.687062795943348-78.45190889393416h0Zm402.565553382328289,.351373728975886c3.809303928179361-.568739064652618,7.668322497604095-.317750546408206,11.493717884459329-.16714723889163-3.842449146628496,4.91125339129394-9.371703771121247,8.135714050431488-13.748797208567339,12.529364164967774-2.606459425940557,3.090911111392415-6.732564345144056,2.572364652105534-10.324502937644866,2.706398536824054,3.474964840410394-5.563374889747138,7.969025657095699-10.458517703797042,12.579582261752876-15.068615462900198h0Zm724.107323928445112,78.083481405186831c4.878140037117191-26.061280374833586,10.491656549391337-51.971982933569961,15.319578489725245-78.033288799822913,3.374605121098284-.184200998663073,6.749159259359658-.367943151772124,10.190500917200552-.401566334339805-4.94487657386162,26.262076287714081-9.856155456578563,52.573886335236239-15.736771064337518,78.652220469839449-3.291248178717069-.166688393337608-6.532278260652674-.250504181271026-9.77330834258828-.217365335676732h0Zm-1174.318915340498279-74.258086018329777c10.575013491768914-1.937322404844963,21.567703895119848-.919169611099278,31.95897523378153,1.586891858398303-.70182976684373,2.923763872502604-1.386580282494833,5.864071676382082-2.038191952551642,8.803920634707538-9.656328217643022-2.655721594486749-20.114361584466678-5.763660974231243-29.920783281229888-2.020679347226178-14.049519486625286,4.944417728307599-21.500457529986306,19.979868854194137-23.722391635647,33.845646187710372-1.436772887858751,8.52022662499985,.434246334380077,19.546081365366263,9.255195237437874,23.33928108915643,11.560486285476145,5.278737697512042,24.374003305703809,.150093479122006,35.45005065143414-4.009621876937672-.38405372901434,2.756565650770426-.851923245963917,5.529267370202433-1.336387677127277,8.302886780744302-11.644302073411382,4.510630239481543-24.624507486974835,8.319940540513926-37.070540200984397,4.911253391292121-9.472586064533971-2.338888739186586-16.171527227106708-11.360174709569037-17.123861175219645-20.8493047054817-2.773135073568483-22.837304052667605,11.326551527001357-48.413686642201355,34.547934800106304-53.910274012363516h0Zm532.572717853632639,.951849611137732c3.424772235042838,.017053759771443,6.882683315681788,0,10.341078733294125,0-.752009626497966,3.341440784086444-1.470396070426432,6.682371739776499-2.188782514356717,10.040840792215022-3.35799746117118,.017053759769624-6.698953908282419,.050218096783283-10.023328186887738,.083356942377577,.58437805063113-3.391149052475157,1.185797115322202-6.765728682155896,1.87103196795033-10.124197734592599h0Zm527.376852761524788-.033138845592475c3.190811985150503,.017053759769624,6.398244375935974,0,9.622705035073523-.016110577244035-.367994134612672,3.306848927570172-.852433074354849,6.615125374641138-1.420228956481878,9.90588921638664-3.391123561055792,.134008393299155-6.766187527709917,.284611700815731-10.123713397617394,.368427488747329,.283668518286504-3.474964840410394,.95184961114137-6.899737075453231,1.921237319025749-10.258206127889935h0Zm-244.894131591971018,9.973594427076023c3.474531486275737-.651611670056809,6.966040258061184-1.235976974978257,10.491197703835496-1.686818223575756-.651611670056809,3.808825964060816-1.336362185707912,7.617167591144607-1.637058972342857,11.476670497544546,3.742038444475838-.150118970541371,7.501156140144303-.167172730312814,11.259764007420017,.066303182607953-.58482415047547,2.45681204666289-1.186268706587725,4.912196573821348-1.754064588712936,7.385119197726453-3.792256541262759-.017053759769624-7.567892676888732-.017053759769624-11.326551527001357-.10086954770486-2.238962374012772,10.208013522526016-4.17676911583294,20.481845890684781-6.23153049118082,30.722055076275865-.635042247260571,2.456812046661071-.635042247260571,5.112533641149639,.684750515652922,7.385119197726453,2.773160564986028,2.822894324799563,6.949929680817149,1.08588349585807,10.358132493063749,.951849611139551-.551685304879356,2.605528989121012-1.119481187004567,5.211975669350068-1.737495165914879,7.818447841000307-5.129077572524693,.183257816135665-10.892279701201915,1.420203465060695-15.319578489723426-1.837396039672967-4.243556635414279-2.523115229269024-5.128618726972491-8.086490119012524-4.310293172156889-12.580066598724443,1.73744418307615-10.842571432811383,4.193338538629177-21.550650135350224,6.181312394397537-32.343028962797689-2.890115198515559-.050192605363918-5.730012300246017-.099926365175634-8.569960384813385-.183257816133846,.501008362540233-2.406160595741312,1.002067707924652-4.828865122863135,1.520104338816964-7.217971958834823,2.906735604150526-.099442028202247,5.813879071018164-.283668518284685,8.753753520761165-.41767691158384,.551685304881175-3.156729957026982,1.102911764208329-6.297833673788773,1.637517817898697-9.438478544992904h0Zm273.294326197410555-.367484306218103c3.441341657839075-.433787488824237,6.882683315681788-.935280188343313,10.374243070309603-1.352957099923515-.785186709221307,3.792256541259121-1.436798379281754,7.617651928116175-2.087951203782723,11.443990497502455,3.725469021677782-.050651450921578,7.500697294592101-.067705210691202,11.259814990258747-.067705210691202-.434271825799442,2.439758286893266-.818784400369623,4.912196573823167-1.202838129382144,7.384176015199046-3.809335792455386,.284611700813912-7.63473117931062,.250504181271026-11.410367314938412,0-2.43886608720095,9.923860667267945-4.176310270277099,20.013950882317658-6.248150896813968,30.021168491963181-.333835632231057,2.555795229307478-1.235976974978257,5.412771582228743,.250529672688572,7.801878418200431,2.68980362261027,3.190353139596482,7.100023159940974,1.653653886562097,10.641801011353891,1.352472762950129-.56779588212521,2.540168989042286-1.068855227507811,5.095479881378196-1.553753012807647,7.668787716014776-5.245624343335294,.433787488824237-11.159378796688543,1.486506647666829-15.753391469968847-1.787687771280616-4.527683999252986-3.090426774419029-4.995553516202563-9.238625814639818-3.92623944314073-14.150363542908963,2.021622529751767-10.224098608348868,4.059814482303409-20.431168948343839,5.930833704542238-30.671836979490763-2.806809238974893-.017053759771443-5.563349398325954-.050218096783283-8.302912272165486-.083815787933418,.400623151814216-2.538741469537854,.835353823167679-5.061856698806878,1.319843745754042-7.567943659727462,2.83989710172682,0,5.713442877444322,.050218096783283,8.620127498756119,.134033884718519,.668232075693595-3.374579629678919,1.370010859694958-6.74961810491186,2.088410049336744-10.124197734592599h0Zm-1425.227212087973385,9.823016610980631c.183742153107232-5.161783063984331,5.747091551435005-6.699425499544304,9.939971244508342-7.333524564277468,11.009234334729626-1.236461311953462,22.118904863029456-.184200998664892,33.111620757801575,.785161217800123,23.906108297334868,1.686818223575756,47.796157000266248,4.593987181860939,71.819219931128828,3.691386993559718,14.216666725516916,.318234883381592,28.216452452330486-2.605528989121012,42.349813218306736-3.524214263245085-9.672923131860443,5.84701791660882-20.949256562078517,8.152767810199293-31.941921474010087,10.190475425779368-14.918496492358827,2.338914230605951-30.104550925760122,3.040234169053292-45.173140897239136,1.921237319022111-10.691968125298445-.467895008368941-21.400556656230037-1.854475290861956-32.092524781526663-.8685181601777-1.687277069129777,.61798848748731-5.429315513607435,.183257816132027-4.376621846184207,3.040234169051473,18.794058993160434,6.148199040222607,39.024916365600802,4.878114545701465,58.37071164648296,7.784824658432626-18.443653938134958,2.071815135119323-37.020373087038024,2.389081344552324-55.564412235900818,2.539684652067081-12.295429406494804,.083815787933418-24.65815616096188-2.389106835971688-35.934489591181773-7.250651958875096-4.477465902466065-2.355458161984643-9.923401821710286-5.379122908243517-10.508225972185755-10.976095489137151h0Zm456.22577568611996,.718858035195808c9.138240603911981-4.226987212616223,18.961231723475066,.150118970541371,28.450387210807094-.41767691158384-4.293277649516313,17.675062143129253-7.13367183392802,35.683501072935542-10.942497797988835,53.475517849588869-3.374566883969237,.06724636513718-6.749133767938474,.184226490084257-10.123713397617394,.217365335678551,1.536699253034385-7.434368620564783,3.241030081935605-14.818085790207988,5.045287276012459-22.185692382610796-7.35103716960657,10.942497797987016-17.34120101948065,25.693821560034849-32.543824875678183,22.73691884193795-4.443383874346182-4.04227638555858-7.016232863426922-9.889778639144424-5.880156762204933-15.954161891431795,2.271642374051225-15.470156305818819,11.142809373894124-31.474051957062329,25.994518346669793-37.872270841578938h0Zm-12.997259173333077,26.662215102547634c-1.603945618171565,5.897236013395741-4.761159912171934,13.849666756275838,.751538035232443,18.594257245651534,9.840044879332709-3.574891205586027,15.820612343688481-12.863735117012766,22.336270198706188-20.481361553711395,4.744577743666014-4.861545122901589,5.596513735339613-11.828044226518614,5.963998041557716-18.293050630618382-13.916428784434174-4.945360910835007-25.176218283275375,8.269238106757257-29.051806275496347,20.180154938678243h0Zm181.711589463830023-16.87330601110807c5.563352584753375-7.784340321457421,15.219190092568169-12.562553993400797,24.82530658628275-11.659953805099576,4.042760722533785,.099926365177453,8.637214716018207,2.221475260108491,9.889773859502384,6.364621193371931,2.055239339466425,6.348051770570237-.317283734784723,13.531916209863994-5.095003510472452,18.042546449345537-7.55134874551004,7.233598199103653-18.159510642157329,9.990163849874079-28.283695631038427,11.009744163124196,.467875889802599,5.078426121604934,2.639607830815294,11.326067190026151,8.403275177901378,12.312024320708588,9.088041625691403,.98547279370905,17.507895785673099-3.808825964058997,25.376528265967863-7.768255235632751-.768583828934425,3.474964840408575-1.586891858400122,6.93290141246689-2.589413632238575,10.357648156092182-9.973594427074204,4.192879693075156-21.183175388414384,7.852071023567987-31.975551029432609,4.610556604655358-4.510636612336384-2.338888739186586-8.569966757666407-6.648264220231795-9.054418443121904-11.894806254680589-1.720906624554118-11.008800980593151,1.837402412525989-22.569287266071115,8.503198356649591-31.374125591884876h0Zm2.706379418261349,16.004813342349735c8.269735189440325-.868492668760155,18.209709620376088-3.508103686002869,22.118927168021401-11.660871496207619,2.372049889772825-4.343941846142116-2.28870569310493-9.60611012085792-6.89973388902763-8.336051117757961-8.686940509758642,2.672775354256373-13.281392910028444,11.727200170234937-15.219193278993771,19.99692261396558h0Zm89.795029843733573-5.04528727601064c7.55134874551004-10.073520792253476,16.037974492935973-23.856400028946155,30.522202345924597-22.719865082168326-.601419064692891,3.625083810949945-1.336852895539778,7.216544439334029-2.088384557917379,10.825517673041759-6.932882293904186-1.670707646335359-12.913914976667002,2.822894324797744-16.873331502532892,8.052382599471457-4.293271276657833,5.796825311244902-9.070994238772982,11.226140824852337-13.047454965126235,17.24033147177397-1.83740559895341,6.231555982602003-2.689335217770349,12.729701232294246-4.025713335619002,19.095265608191767-3.391619050524241-.017053759769624-6.782764916573797,0-10.140760784532176,.050192605365737,3.174255308062129-17.992353843981618,7.166820238802757-35.834563226002501,10.557966104852312-53.793752732974099,3.408193252966157-.017053759769624,6.816386505928676,.016569422799876,10.241152368118492,.083815787935237-1.570316062745405,7.082994891588896-3.291222687299523,14.132850937583498-5.145675673167716,21.166112069362498h0Zm40.361782006846624-10.223614271375482c5.229023056266669-7.65175944765906,14.350687864525753-12.78037817463337,23.722863226908885-12.46311196519855,3.825395386857053-.116954633527712,8.085515072212729,.985957130682436,10.458039739676678,4.243556635414279,4.009137539967924,6.481575826896005,1.269612903257439,15.202623856197533-3.942834357356332,20.180664767072813-7.634692942179754,7.000122286184705-18.008916893923015,10.157336580186893-28.14967767845701,10.976120980556516,.233934758472969,4.995069179227357,2.322325689243371,11.477129343096749,8.035794058110696,12.295429406492985,9.088041625691403,1.052719158842592,17.641438960559753-3.374554138259555,25.25955610708661-7.801368589809499-.484451685453678,3.508103686002869-1.186255960876224,6.999179103657298-2.221934105658875,10.407840761457919-9.489142741620526,4.176310270277099-20.030533050821759,7.41731486079334-30.4720033677022,5.194921909578625-6.849531724379631-1.904183559252488-10.942491425132175-9.054424815976745-11.092610395675365-15.886915526294615-.23393475847115-9.623163880631182,2.706385791118009-19.362823549232417,8.402806773066914-27.147138379270473h0Zm3.190831103715027,15.336147912523302c8.269735189440325-1.052719158844411,18.276474834965484-3.492018600181837,22.235891360831374-11.694035833221278,2.689809995461474-4.844950208685987-3.474964840410394-10.575472337322935-8.219536211221566-7.952456234297642-7.851586686590963,3.323902687339796-12.128282167601355,11.744228438587015-14.016355149609808,19.646492067518921h0Zm39.493270219521946,1.035665399071149c-4.360039677676468-11.677925255977243,3.59194496535747-26.478957286417426,16.221719832472445-28.233021875126724,10.374217578892058-.802214977571566,20.832263691423577-.10086954770486,31.240117198591179-.284127363838707-.350914883421865,2.789729987782266-.718386443930285,5.562406215796727-1.019095976276731,8.35307938610822-3.374579629678919,.099926365175634-6.749146513648157,.150118970541371-10.107143974822975,.066303182607953,5.362566231155142,8.803895143288173,3.591932219649607,21.534080712553987-4.911266137001803,27.749526117910136-5.345984062647403,4.426814451549944-12.613205444320556,4.225534201696064-18.97828548324469,6.014165155504088-2.238503528455112,.56733703656937-5.195406246552011,2.288237288265009-3.992568117168048,5.027774670686995,7.835017263794725,4.510630239481543,17.908525310340337,3.909670020342674,25.242508720173646,9.673356485993281,4.276695481006755,3.65822265654424,5.028705107506539,10.03987211826643,3.257612250441525,15.15240575941425-2.338429893630746,5.278278851958021-7.868168855100521,8.302427935190281-13.197583494949868,9.772824005616712-9.505712164420402,1.653628395140913-20.264467809298367,1.002526553478674-28.116054495891149-5.195890583527216-3.141103716758153-2.873061438744116-5.41275883651906-8.135714050433307-2.856976352919446-12.044466379667938,2.94032054958916-4.795241940295455,8.920875268231612-6.165227308571048,14.083129923483284-7.066884314344861-3.808825964060816-2.138602654700662-9.305400588515113-4.410729365725274-8.870682662869513-9.72260590883343-.233934758474788-5.429825342000186,5.128631472680354-8.554359635962101,9.622692289365659-10.040840792211384-2.97394373215684-2.689803622608451-6.264694828194479-5.328955794297144-7.618123519383516-9.221597546291378h0Zm15.135849082327695-18.360296995753743c-4.694372392592413,3.391149052476976-7.751660321418967,9.990163849874079-5.162254655249853,15.570567007969657,1.403162451000753,3.875613483640336,5.429341005026799,6.615125374641138,9.606122866567603,6.247641068421217,7.901779291960338-1.102911764208329,11.643830482145859-11.058968094539523,8.46957517408373-17.809070536426589-1.820826616874911-4.894225122940043-8.670371086962405-7.133187496952814-12.913443385401479-4.009137539964286h0Zm-12.76379600612745,57.101085997515838c-1.720428660433754,2.857460689892832,2.439299441339244,5.062341035782083,4.711426152362037,5.897694858947943,6.164296871755141,1.620030703994416,14.183515134214758,2.822868833378379,19.245371833021636-1.954376164616406,2.389106835971688-2.439758286893266,.952333948114756-5.295791457283485-.968890625199492-7.451422380336226-4.059814482305228-1.253030734747881-8.152767810202931-4.427298788523331-12.529861247650842-2.723426805176132-3.758620612983577,1.287112762871402-8.636747904394724,2.239446710984339-10.458046112533339,6.23153049118082h0Zm106.484619193155595-67.0074340594565c6.815921287521633-1.370469705252617,15.102213154048513-.80173064059818,19.98032769974634,4.761159912171934,4.326913577793675,4.761618757725955,4.494060816687124,11.577055708274202,3.859018569426553,17.625328383317537-1.60346128119636,10.991747220825346-7.183380102316733,21.650092163554291-16.137878553121482,28.383140845669914-6.899737075451412,5.028717853214403-16.171527227106708,6.031218915273712-24.240466503668358,3.692330176087125-7.567918168306278-3.508103686004688-10.742173476372045-12.513279079144922-9.372175362384951-20.381435188533942,1.436772887858751-14.751808099021218,10.458046112533339-30.756137104397567,25.911174150001898-34.080524128712568h0Zm1.052719158844411,7.467532957578442c-10.241152368120311,2.772676228012642-14.467655243763147,14.032924572406046-16.004826088061236,23.505485145520652-.868505414471656,5.829989648258561-.534172699555711,14.116281514787261,5.763673719940925,16.772461954828032,7.768229744215205,1.871503559212215,15.00228678887288-3.959403780156208,18.193124265442748-10.657886097173105,3.758633358695079-7.000122286184705,5.379148399661062-15.353201672294745,3.808825964058997-23.188193444670105-1.202838129383963-5.011664093444779-6.849544470087494-8.319940540517564-11.760797861381434-6.431867558505473h0Zm68.344280582137799-6.949929680818968c4.543794576495202-1.92123731902393,11.159404288109727-1.737010828941493,13.615273152245209,3.274653264501467,2.155146586077535,5.429341005028618,.785161217801942,11.410367314938412-.25052967269221,16.939609193721481-2.171716008873773,11.260248344393403-4.677802969794357,22.436222055301187-6.61558422019516,33.730093582264089-3.4082028122466,.066303182606134-6.799351864723576,.167172730310995-10.173906002983131,.200311575905289,1.95435067319886-14.183986725476643,6.515199009465505-28.016140876425197,7.350552832631365-42.299569630102269,.718373698218784-2.856976352921265-3.10702168863827-4.176794607252305-4.878114545699646-2.355967990377394-9.706036486033554,5.780740225420232-15.302550221373167,16.088170284727312-21.968327046934064,24.825328891272875-2.623041594446477,6.298292519342795-2.706398536824054,13.381312902351056-4.6612335469963,19.896511911814741-3.290763841745502-.099442028202247-6.581986529046844-.133549547743314-9.839586033780506-.11649578797369,3.007095323462636-17.992353843981618,7.183405593739735-35.751231775044289,10.441005098473397-53.692908676686784,3.391607898029179-.050651450921578,6.799326373302392-.050651450921578,10.224098608347049,.033164337013659-1.503534916020726,7.166326342547109-3.424772235044657,14.250289908086415-4.677318632819151,21.483403770213044,5.529241878783068-8.569501539257544,11.476670497542727-18.058631535168388,21.433670010403148-21.918134441566508h0Zm68.511478803871796,6.866572738439572c6.599014797397103-6.248584250952263,16.60574807006742-9.740118514157075,25.510053915504614-7.033745468752386,5.095479881376377,1.35344143689872,7.584513082525518,7.133212988373998,6.632663471385968,12.028355802423903-.55171079630054,6.482060163871211-5.179295669309795,11.711548438544924-10.408325098431305,15.102697491023719-6.983094017832627,4.794783094741433-15.469697460268435,6.348510616126077-23.672199030283082,7.567459322754075,.484438939745814,5.061856698808697,2.589418411880615,11.109186191324625,8.319456203544178,12.045409562193527,9.05490915295195,1.085858004438705,17.675062143129253-3.407718475273214,25.326337253816746-7.751660321415329-.634557910287185,3.34141529266526-1.319818254332858,6.698941162572737-2.054761375349699,10.039897609683976-9.505724910128265,4.377080691738229-20.180664767072813,8.002648839663379-30.688890739260387,5.462938696175115-7.083479228564102-1.770634011507354-11.126239951097887-9.021260478963086-11.259789498839382-15.937082640239169-.083815787935237-11.544401199655113,4.159740847480862-23.22184211865715,12.29545489791235-31.524270053847431h0Zm12.412409531438243,.517144431205452c-7.116618074156577,3.793174232370802-11.343120949799413,11.594568313597847-12.863250780035742,19.295551692675872,6.866113892885551-1.05175048489582,14.183043542947416-2.622557257471271,19.378934126472814-7.56697498577887,1.570322435605704-2.05522022090372,3.842449146630315-4.444327056875409,3.124049956992167-7.251110804430937-.200795912882313-4.644179787226676-5.99759573270785-6.682371739776499-9.639733303429239-4.477465902466065h0Zm170.786139052761428-6.113632675127519c7.534294985738597-3.541752359989914,15.987810565417021-2.288721625240214,23.872969451742392-.885571919949143-.50100836254569,2.72296795962211-.952308456693572,5.479559101811901-1.453316819239262,8.236124752584146-5.813879071014526-1.32027709988688-12.01181187104703-3.341415292667079-17.808611690872567-.868492668761974-10.374701915861806,3.975514357396605-15.369796586508528,15.536459488428591-16.1880711584854,25.960895164102112-.618472824462515,5.262168274715805,1.352931608505969,11.828044226518614,6.966499103615206,13.514836958675005,7.667819042066185,1.503560407440091,14.767893184845889-2.772676228012642,21.667604768877936-5.445910427823037-.617962996069764,2.95690271809508-1.269625648963483,5.913805436191979-1.954835010170427,8.854597577044842-8.068952022269514,3.340930955690055-16.939609193721481,5.730037791661744-25.677252137236792,3.925780597586709-5.696414609095882-1.270084494521143-10.023328186887738-6.148199040220788-11.076021854312785-11.81099046674899-3.441341657840894-16.573093561448331,6.448411489882346-34.515254800066032,21.651035346081699-41.48126956670967h0Zm55.598009927047315-1.03566539906933c8.60360905880043-3.24151441891081,17.574702423818962,.801246303622975,26.395651326876759,.183257816132027-3.492018600180018,17.892427478809623-7.183889930713121,35.750747438070903-10.575013491768914,53.659744339676763-3.441800503394916,0-6.883142161237629,0-10.274316705132151,.017053759769624,1.269625648963483-7.082994891588896,3.909211174788652-13.93253936167639,4.126092173490179-21.183650166105508-4.410219537328885,7.919291897283983-10.557934240578106,14.952094183507143-18.209234842684964,19.829749883650948-4.594420535991958,2.707316227935735-11.260222852974039,3.826338569384461-15.453102546049195-.132606365214087-5.59648824391661-6.181337885815083-4.076383905101466-15.269844729915349-1.821310953844659-22.537066111586682,4.093412173451725-12.729701232294246,12.646854118305782-25.342906676612984,25.811235039112944-29.836483156323084h0Zm1.15267101543941,7.51772556294236c-9.422393459170053,4.576933422089496-14.651397396872198,14.667023637139209-17.257385231545413,24.390572728501866-.9021413427472,4.677802969790719-2.790188833339926,11.460075583325306,2.789729987784085,13.966162544244071,9.906832398915867-4.77772933496999,16.572583733055581-13.983216304017333,23.138000839302549-22.452791478099243,3.859044060845918-4.410703874305909,3.574916697005392-10.592067251542176,4.894709459918886-15.971190159783873-4.410270520171252-1.169699283789669-9.338577671238454-2.27166786547059-13.565055055460107,.06724636513718h0Zm70.816744360488883-7.401229774972307c4.49403532526776-2.054786866765426,11.243194584625599-2.472463778349265,14.150338051489598,2.372511921757905,4.126143156330727,5.763202128677221,3.073857351624611,13.381797239322623,1.403149705291071,19.846803643424209-3.575324559718865,12.028355802423903-10.99266491193157,23.67217353885826-22.319216438934745,29.636171580415976-6.214961068382763,3.441800503394916-13.548485632663869,3.207406899367925-20.331242583170024,2.171741500294956-1.35344143689872,6.314887433560216-2.606446680229055,12.64634428991485-3.876072329196177,18.97828548324469-3.374554138259555,0-6.74915925935602,.066762028161975-10.073495300832292,.200311575905289,4.560822844845461-24.474414007852829,9.706010994614189-48.831822399339217,14.450575992568702-73.273072070176568,3.39117454389816,.034082028121702,6.782756950507974,.100844056283677,10.20752918555263,.217339844255548-1.720874760278093,7.150266748145441-3.257599504731843,14.351184947210641-5.061831207389332,21.484372444163455,5.629627089514543-8.469575174080092,11.99473261985986-17.174028289167836,21.450264924620569-21.634465923285461h0Zm-1.53672474445375,9.773257359753188c-7.902238137512541,5.479533610392537-13.665440266189762,13.380854056795215-19.462749914409869,20.882469042497178-3.708899598883363,4.377106183157593-3.324336041474453,10.457574521267816-4.143120441844076,15.820612343686662,5.813879071018164,1.70387198334538,12.496199827955934,1.35344143689872,17.273954654347108-2.756565650770426,9.105076266896504-7.835017263796544,14.501252934907825-20.164095344276575,13.916428784432355-32.126147964094343-.501008362540233-3.941891174828925-5.112049304172615-3.77471844451793-7.584513082525518-1.82036777131907h0Zm120.03313031723701-9.923860667267945c8.603558075959882-3.15721429399855,17.474266230250578,.802214977575204,26.278645710510318,.267557941044288-3.525157445772493,17.892427478805985-6.966499103617025,35.801424380408207-10.675398702498569,53.659744339673125-3.39117454389816-.016085085822851-6.782807933346703-.016085085822851-10.140792648808201,.033164337013659,1.303223340115437-6.982609680859241,3.508588022976255-13.78242039113502,4.57790209603445-20.832276437131441-6.064408743706736,7.835476109350566-11.94502435146569,16.706158772220078-21.467344175811377,20.631964861224333-4.427247805682782,2.038191952553461-10.274265722289783,1.703846491929653-13.465128690282654-2.321860470834508-4.644638632778879-6.181337885813264-3.090885619973051-14.434516398168853-1.069263090219465-21.284035376836982,4.092953327897703-12.896873962605241,12.730160077846449-25.526189984168013,25.961379501075498-30.154259194152473h0Zm-8.820999885894707,16.004354496797532c-5.630085935068564,8.185906655797226-10.157311088767528,18.761404484541345-7.267195890251969,28.734514574643981,2.171716008875592-.116495787971871,4.727995575158275,.701345429868525,6.632153642989579-.885546428531597,8.453515579680243-6.047329492515928,14.784972436036696-14.500335243801601,20.899548293687985-22.786652601747846,2.038191952549823-4.17676911583294,2.171716008875592-9.004206719193462,3.241030081935605-13.498751872852154-8.820948903057797-3.992568117169867-18.527010880514354,.885546428531597-23.5055361283612,8.436436328487616h0Zm86.019419199525146-10.742186222079908c7.183787965033844-5.946459944812887,18.343217744564754-9.204543786518116,26.829821186996924-4.126092173493817,5.997621224125396,5.262627120269826,3.942808865940606,15.085643731252276-.751487052393713,20.565636187198834-7.534345968579146,8.034869994145993-18.76097113040305,11.49372425731417-29.469508678497732,12.412435022859427,.050167113946372,5.145188149766909,2.438815104360401,11.426936737731012,8.16928625016044,12.395840108642005,8.971144347857262,.98547279370905,17.340793156763539-3.525182937193676,24.991991793191119-7.684898293255173-.818274571975053,3.2741689275299-.167121747474084,7.384176015200865-2.605936851834485,10.023787032443579-8.720512709487593,4.928307151063564-19.245410070150683,7.267221381671334-29.152191486227821,5.480017947365923-7.901830274799067-1.637568800739245-12.345698486118636-10.040840792215022-12.078548407791459-17.608758960523119,.384512574572-11.694520170192845,5.061882190229881-23.722875972618567,14.066573246396729-31.457966871237659h0Zm-2.138118317727276,21.233842771471245c8.236073769743598-1.169214946816282,18.092280209159071-3.608973233709548,22.101876594677378-11.760797861383253,1.92123731902393-4.243556635414279-1.486965493224488-7.501614985700144-5.095530864213288-8.937444691029668-9.538889247145562,2.304806711064884-15.302499238534438,11.576571371298996-17.006345730464091,20.698242552412921h0Zm-1050.126133395750003-12.579582261752876c5.596500989628112-8.169337233000988,14.550999440431042-14.501278426329009,24.607938064176778-15.269385884359508,6.515199009465505,.150118970541371,12.913914976667002,1.971888769943689,19.479319337206107,1.470396070426432-4.510642985193044,24.440306488309943-9.589540698063502,48.78162979397348-14.367270033031673,73.172686859446912-3.424759489334974-.067246365135361-6.832962301581574-.117438970501098-10.240680776854788-.117438970501098,2.773160564986028-13.765850968338782,5.512685201694694-27.548271359475621,9.021273224672768-41.146465260528203-6.532252769235129,9.287875237478147-13.7658382226291,20.096823487721849-25.560272012289715,22.786652601747846-7.033273877488682,1.938265587376009-12.58005385301658-4.862029459876794-12.913902230957319-11.276843258610825-.401107488785783-10.674455519971161,4.009609131229809-20.982854253226833,9.973594427077842-29.619602157621557h0Zm11.159378796690362-.584849641894834c-6.949458089555264,8.219070992810884-11.193001979258042,19.112319367961391-10.274303959422468,29.936893858473923,.935751779605198,.601903401666277,2.823353170351766,1.788146616832819,3.759104949956964,2.389106835971688,9.906819653206185-4.226502875642836,15.971190159783873-13.548001295688664,22.586787125686897-21.533621866999965,4.326900832083993-4.393650114534466,3.92579334329821-10.9263872207448,5.278750443223544-16.538986041905446-7.567918168309916-3.358469052436703-16.188083904195082-.283668518286504-21.350338559444936,5.7466072144598h0Zm51.271121840674823-13.030882355904396c3.424772235044657-.13352405632213,6.866113892885551-.183257816133846,10.324509310497888-.13352405632213-2.289180470796055,11.360174709569037-4.293749240778197,22.77054202450563-6.782769696215837,34.080039791737363-.752009626497966,3.408661657800621-.734955866726523,6.899737075453231-.651611670056809,10.375160761417646,2.121536149217718-.200311575907108,4.710941815388651,.768591795003886,6.482047418159709-.868977005733541,7.116624447013237-5.663734609057428,12.446045459719244-13.147378143878086,17.858804296238304-20.380976342983558,5.529732588613115-6.298292519339157,4.727523983894571-15.303467912479391,6.665324352861717-23.021505051330678,3.525163818629153-.233475912918948,7.066897060056363-.233475912918948,10.625206097132832-.033164337013659-3.859018569422915,17.792042268078148-7.100042278503679,35.700554832706985-10.925915629479277,53.509625369135392-3.407718475273214,0-6.815914914664972,.049733759809897-10.207057594288926,.083841279350963,2.305278302330407-7.284275141442777,2.255079324109829-15.487235557011445,6.765715936446213-21.902049355745476-.584371677776289-.351373728974067-1.754058215854457-1.068804244667263-2.321854097979667-1.420203465060695-.100391583586315,.885571919949143-.284133736693548,2.622582748888817-.367477933363261,3.508588022976255-6.031231660983394,7.63422135091605-11.56096424959469,16.705699926664238-21.216795384556463,20.130472161708894-4.377093437446092,1.219866397734222-10.67541144821007,1.353415945479355-13.030882355902577-3.323902687339796-1.854449799440772-5.029176698770243-.868505414469837-10.5754978287423-.033151591303977-15.720685978511028,2.43881510436222-11.594109468045644,4.694372392590594-23.221842118658969,6.815908541810131-34.882739106285953h0Zm301.694495311430728-.13352405632213c3.3745796296771-.049733759811716,6.766187527708098-.066787519583158,10.173918748690994-.033623182569499-3.841977555361154,17.943078929725743-6.448436981299892,36.168883195208764-11.092616768526568,53.910248520944151-3.241030081935605-.132580873794723-6.465477995363472-.200311575905289-9.672884894731396-.183257816133846,3.30779211009758-17.942620084169903,7.0834664828526-35.800940043434821,10.59158291456697-53.693367522240806h0Zm235.538997243646008,3.424772235042838c7.868156109390839-7.517725562944179,20.047115219329498-5.111590458618593,29.318905370982975-1.871044713658193-.567795882123391,2.806783747555528-1.169240438235647,5.613567495111056-1.754064588709298,8.4203257512454-5.763660974233062-1.804257194075035-11.74425393000638-5.246057697473589-17.90899690160586-3.090911111394234-3.959429271573754,.701829766841911-5.412771582226924,6.080952675085427-2.856517507363606,9.004716547586213,4.928307151063564,7.049371709021216,13.682009688986,11.577055708274202,15.87080494905058,20.431627793899679,2.255072951254988,7.150241256724257-2.689803622606632,14.934581578183497-9.672872149019895,16.939634685139026-9.021285970386089,2.839922593148003-19.111835030989823,1.486965493224488-27.481509331315465-2.723426805176132,.66820658427423-2.822894324797744,1.40314970529289-5.612624312583648,2.054786866769064-8.419382568716173,6.682371739776499,2.806758256132525,14.333621359044628,7.082994891587077,21.651035346081699,4.026165808316364,2.873545775715684-.785620063357783,3.441341657840894-3.808800472639632,4.293264903802992-6.214961068384582-3.758607867273895-8.77075629769206-13.548460141242685-12.963635990765397-17.324147259707388-21.734392288457457-2.155146586077535-5.095479881378196-.567795882123391-11.377228469344118,3.809310301034202-14.76835203039991h0Zm291.470371211658858-3.258083841705229c3.458420909031702-.166688393337608,6.932901412470528-.200311575907108,10.424410184254157-.099442028202247-3.825395386855234,17.842209382020883-7.049856045994602,35.817509466232877-10.842061604414994,53.676798099444568-3.408202812248419-.034107519541067-6.782807933344884-.050676942339123-10.157362071608077-.017053759771443,3.424772235046476-17.875858056007928,7.367632083822173-35.650362227339429,10.575013491768914-53.560302311470878h0Zm205.367697035433594,40.964150626921764c4.059355636751206,.033138845594294,8.152257981813818,.04924942283651,12.26229056090051,.06627769118677v1.453367802077992c-.635042247258752,3.759092204247281-1.587401686792873,7.451422380334407-2.405676258769745,11.176891402014007-4.126551019046019-.100385210729655-8.253102038093857-.134008393297336-12.34610634883029-.167172730309176,.785135726380759-4.176284778859554,1.603920126750381-8.353079386111858,2.489492046699525-12.529364164969593h0Z"/><path class="cls-2" d="M52.627817931892423,782.037129747630388c15.452694683332084-40.478743013230996,30.504664249177949-81.107604996999726,46.091341834389823-121.536626996130508,5.029151207350878-.01658216850592,10.056925878037873-.033151591302158,15.08566922267164-.033151591302158,15.937541485795009,40.963194698684674,32.142233049917195,81.809422018130135,48.129992632495487,122.739477871222334,2.071840626538688,4.878114545699646,3.942859848779335,10.324024973524502,8.369648808906277,13.615247660825844,3.157214294004007,2.556254074863318,7.484586717349885,1.954860501591611,11.159888625084932,3.190837476569868,.350405055029114,3.541726868570549,.250988518246231,7.116618074154758,.284127363838707,10.675398702498569-20.782083831765704,.066787519581339-41.548057086289191,.083356942379396-62.313571495256838-.033623182565861-.033597691150135-3.675276416317502-.06673653674261-7.350552832633184-.06673653674261-11.009259826152629,5.228545092146305-.167172730309176,10.624721760159446-.317291700854184,15.319578489725245-2.95690271809508,.116495787971871-13.632301420595468-7.484586717349885-25.560246520870351-11.444015988923638-38.223670061976009-16.505337367918401-.367458814798738-33.027295141475406-.250504181269207-49.550221588977365-.033138845592475-3.391582406613452,11.493724257312351-9.706010994616008,22.703295659370269-9.05434834172047,34.965586220267141,2.522630892297457,5.981026309909794,9.755668280167811,5.947428618759659,15.252739987305176,5.981026309909794,.050269079623831,3.758633358695079,.099518502460342,7.534320477159781,.083407925218125,11.309982104205119-16.004838833770918,.033164337013659-31.992139570795189,.083356942379396-47.996978404566107,.016569422796238v-10.625206097132832c10.040866283632568-.952308456695391,17.341201019478831-9.004206719195281,20.649477466551616-18.042546449347356h0Zm45.205769914438861-87.756825145472249c-6.03025024132512,17.106794669740339-13.464669844728633,33.746178668086941-18.62739609124219,51.137100701665986,12.913953213796049-.317278955142683,25.82831429030557-.333848377938921,38.725188252912631,0-3.642112079302024-10.925444038215574-8.21950434694736-21.517026952782544-12.279318829250769-32.292823611720451-2.705914199850668-6.248125405396422-4.343483000589913-12.963635990769035-7.818473332419671-18.844277089945535h0Zm878.254580845185046-17.758406339798967c2.372049889772825-5.162254655248034,3.391145866049555-11.042895754426354,6.381662207428235-15.837653357750241,4.961460335585798-.434259080087941,9.956545446948439-.166701139047291,14.93505794909106-.183742153109051,12.362691703765449,32.376652145367188,25.326327694530846,64.518897940994066,37.872758364981564,96.811734298426018,4.827921940333908,11.660871496207619,8.70351630541154,23.789638000780542,14.551005813284064,34.99920940283846,2.756578396481927,5.613083158135851,9.438950136256608,7.634680196468253,15.302537475665304,6.983068526409625,.167166357456153,3.775687118466521,.217358962821891,7.551348745511859,.233934758474788,11.343605286774618-20.765495290406761,.200311575907108-41.548037967724667,.066762028161975-62.313536444558849,.066762028161975-.167166357456153-3.842423655207313-.116970565662996-7.68487280183399,.434249520809317-11.477129343096749,5.061856698806878,.534657036529097,10.090561806313417-.217365335678551,14.634350009953778-2.589418411876977,.635042247260571-13.682494025961205-7.684417142709208-25.476915069913957-11.242729366214917-38.256808907572122-16.622817761977785,.083331450960031-33.278780742402887-.635042247258752-49.867974724356827,.300696786636763-2.906695972958914,10.875735769825042-8.920876662295996,21.183191320553306-8.904301663251317,32.676890086448111,.584843269041812,7.450963534780385,9.288830369110656,8.53682153921909,15.169467684403571,7.918833051729962,.450826710522961,3.79225654126094,.534172898709585,7.618110773673834,.384055123078724,11.443531651948433-15.90442892822648,.03362318256768-31.824958874414733-.099926365175634-47.729387006036632,.083815787933418-.283662145429844-3.692330176085306-.317285327997524-7.367606592400989,0-11.042883008718491,10.040366014523897-.434271825801261,16.940096717122287-9.171863786477843,20.264470995725787-17.858804296238304,13.448560860701036-35.082566345216037,26.57936340807646-70.265530646871412,39.894379301522349-105.381707428945447h0Zm5.429337818599379,17.741824171291228c-5.195873058175493,12.145335927370979-9.15481400974204,24.758069780427832-14.016355149611627,37.037414101097966-1.570316859353625,4.744093406690808-4.293746253501013,9.221584800579876-4.560832802431833,14.317064681956253,12.796944809304478-.868977005733541,25.643611827619679-.200795912880494,38.474179421191366-.401107488785783-6.29831482433292-17.106794669742158-12.663401236111895-34.230630353544257-19.896991469147906-50.953371294268436h0Zm-778.636072358487581-18.994854906039109c-.167121747472265-3.876072329196177-.116954633527712-7.75167306712865,.250529672690391-11.610691636553383,25.577325772061158,.467882262659259,51.187331544162589,.250516926982527,76.781175756181256,.116967379237394,.150144461960735,3.825408132566736,.167172730312814,7.651275110685674,.133575039164498,11.493724257315989-6.682371739776499,.050192605362099-13.715658362974864-.718386443930285-20.030545796531442,1.887601390744749-4.460437634117625,2.355470907692506-5.045261784594913,7.868627700654542-5.028233516242835,12.379257940136085,.183742153109051,32.226061583558476,0,64.468692589915008,.099926365175634,96.711336341983042,.066787519583158,4.026191299737548,.58482415047547,9.037855393180507,4.594471518834325,11.126239951097887,6.364595701950748,2.606446680229055,13.481698113080711,1.837880376644534,20.214236966803583,1.888072982008453,.233960249892334,3.792256541262759,.283668518284685,7.584487591104335,.216880998703346,11.393313555166969-25.710339999992357,.133549547741495-51.421240811218013,.06678751957952-77.148201216845337,.033623182565861-.217339844257367-3.859477414980574-.250937535405683-7.751660321417148,.434271825799442-11.560945131031986,7.133212988373998,.434705179935918,14.416978301424024,.284127363842344,21.266522771511518-1.987999347184086,4.026165808316364-6.147740194666767,2.890115198515559-13.748797208569158,3.02414908323226-20.698726889388126-.033648673987045-28.951421064766691-.066787519581339-57.919870397883642,.016569422798057-86.871291462650333-.300696786636763-4.059801736595546,.233909267053605-9.438950136256608-3.825854232411075-11.844613649314852-6.365105530343499-3.54173961428387-14.016355149609808-2.171741500294956-20.999474658863619-2.455868864133663h0Zm101.221992072885769-11.376744132368913c22.887522149452707,.016569422798057,45.774534470512663,.033138845592475,68.662056619965369-.017053759769624,15.970731314228033-.233463167212903,33.245144814125524,2.472922623903287,45.657579836984951,13.331591888247203,15.001802451899493,12.596623275814636,15.453102546051014,38.841658549465137,.100385210731474,51.337896614548299-7.016717200400308,6.515199009463686-16.338674466001976,9.221584800579876-25.192813197492796,12.145323181663116-.016569422798057,.317291700850546-.016569422798057,.935280188341494-.016569422798057,1.235989720686121,10.708588530935231,11.794421043950933,21.216355657566965,23.789638000782361,31.891754360067353,35.617682227300975,5.07840063018557,5.946944281788092,10.090574552023099,12.028355802425722,16.037977679365213,17.157000020815758,3.90875232923463,3.374554138259555,9.271790151653477,3.72546902168142,14.183018051528052,4.309834326601049-.033138845594294,3.892641751994233-.050167113946372,7.785283503986648-.050167113946372,11.677925255979062-12.629316021560953-.033623182565861-25.259549734233588,.21690649012271-37.889324601350381-.100385210729655-18.176095997092489-22.185692382612615-36.452577204912814-44.304622737061436-54.612103779207246-66.490315119670413-3.40769298385203-.066774773871657-6.799326373302392-.099926365175634-10.190500917200552-.133549547743314,.083356942379396,15.319578489723426-.233909267053605,30.655751893666093,.284178346679255,45.975330383391338-.267557941042469,4.878114545699646,4.593961690441574,7.701467716051411,8.753702537922436,8.636747904394724,4.326862594951308,.785161217800123,8.754161383476458,.751996880784645,13.131242075212867,.919169611099278-.083815787933418,3.641653233748002-.100385210729655,7.300360227265628,0,10.959067220785073-23.422128203144894,.718399189638149-46.860876811924754,0-70.282546169513807,.350914883420046,.167172730312814-3.591944965355651-2.539200315091875-9.004691056166848,1.069314073061832-11.393797892136718,5.730012300242379-.384053729016159,11.978163197058166,.317291700850546,17.073643078434543-2.906710112732981,2.605987834675034-2.656180440038952,2.639585525825169-6.565391614829423,2.6892937942157-10.007217609643703-.06673653674261-33.462038558538552,0-66.924089862788605-.033138845594294-100.370030589794624,.317317192273549-3.173783716798425-1.002526553478674-6.030760069717871-2.489492046701343-8.703509932556699-5.830448493814401-2.539213060801558-12.212072464115408-2.422730018539369-18.42657468694415-1.987999347184086-.401132980203329-3.842449146628496-.484438939745814-7.701467716051411-.350914883420046-11.543904116970225h0Zm48.982425706853974,20.448209962405599c-1.069314073060013,15.870804949054218,.150093479120187,31.791330912206831-.434730671355283,47.695759043826911,12.346106348833928-.133536802033632,25.894591981495978,.851935991673599,36.853659202281051-5.8640589306724,7.367632083820354-4.460437634115806,9.472560573112787-13.648870843391705,9.50575040154763-21.684199683095358,.233909267055424-8.035800430965537-.417702403003204-17.291008414111275-6.54884768345255-23.221370527391628-8.854087748652091-6.866572738439572-20.949256562078517-6.69941275383826-31.557408899441725-5.513156792960217-4.393650114534466,.43425908008976-7.768714081188591,4.176310270277099-7.818422349579123,8.587026890292691h0Zm118.161601266603611-20.448209962405599c24.708323274908253-.017053759769624,49.400077127018449,0,74.091372133574623,0-.049708268392351,3.74205119018734-.016569422798057,7.484102380374679,.03362318256768,11.24319458462378-6.181337885815083,.083344196667895-12.613205444320556-.534644290821234-18.493846543498876,1.770634011507354-4.477007056913862,3.274653264503286-4.092953327899522,9.355605939586894-4.243046807019709,14.283913090655915,.033138845594294,26.729486959105998,0,53.442391749704257,.016569422796238,80.172350300075777,.150603307516576,7.51772556294236-.634583401704731,15.18557009642609,1.102452918654308,22.603369294194636,.919169611099278,3.975973202950627,5.696873454649904,4.961445996657858,9.188407717856535,5.229029429119691,12.078573899209005,.70131993844916,24.724918189123855-.116980124947077,35.701039169680371-5.646706340703531,12.512794742169717-6.832975047291256,20.080738401897179-19.546081365368082,26.211883682346524-31.92535205121203,3.608488896734343-.066787519584977,7.233572707684289-.167172730314633,10.858656518634234-.25052967269221-2.773135073566664,16.405003140027475-5.830423002393218,32.760247028823869-8.620152990177303,49.165709014407184-41.832184450127897,.484438939745814-83.680479477501649,.016569422798057-125.512612944790817,.250504181271026-.518087613731041-3.775202781491316-.38405372901434-7.584487591106154-.016620405634967-11.343120949799413,7.150292239562987-.484464431165179,15.118808068264116,1.052234821869206,21.534080712552168-2.940333295298842,2.639636508663898-2.706373045404689,1.971455415810851-6.766187527709917,2.188336414512378-10.173906002983131,.050218096785102-33.378694361870657,.150603307514757-66.774442483510938-.033138845594294-100.153149591089459,.317266209433001-4.092953327897703-1.520614167211534-8.720550946618459-5.813879071016345-9.856627047838629-5.913805436191979-1.736998083231811-12.212123446952319-.834882231902156-18.293050630618382-1.219407552183839,0-3.742051190185521,.033138845594294-7.484102380374679,.099926365175634-11.20957140205428h0Zm155.600568956333518,.050192605365737c25.81077619356256-.21736533568037,51.621552387123302,.133536802031813,77.415759157887805-.150590561806894,0,3.742051190189159,.033164337013659,7.484573971638383,.050192605363918,11.24319458462378-6.632637979962965,.317291700854184-13.565513901012309-.367471560506601-19.863831911774469,2.104966726425118-4.677318632819151,2.171741500294956-5.161783063984331,7.718037138847649-5.128618726970672,12.245721138100635-.066787519581339,31.791343657914695-.050218096785102,63.58314616138523-.050218096785102,95.374489819301743-.099900873756269,3.708899598881544,.785161217801942,7.317413987037071,1.787687771280616,10.875710278405677,6.749133767936655,4.811352517537671,15.386366009306585,3.341440784084625,23.171165176318027,3.725494513098965,0,3.692330176087125,.03362318256768,7.400745437997102,.083815787931599,11.109645036878646-25.743988673977583,.584849641896653-51.488002839378169,.150603307516576-77.232475850332776,.217365335678551-.099926365173815-3.825854232411075-.066787519581339-7.651733956239696,.134008393299155-11.460559920300511,6.782756950507974-.016569422796238,13.932539361678209,.684750515651103,20.364381428764318-1.971429924387849,4.393675605953831-2.338888739188405,4.026191299735729-8.135714050433307,4.410729365725274-12.395840108643824-.017053759771443-31.22353503008344,.033138845594294-62.447070060163242-.017053759771443-93.670617835952726-.216880998703346-4.878114545701465,.484464431165179-11.126227205388204-4.543769085075837-13.899387770374233-6.348536107547261-2.606459425942376-13.515346787067756-2.021609784043903-20.247911132209993-2.005040361249485-.133549547743314-3.792243795551258-.250504181271026-7.567918168306278-.333861123650422-11.343120949797594h0Zm99.918743241350967-.03362318256768c13.983216304017333,.016569422794419,27.982517693857517-.083344196669714,41.965721252163348-.016569422798057,2.505589878235696-.601419064692891,4.176310270278918,1.570309689890564,5.546308384264194,3.241017336225923,21.066198449896547,26.228465850854263,42.633902345018214,52.039242044415005,63.750306145988361,78.234071966991905,6.932888666757208,8.069423613533218,13.147849735139971,16.756351377583997,20.498415313481019,24.474388516431645-.250510554125867-25.677226645815608-.066774773871657-51.337412277573094-.133543174888473-77.014651669100203-.250988518246231-5.245586106208066-1.837874003789693-11.67745366471172-7.283784431614549-13.732215040061419-5.312845217054928-2.556266820573001-11.226637907535405-3.207878490631629-16.889900925327311-4.494060816685305-.017053759771443-3.541739614282051-.03362318256768-7.083479228562283-.050205351075419-10.608636674336594,20.247898386502129-.300709532344626,40.495325181735097,.134021139008837,60.743223568237227-.216893744413028,.216893744411209,3.725481767389283,.216893744411209,7.450963534782204,.050198978218759,11.193014724967725-7.100048651360339,.684763261360786-14.751788980456695,2.071330798145937-20.164554189830596,7.10004865135852-3.792250168407918,4.911737728270964-4.343470254880231,11.477129343098568-4.510636612338203,17.474737821514282-.033145218447316,38.239767893508542,0,76.463450701196052-.016569422796238,114.703690185966479-3.52469222736363-.03362318256768-7.033280250341704-.116980124945258-10.524820886403177-.167172730310995-20.030533050823578-25.510079406927616-41.063592655124012-50.201833259035993-61.461610012165693-75.394620965109425-12.111699999093616-14.083129923481465-23.171165176318027-29.135150472164241-35.734178015274665-42.767451892759709-.167159984601312,27.414721811730487,.050205351075419,54.829443623464613-.116967379235575,82.227098929713975-.167159984601312,5.696898946071087,1.453355056362852,11.677950747398427,5.513156792960217,15.837666103459924,5.01166409344296,4.360052423386151,11.91140116889801,5.746632705879165,18.410030755565458,5.128618726968853,1.503534916018907,3.725494513102603,1.002513807767173,7.751685812838332,.551213713615653,11.644327564830746-19.930135094382422,.016569422798057-39.877323948536286-.133549547743314-59.807459042920527,.066762028161975-.401107488783964-3.725469021679601-.467895008367123-7.484586717348066-.200795912880494-11.210055739029485,6.949929680820787-.584365304919629,14.718159425034173-1.369526522721571,19.646479321809238-6.966040258061184,4.5774050133532-4.661208055578754,4.427286042813648-11.794879889504955,4.727995575158275-17.875832564588563,.033151591305796-29.56940955225582,.016569422798057-59.122721272979106,.033151591305796-88.692118079527063,.434246334378258-3.474964840408575-2.68980362261027-5.696898946067449-5.061856698810516-7.601541350873958-5.496103033188774-3.95941652586589-12.696562386698133-3.040246914764793-19.078211848418505-3.157214294004007-.41767691158384-3.792243795551258-.534657036530916-7.601541350873958-.401107488787602-11.410367314932955h0Zm359.631419469083994,.016569422794419c25.744001419690903-.116967379235575,51.504585007887727,.0838285336431,77.248599173286493-.099913619464132,.066762028161975,3.792243795551258,.116967379237394,7.601069759610255,.167159984601312,11.426936737731012-7.467532957576623-.050192605363918-15.536472234136454-.752009626496147-22.286090339050133,3.090439520130531-2.956889972385397,3.558309037080107-2.773147819278165,8.453477342551196-2.873074184453799,12.813517020227664-.050192605363918,28.951408319057009,.016582168507739,57.886731552289348-.03362318256768,86.838127125636674,.03362318256768,6.298318010762159-.718386443928466,12.980689750538659,2.639611017244533,18.660534936834665,6.899737075453231,3.174268053773631,14.550999440429223,2.138602654702481,21.834790244898613,3.107506025611656,1.469924479162728,3.30779211009758,.350902137710364,7.250626467455731,.668193838564548,10.808948250245521-25.760583588196823,.400623151810578-51.52163876765735,0-77.265652933056117,.183742153107232-.066762028161975-3.842449146626677-.033138845594294-7.701467716051411,.0838285336431-11.527347439881851,7.316929650063685,.367484306218103,14.76789318484407,.284127363840526,21.768015471026956-2.238503528456931,2.505589878235696-4.226502875642836,3.107008942928587-9.154810026708219,3.023664746258873-13.983216304017333-.033623182569499-26.69632262209052-.016569422796238-53.375604230124736-.016569422796238-80.071939597926757-.033623182569499-7.51772556294236,.501021108251734-15.186041687691613-1.253043480459382-22.553176688828898-5.44638201908856-7.166823425231996-15.687062795943348-4.5774050133532-23.455292540158553-5.128631472682173-.133549547743314-3.77567437275502-.217365335676732-7.551348745511859-.250516926982527-11.327023118266879h0Zm101.389139311779218-.016569422794419c24.574314881609098,0,49.132544677395344-.050192605365737,73.706859559002623,0,15.085643731252276,.417676911580202,31.273740381158859,3.975985948660309,42.299569630105907,15.018881703088482,12.580066598724443,12.66292645842077,12.646828626886418,35.233144161311429,.200795912878675,48.013037998969594-7.501156140146122,7.317413987035252-17.591705200751676,11.093088359792091-27.548271359475621,13.732227785771101,13.715658362973045,16.990286136056966,28.884659036604717,32.810898479743628,43.352314280364226,49.166167859963025,4.577392267645337,6.014165155502269,11.744228438587015,8.754186874894003,19.09478127121838,9.338552179815451-.066787519583158,3.742038444479476-.066787519583158,7.517725562944179,.066762028161975,11.276817767193279-12.64634428991485,.567795882123391-25.326337253816746,.216880998701527-37.972681543729777,.183742153107232-17.892427478807804-22.386003958516085-36.486174896061129-44.204237526328143-54.428336134677011-66.52346671097439-3.441341657842713-.066774773871657-6.849518978669948-.116967379235575-10.240668031146924-.134021139008837-.067246365135361,14.116765851760647-.017053759771443,28.250075634899986,0,42.38341090945687,.31726620943482,3.458395417612337-.017053759771443,8.135714050433307,3.641653233748002,10.007217609645522,5.028692361793219,3.140619379786585,11.142809373894124,2.656180440040771,16.823138897165336,3.124049956988529,3.073857351622792,2.70637304540287,1.118996850031181,7.718037138849468,1.136050609802624,11.343120949799413-23.238411541453388-.167172730312814-46.459769323138971-.150118970541371-69.697722019038338-.033138845594294-.568254727679232-3.792256541262759-.635042247260571-7.634705687889436-.367484306218103-11.46055992030233,5.897210521974557-.10041070214902,12.178474772965274,.367458814798738,17.624869537763516-2.355483653402189,3.591460628382265-2.1551720774969,3.357984715463317-6.949929680818968,3.541726868572368-10.591582914565151-.017028268352078-32.861116576530549,0-65.721736070378029-.017028268352078-98.565798887135315-.21690649012271-3.642124825013525,.150577816095392-8.637206749950565-3.641678725165548-10.608636674338413-5.479533610394355-2.789717242074403-11.861183072112908-1.637084463765859-17.758393594089284-2.238503528456931,.083356942379396-3.691858584821603,.133549547745133-7.384176015199046,.183742153109051-11.076034600020648h0Zm51.972467270545167,13.899387770370595c-3.792256541264578,2.623028848738613-3.307817601516945,7.668316124749254-3.474964840410394,11.711076847283039,.03362318256768,14.200097302720678,.016569422796238,28.400194605441357,.050192605365737,42.583709739654296,8.920875268231612,.100397956437519,17.958730661412119,.016569422794419,26.729486959104179-1.954847755881929,7.751660321418967-1.235976974980076,15.102213154050332-6.180866294553198,17.558082018185814-13.882334010604609,2.689803622604813-9.706508077297258,3.22446065913573-20.699198480650011-1.085858004438705-30.021181237671044-3.742063935897022-7.985123488626414-13.231193931809685-10.390799747396159-21.28357653128478-10.892292446911597-6.164309617461186-.050205351075419-13.114239298280154-1.269612903257439-18.493362206521851,2.455868864131844h0Z"/></svg>