<?xml version="1.0" encoding="UTF-8" standalone="no"?>
<!-- Created with Inkscape (http://www.inkscape.org/) -->

<svg
   version="1.0"
   viewBox="0 0 708.66137 154.25853"
   id="svg3155"
   sodipodi:version="0.32"
   inkscape:version="1.4.2 (f4327f4, 2025-05-13)"
   sodipodi:docname="ABOld.svg"
   inkscape:output_extension="org.inkscape.output.svg.inkscape"
   sodipodi:modified="true"
   width="708.66138"
   height="154.25853"
   xmlns:inkscape="http://www.inkscape.org/namespaces/inkscape"
   xmlns:sodipodi="http://sodipodi.sourceforge.net/DTD/sodipodi-0.dtd"
   xmlns="http://www.w3.org/2000/svg"
   xmlns:svg="http://www.w3.org/2000/svg"
   xmlns:rdf="http://www.w3.org/1999/02/22-rdf-syntax-ns#"
   xmlns:cc="http://creativecommons.org/ns#"
   xmlns:dc="http://purl.org/dc/elements/1.1/">
  <metadata
     id="metadata21">
    <rdf:RDF>
      <cc:Work
         rdf:about="">
        <dc:format>image/svg+xml</dc:format>
        <dc:type
           rdf:resource="http://purl.org/dc/dcmitype/StillImage" />
      </cc:Work>
    </rdf:RDF>
  </metadata>
  <sodipodi:namedview
     inkscape:window-height="991"
     inkscape:window-width="1920"
     inkscape:pageshadow="2"
     inkscape:pageopacity="0.0"
     guidetolerance="10.0"
     gridtolerance="10.0"
     objecttolerance="10.0"
     borderopacity="1.0"
     bordercolor="#666666"
     pagecolor="#ffffff"
     id="base"
     inkscape:zoom="0.92864551"
     inkscape:cx="354.27943"
     inkscape:cy="85.608555"
     inkscape:window-x="-9"
     inkscape:window-y="-9"
     inkscape:current-layer="svg3155"
     inkscape:showpageshadow="2"
     inkscape:pagecheckerboard="0"
     inkscape:deskcolor="#d1d1d1"
     inkscape:window-maximized="1" />
  <defs
     id="defs3157" />
  <path
     d="m 164.41421,153.77763 h 17.79362 l 12.75822,-16.18116 h 23.87571 l -3.79069,16.18116 h 16.54891 L 247.10221,77.90721 H 226.508 Z m 57.65246,-30.55184 H 206.22498 L 229.25203,93.5509 h 0.16973 l -7.35509,29.67489"
     style="fill:#a80942;fill-rule:evenodd;stroke:none"
     id="path2787" />
  <path
     d="m 341.64321,118.21868 c 0.9901,-4.15845 7.27021,-7.5248 14.00293,-7.5248 6.76101,0 11.42866,3.36635 10.41026,7.5248 -0.9901,4.13015 -7.27021,7.49652 -14.03122,7.49652 -6.73272,0 -11.40037,-3.36637 -10.38197,-7.49652"
     style="fill:#a80942;fill-rule:nonzero;stroke:none"
     id="path2789" />
  <path
     d="m 241.86881,153.77763 h 16.54891 l 24.92239,-75.87042 h -16.54893 l -24.92237,75.87042"
     style="fill:#a80942;fill-rule:nonzero;stroke:none"
     id="path2791" />
  <path
     d="m 308.03619,92.2496 h 7.86426 c 4.89396,0.11317 7.18535,2.40454 6.3084,7.83599 -1.15986,7.15706 -7.04392,9.33529 -14.17266,9.33529 h -5.57289 z m -36.43593,61.52803 h 16.46406 l 9.73133,-29.98606 h 1.75391 c 7.41165,0 7.8077,0.73551 7.8077,10.63656 l 0.0849,19.3495 h 16.37918 l -0.67893,-23.36651 c -0.0848,-4.89394 -0.36775,-12.92796 -5.14854,-13.49371 l 0.0566,-0.19803 c 9.64646,-1.41444 18.84031,-6.08208 20.99024,-19.46267 2.99862,-18.81202 -11.00431,-19.23633 -22.71585,-19.3495 h -19.63241 l -25.09212,75.87042"
     style="fill:#a80942;fill-rule:evenodd;stroke:none"
     id="path2793" />
  <path
     d="m 406.59419,92.2496 h 4.2433 c 6.1669,0 10.0425,0.99012 9.0807,7.07219 -0.8487,5.20513 -5.4314,8.59979 -12.3056,8.59979 h -6.167 z m -36.52078,61.52803 28.06238,-0.42432 c 14.1161,-0.22632 26.5349,-7.83599 29.1092,-23.93229 1.3295,-8.34519 -2.7158,-13.3523 -9.5333,-14.65357 l 0.0283,-0.22632 c 9.9293,-1.41444 17.5673,-9.02409 19.208,-19.23633 2.2914,-14.34239 -8.232,-17.39759 -14.5687,-17.39759 h -27.2986 z m 26.81768,-32.16431 h 3.9605 c 7.3833,0 11.1174,0.96183 10.0425,7.60967 -1.1882,7.38338 -7.1854,10.21224 -15.474,10.21224 h -4.3847 l 5.8557,-17.82191"
     style="fill:#a80942;fill-rule:evenodd;stroke:none"
     id="path2795" />
  <path
     d="m 430.18699,153.77763 h 44.4699 l 4.6676,-14.3424 h -28.0907 l 5.7427,-17.17125 h 25.5447 l 4.8657,-14.3424 h -25.6297 l 5.3183,-15.67198 h 27.0441 l 4.6676,-14.34239 h -43.2252 l -25.375,75.87042"
     style="fill:#a80942;fill-rule:nonzero;stroke:none"
     id="path2797" />
  <path
     d="m 521.78599,92.2496 h 7.8359 c 4.894,0.11317 7.1854,2.40454 6.3084,7.83599 -1.1598,7.15706 -7.0438,9.33529 -14.1726,9.33529 h -5.5446 z m -36.4642,61.52803 h 16.464 l 9.7313,-29.98606 h 1.7822 c 7.3834,0 7.7795,0.73551 7.7795,10.63656 l 0.0848,19.3495 h 16.3792 l -0.6506,-23.36651 c -0.1132,-4.89394 -0.3961,-12.92796 -5.1486,-13.49371 l 0.0283,-0.19803 c 9.6465,-1.41444 18.8403,-6.08208 20.9902,-19.46267 3.0269,-18.81202 -11.0043,-19.23633 -22.6875,-19.3495 h -19.6607 l -25.0921,75.87042"
     style="fill:#a80942;fill-rule:evenodd;stroke:none"
     id="path2799" />
  <path
     d="m 545.43539,153.77763 h 42.3765 l 4.9505,-14.99303 h -25.7144 l 19.9718,-60.87739 h -16.662 l -24.9224,75.87042"
     style="fill:#a80942;fill-rule:nonzero;stroke:none"
     id="path2801" />
  <path
     d="m 596.38339,153.77763 h 16.5772 l 24.9224,-75.87042 h -16.5489 l -24.9507,75.87042"
     style="fill:#a80942;fill-rule:nonzero;stroke:none"
     id="path2803" />
  <path
     d="m 625.94509,153.77763 h 15.5023 l 16.9449,-52.50391 h 0.198 l 4.4414,52.50391 h 20.4245 l 25.2052,-75.87042 h -15.5022 l -17.0581,52.61708 h -0.198 l -4.1585,-52.61708 h -20.5093 l -25.2902,75.87042"
     style="fill:#a80942;fill-rule:nonzero;stroke:none"
     id="path2805" />
  <path
     d="m 97.143563,147.32781 -91.627263,0.59405 2.85718,-2.80059 85.347153,-2.03679 c 6.959037,-0.65063 13.125977,-5.74262 18.019937,-11.00431 l 97.25671,-114.8806 17.19955,-6.28011 -103.56512,122.46198 c -6.87416,7.66626 -15.72852,13.15427 -25.488147,13.94637"
     style="fill:#a80942;fill-rule:nonzero;stroke:none"
     id="path2807" />
  <path
     d="m 94.342973,140.17075 -20.283023,0.56578 -62.77273,0.9901 2.48939,-2.63086 71.089643,-2.60257 c 7.15706,-0.28288 13.324,-6.76101 18.472547,-11.93785 l 84.4419,-99.66125 14.71015,-5.28999 -93.7489,110.66557 c -4.13015,3.93215 -9.165547,8.88267 -14.398977,9.90107"
     style="fill:#a80942;fill-rule:nonzero;stroke:none"
     id="path2809" />
  <path
     d="M 107.63868,154.14539 93.890363,154.25853 0,153.91907 2.29139,151.28823 94.399563,150.3264 c 12.164147,0.39605 22.602697,-5.17684 30.636717,-14.11608 L 233.52362,8.34519 256.63552,0 141.10429,137.05898 c -4.63938,5.37487 -10.26883,9.25041 -15.89828,12.24903 -5.45974,2.37625 -11.20236,4.35647 -17.56733,4.83738"
     style="fill:#a80942;fill-rule:nonzero;stroke:none"
     id="path2811" />
</svg>
