<?xml version="1.0" encoding="utf-8"?>
<!-- Generator: Adobe Illustrator 15.0.2, SVG Export Plug-In . SVG Version: 6.00 Build 0)  -->
<!DOCTYPE svg PUBLIC "-//W3C//DTD SVG 1.1//EN" "http://www.w3.org/Graphics/SVG/1.1/DTD/svg11.dtd">
<svg version="1.1" id="svg3336" xmlns:svg="http://www.w3.org/2000/svg"
	 xmlns="http://www.w3.org/2000/svg" xmlns:xlink="http://www.w3.org/1999/xlink" x="0px" y="0px" width="160.896px"
	 height="66.075px" viewBox="0 0 160.896 66.075" enable-background="new 0 0 160.896 66.075" xml:space="preserve">
<g id="layer1" transform="translate(-69.74777,-472.70631)">
	<path id="path15303" fill="#00447C" d="M147.477,474.713c-2.363,0-3.457,1.818-3.457,4.321v37.638c0,4.448,1.098,5.576,4.712,5.576
		c3.194,0,2.911-0.976,6.244-0.976c3.336,0,3.641,1.812,8.782,1.812c8.613,0,15.278-6.398,15.278-19.46
		c0-11.254-6.274-17.37-14.888-17.37c-3.894,0-5.834,1.534-8.058,1.534c-1.945,0-2.899-2.238-2.899-4.182v-4.573
		c0-2.918-1.54-4.321-3.485-4.321H147.477L147.477,474.713z M199.724,485.084c-9.031,0-17.648,5.398-17.648,19.572
		c0,11.811,7.644,18.066,17.787,18.066c10.422,0,15.418-6.252,15.418-8.476c0-1.668-2.491-3.597-4.711-3.597
		c-3.612,0-4.593,4.852-10.566,4.852c-3.614,0-7.221-3.327-7.221-6.384c0-2.362,1.654-3.625,4.851-3.625h14.47
		c3.337,0,4.712-0.819,4.712-4.015C216.815,498.699,214.871,485.085,199.724,485.084L199.724,485.084z M199.724,492.306
		c3.336,0,6.273,2.487,6.273,4.711c0,1.946-2.387,2.928-6.971,2.928c-3.753,0-5.688-1.124-5.688-3.206
		C193.34,494.238,196.947,492.306,199.724,492.306L199.724,492.306z M161.668,492.779c5.556,0,8.058,5.431,8.058,12.518
		c0,7.505-3.891,11.096-8.336,11.096c-4.725,0-8.058-4.015-8.058-12.072S157.359,492.779,161.668,492.779z M224.064,509.954
		c-4.726,0-6.107,1.798-6.107,6.523c0,3.056,0.547,6.245,6.245,6.245c4.028,0,6.135-1.383,6.135-6.523
		C230.337,512.862,229.761,509.954,224.064,509.954L224.064,509.954z"/>
	<path id="path15315" fill="#6CAEDF" d="M84.608,472.706c-6.116,0-8.338,4.16-8.894,6.245c-1.112,3.89-1.09,5.159-1.924,5.855
		c-2.084,1.804-4.042,2.35-4.042,4.711c0,3.474,5.27,2.225,5.27,8.894v18.903c0,3.612,1.684,4.851,5.437,4.851
		c3.611,0,5.13-1.655,5.13-4.851v-19.6c0-1.945,0.699-3.458,1.673-4.154c1.111-0.835,4.6-1.679,4.6-4.182
		c0-1.112-0.701-2.372-2.23-3.067c-2.084-0.974-2.509-1.507-2.509-2.621c0-0.972,0.706-1.678,2.928-2.927
		c2.362-1.252,2.062-2.906,2.062-4.433c0-1.948-2.072-3.625-4.851-3.625H84.608L84.608,472.706z M99.607,472.901
		c-2.5,0-4.154,1.962-4.154,4.461v39.729c0,3.613,1.519,5.157,5.688,5.157c3.474,0,5.158-1.539,5.158-4.461v-39.729
		c0-3.471-1.543-5.158-4.461-5.158H99.607z M112.599,486.312c-1.946,0-4.176,0.714-2.509,6.273
		c0.416,1.529,9.172,27.357,9.172,29.72c0,1.946-1.374,3.768-4.014,4.321c-2.503,0.557-4.043,1.654-4.043,3.875
		c0,2.362,1.54,3.765,3.764,3.765h3.458c4.027,0,8.484-1.254,11.263-9.87l10.985-33.344c0.14-0.559,0.278-1.256,0.278-2.23
		c0-1.391-1.397-2.509-3.067-2.509h-2.369c-2.639,0-4.297,1.261-4.852,3.625l-2.927,13.466c-0.416,2.086-1.259,4.321-2.648,4.321
		c-1.111,0-2.064-0.709-2.761-4.182l-2.788-12.769c-0.693-2.918-2.07-4.46-4.433-4.46L112.599,486.312L112.599,486.312z"/>
	<path id="path15339" fill="#FDB813" d="M149.234,525.956c-4.733,0-6.134,1.816-6.134,6.552c0,3.063,0.562,6.273,6.272,6.273
		c4.037,0,6.105-1.396,6.105-6.552C155.479,528.888,154.945,525.956,149.234,525.956z M164.261,525.956
		c-4.735,0-6.135,1.816-6.135,6.552c0,3.063,0.562,6.273,6.273,6.273c4.037,0,6.106-1.396,6.106-6.552
		C170.507,528.888,169.971,525.956,164.261,525.956z"/>
	<path id="path15347" fill="#EE3224" d="M179.511,525.956c-4.733,0-6.106,1.816-6.106,6.552c0,3.063,0.535,6.273,6.246,6.273
		c4.037,0,6.133-1.396,6.133-6.552C185.784,528.888,185.222,525.956,179.511,525.956L179.511,525.956z M194.539,525.956
		c-4.735,0-6.134,1.816-6.134,6.552c0,3.063,0.561,6.273,6.272,6.273c4.037,0,6.134-1.396,6.134-6.552
		C200.811,528.888,200.251,525.956,194.539,525.956L194.539,525.956z"/>
	<path id="path15355" fill="#5A3F99" d="M209.566,525.956c-4.733,0-6.134,1.816-6.134,6.552c0,3.063,0.563,6.273,6.273,6.273
		c4.037,0,6.133-1.396,6.133-6.552C215.839,528.888,215.279,525.956,209.566,525.956z M224.371,525.956
		c-4.733,0-6.135,1.816-6.135,6.552c0,3.063,0.562,6.273,6.273,6.273c4.038,0,6.134-1.396,6.134-6.552
		C230.643,528.888,230.082,525.956,224.371,525.956L224.371,525.956z"/>
</g>
</svg>
