<?xml version="1.0" encoding="UTF-8" standalone="no"?>
<!-- Generator: Adobe Illustrator 15.0.2, SVG Export Plug-In . SVG Version: 6.00 Build 0)  -->

<svg
   version="1.1"
   id="svg3336"
   x="0px"
   y="0px"
   width="160.895"
   height="66.075996"
   viewBox="0 0 160.89501 66.075999"
   enable-background="new 0 0 160.896 66.075"
   xml:space="preserve"
   sodipodi:docname="BE.svg"
   inkscape:version="1.4.2 (f4327f4, 2025-05-13)"
   xmlns:inkscape="http://www.inkscape.org/namespaces/inkscape"
   xmlns:sodipodi="http://sodipodi.sourceforge.net/DTD/sodipodi-0.dtd"
   xmlns="http://www.w3.org/2000/svg"
   xmlns:svg="http://www.w3.org/2000/svg"><defs
   id="defs1" /><sodipodi:namedview
   id="namedview1"
   pagecolor="#ffffff"
   bordercolor="#000000"
   borderopacity="0.25"
   inkscape:showpageshadow="2"
   inkscape:pageopacity="0.0"
   inkscape:pagecheckerboard="0"
   inkscape:deskcolor="#d1d1d1"
   inkscape:zoom="2.7548852"
   inkscape:cx="70.420357"
   inkscape:cy="64.068005"
   inkscape:window-width="1920"
   inkscape:window-height="991"
   inkscape:window-x="-9"
   inkscape:window-y="-9"
   inkscape:window-maximized="1"
   inkscape:current-layer="svg3336" />
<g
   id="layer1"
   transform="translate(-69.748,-472.705)">
	<path
   id="path15303"
   fill="#00447c"
   d="m 147.477,474.713 c -2.363,0 -3.457,1.818 -3.457,4.321 v 37.638 c 0,4.448 1.098,5.576 4.712,5.576 3.194,0 2.911,-0.976 6.244,-0.976 3.336,0 3.641,1.812 8.782,1.812 8.613,0 15.278,-6.398 15.278,-19.46 0,-11.254 -6.274,-17.37 -14.888,-17.37 -3.894,0 -5.834,1.534 -8.058,1.534 -1.945,0 -2.899,-2.238 -2.899,-4.182 v -4.573 c 0,-2.918 -1.54,-4.321 -3.485,-4.321 h -2.229 z m 52.247,10.371 c -9.031,0 -17.648,5.398 -17.648,19.572 0,11.811 7.644,18.066 17.787,18.066 10.422,0 15.418,-6.252 15.418,-8.476 0,-1.668 -2.491,-3.597 -4.711,-3.597 -3.612,0 -4.593,4.852 -10.566,4.852 -3.614,0 -7.221,-3.327 -7.221,-6.384 0,-2.362 1.654,-3.625 4.851,-3.625 h 14.47 c 3.337,0 4.712,-0.819 4.712,-4.015 -0.001,-2.778 -1.945,-16.392 -17.092,-16.393 z m 0,7.222 c 3.336,0 6.273,2.487 6.273,4.711 0,1.946 -2.387,2.928 -6.971,2.928 -3.753,0 -5.688,-1.124 -5.688,-3.206 0.002,-2.501 3.609,-4.433 6.386,-4.433 z m -38.056,0.473 c 5.556,0 8.058,5.431 8.058,12.518 0,7.505 -3.891,11.096 -8.336,11.096 -4.725,0 -8.058,-4.015 -8.058,-12.072 0,-8.057 4.027,-11.542 8.336,-11.542 z m 62.396,17.175 c -4.726,0 -6.107,1.798 -6.107,6.523 0,3.056 0.547,6.245 6.245,6.245 4.028,0 6.135,-1.383 6.135,-6.523 0,-3.337 -0.576,-6.245 -6.273,-6.245 z" />
	<path
   id="path15315"
   fill="#6caedf"
   d="m 84.608,472.706 c -6.116,0 -8.338,4.16 -8.894,6.245 -1.112,3.89 -1.09,5.159 -1.924,5.855 -2.084,1.804 -4.042,2.35 -4.042,4.711 0,3.474 5.27,2.225 5.27,8.894 v 18.903 c 0,3.612 1.684,4.851 5.437,4.851 3.611,0 5.13,-1.655 5.13,-4.851 v -19.6 c 0,-1.945 0.699,-3.458 1.673,-4.154 1.111,-0.835 4.6,-1.679 4.6,-4.182 0,-1.112 -0.701,-2.372 -2.23,-3.067 -2.084,-0.974 -2.509,-1.507 -2.509,-2.621 0,-0.972 0.706,-1.678 2.928,-2.927 2.362,-1.252 2.062,-2.906 2.062,-4.433 0,-1.948 -2.072,-3.625 -4.851,-3.625 h -2.65 z m 14.999,0.195 c -2.5,0 -4.154,1.962 -4.154,4.461 v 39.729 c 0,3.613 1.519,5.157 5.688,5.157 3.474,0 5.158,-1.539 5.158,-4.461 v -39.729 c 0,-3.471 -1.543,-5.158 -4.461,-5.158 h -2.231 z m 12.992,13.411 c -1.946,0 -4.176,0.714 -2.509,6.273 0.416,1.529 9.172,27.357 9.172,29.72 0,1.946 -1.374,3.768 -4.014,4.321 -2.503,0.557 -4.043,1.654 -4.043,3.875 0,2.362 1.54,3.765 3.764,3.765 h 3.458 c 4.027,0 8.484,-1.254 11.263,-9.87 l 10.985,-33.344 c 0.14,-0.559 0.278,-1.256 0.278,-2.23 0,-1.391 -1.397,-2.509 -3.067,-2.509 h -2.369 c -2.639,0 -4.297,1.261 -4.852,3.625 l -2.927,13.466 c -0.416,2.086 -1.259,4.321 -2.648,4.321 -1.111,0 -2.064,-0.709 -2.761,-4.182 l -2.788,-12.769 c -0.693,-2.918 -2.07,-4.46 -4.433,-4.46 z" />
	<path
   id="path15339"
   fill="#fdb813"
   d="m 149.234,525.956 c -4.733,0 -6.134,1.816 -6.134,6.552 0,3.063 0.562,6.273 6.272,6.273 4.037,0 6.105,-1.396 6.105,-6.552 0.002,-3.341 -0.532,-6.273 -6.243,-6.273 z m 15.027,0 c -4.735,0 -6.135,1.816 -6.135,6.552 0,3.063 0.562,6.273 6.273,6.273 4.037,0 6.106,-1.396 6.106,-6.552 0.002,-3.341 -0.534,-6.273 -6.244,-6.273 z" />
	<path
   id="path15347"
   fill="#ee3224"
   d="m 179.511,525.956 c -4.733,0 -6.106,1.816 -6.106,6.552 0,3.063 0.535,6.273 6.246,6.273 4.037,0 6.133,-1.396 6.133,-6.552 0,-3.341 -0.562,-6.273 -6.273,-6.273 z m 15.028,0 c -4.735,0 -6.134,1.816 -6.134,6.552 0,3.063 0.561,6.273 6.272,6.273 4.037,0 6.134,-1.396 6.134,-6.552 0,-3.341 -0.56,-6.273 -6.272,-6.273 z" />
	<path
   id="path15355"
   fill="#5a3f99"
   d="m 209.566,525.956 c -4.733,0 -6.134,1.816 -6.134,6.552 0,3.063 0.563,6.273 6.273,6.273 4.037,0 6.133,-1.396 6.133,-6.552 0.001,-3.341 -0.559,-6.273 -6.272,-6.273 z m 14.805,0 c -4.733,0 -6.135,1.816 -6.135,6.552 0,3.063 0.562,6.273 6.273,6.273 4.038,0 6.134,-1.396 6.134,-6.552 0,-3.341 -0.561,-6.273 -6.272,-6.273 z" />
</g>
</svg>
