<?xml version="1.0" encoding="UTF-8" standalone="no"?>
<!-- Generator: Adobe Illustrator 21.0.0, SVG Export Plug-In . SVG Version: 6.00 Build 0)  -->

<svg
   version="1.1"
   id="Layer_1"
   x="0px"
   y="0px"
   viewBox="0 0 58.36905 20"
   enable-background="new 0 0 58.36905 20"
   xml:space="preserve"
   sodipodi:docname="BM.svg"
   inkscape:version="1.4.2 (f4327f4, 2025-05-13)"
   xmlns:inkscape="http://www.inkscape.org/namespaces/inkscape"
   xmlns:sodipodi="http://sodipodi.sourceforge.net/DTD/sodipodi-0.dtd"
   xmlns="http://www.w3.org/2000/svg"
   xmlns:svg="http://www.w3.org/2000/svg"><defs
   id="defs13" /><sodipodi:namedview
   id="namedview13"
   pagecolor="#ffffff"
   bordercolor="#000000"
   borderopacity="0.25"
   inkscape:showpageshadow="2"
   inkscape:pageopacity="0.0"
   inkscape:pagecheckerboard="0"
   inkscape:deskcolor="#d1d1d1"
   inkscape:zoom="45.254834"
   inkscape:cx="15.368524"
   inkscape:cy="7.3251843"
   inkscape:window-width="1920"
   inkscape:window-height="991"
   inkscape:window-x="-9"
   inkscape:window-y="-9"
   inkscape:window-maximized="1"
   inkscape:current-layer="Layer_1" />
<path
   id="path17"
   style="display:inline;fill-rule:evenodd;fill:#ffffff;fill-opacity:1"
   inkscape:label="path13"
   d="M 7.37452,1.35998 C 7.2245,1.76 7.0345,2.14996 6.9145,2.57 M 8.93576,0.80253 C 8.6028467,0.85162792 7.8949333,1.1741633 7.37452,1.35998 L 6.9145,2.57 C 6.65449,3.41998 6.63453,4.28998 6.70454,5.16998 6.7245,5.38 6.75453,5.58997 6.77455,5.78998 6.82454,5.88 6.86452,5.96997 6.9145,6.04999 7.08454,6.15998 7.26454,6.14997 7.45454,6.09998 7.55452,6.07996 7.6545,6.07001 7.75453,6.04998 7.9745,6.01001 8.20454,5.96997 8.42451,5.91998 8.74452,5.87 9.06453,5.82001 9.39454,5.76995 9.75453,5.71997 10.11451,5.67999 10.48451,5.63 c 0.22003,-0.03002 0.45001,-0.05004 0.66998,-0.08001 0.16003,-0.01001 0.33002,-0.03003 0.49005,-0.03998 0.22998,-0.02002 0.46997,-0.03003 0.69995,-0.05005 0.28003,-0.00995 0.56,-0.02997 0.84003,-0.04999 0.35999,0 0.72998,0 1.09003,-0.01001 C 14.33454,5.39001 14.39454,5.38 14.44453,5.38 c 0.85999,0.06 1.71997,0.10998 2.58002,0.19 0.40997,0.03998 0.81,0.13995 1.20996,0.20996 0.37,0.10004 0.73004,0.19 1.10004,0.29004 0.22998,0.07996 0.520751,0.1360437 0.740781,0.2460937 m 0,0 L 19.72733,5.58896 C 19.3512,4.86247 18.90861,4.24908 18.40461,3.679 17.98243,3.1536987 17.778999,2.9721475 17.31385,2.63044 16.69864,2.15326 16.0819,1.7381 15.4004,1.42447 v 0 C 15.125892,1.29002 14.52326,1.09307 14.08469,0.92737 14.04263,0.90669 14.02465,0.89435 14.00477,0.88856 12.87628,0.56017 11.72556,0.43949 10.55395,0.52821 10.35826,0.54303 10.16449,0.58339 9.96983,0.61198 9.62533,0.67681 9.2827,0.75559 8.93576,0.80253"
   sodipodi:nodetypes="cccccccccccccccccccccccccccccccscc" /><g
   id="g12">
	<path
   fill="#739DD2"
   d="M35.51619,10.04335c0.01516-0.14522,0.02839-0.2552,0.03777-0.36551   c0.01751-0.206,0.11279-0.31731,0.31723-0.33434c0.14297-0.01192,0.28961-0.01026,0.43192,0.00724   c0.21713,0.02669,0.28482,0.11299,0.28451,0.33115c-0.00184,1.30137,0.00928,2.60301-0.0158,3.90395   c-0.00742,0.38466-0.07661,0.78002-0.18975,1.14828c-0.23581,0.76759-0.78912,1.21425-1.56982,1.37648   c-0.73779,0.15331-1.46742,0.10928-2.18269-0.12733c-0.30083-0.09952-0.33128-0.16783-0.25637-0.4763   c0.02647-0.109,0.05011-0.21892,0.08226-0.32626c0.05213-0.17404,0.139-0.21179,0.3156-0.17188   c0.34301,0.07752,0.68512,0.17687,1.0331,0.21104c0.87581,0.08601,1.52535-0.34768,1.5577-1.33486   c0.00525-0.16011,0.00074-0.32054,0.00074-0.49996c-0.02761,0.01935-0.04653,0.02661-0.05638,0.04037   c-0.4348,0.60777-1.05382,0.76068-1.74624,0.66809c-0.80835-0.10809-1.30507-0.61741-1.5461-1.36441   c-0.27064-0.83876-0.22006-1.67044,0.21151-2.45371c0.50611-0.91854,1.6867-1.3144,2.59089-0.8841   C35.10639,9.52935,35.31809,9.75091,35.51619,10.04335z M35.36266,11.65045c0-0.12309,0.0002-0.24617-0.00003-0.36926   c-0.0009-0.48484-0.32291-0.92293-0.78037-1.06188c-0.46654-0.14171-0.97478,0.02754-1.22861,0.45712   c-0.38072,0.64431-0.39401,1.32255-0.01508,1.96596c0.42154,0.71576,1.38327,0.69797,1.83312-0.0028   C35.36894,12.33231,35.38048,11.99582,35.36266,11.65045z"
   id="path1" />
	<path
   fill="#739DD2"
   d="M44.39888,11.6179c-0.00953,0.71427-0.14846,1.30564-0.57145,1.79528   c-0.54325,0.62883-1.25846,0.85351-2.06128,0.78684c-0.788-0.06544-1.41569-0.42787-1.80971-1.13581   c-0.27407-0.49241-0.34996-1.0286-0.30532-1.58277c0.03978-0.49372,0.184-0.954,0.48893-1.35344   c0.37347-0.48923,0.87868-0.75732,1.47728-0.85028c0.62669-0.09732,1.22761-0.02036,1.7692,0.33547   c0.573,0.37646,0.86719,0.92925,0.9735,1.59206C44.38617,11.36818,44.39137,11.53449,44.39888,11.6179z M42.00342,13.31872   c0.34957,0.00499,0.61106-0.15275,0.81205-0.41906c0.23421-0.31034,0.31806-0.67188,0.33673-1.05217   c0.02224-0.45272-0.04747-0.88779-0.30346-1.27071c-0.4112-0.61509-1.22418-0.61903-1.66021-0.01608   c-0.43763,0.60517-0.42204,1.77373,0.03418,2.3667C41.42023,13.18411,41.67758,13.32653,42.00342,13.31872z"
   id="path2" />
	<path
   fill="#739DD2"
   d="M53.02465,10.99809c0.08819-0.49157-0.23994-0.8467-0.78654-0.86694   c-0.40803-0.01511-0.79734,0.06221-1.17043,0.22652c-0.21712,0.09562-0.24852,0.08276-0.33014-0.13776   c-0.04453-0.12029-0.08759-0.2413-0.1256-0.36375c-0.0372-0.11986-0.02047-0.22148,0.11039-0.27933   c0.71391-0.31561,1.45498-0.43385,2.22153-0.26048c0.74328,0.16811,1.18171,0.6744,1.28348,1.44279   c0.02239,0.16906,0.03346,0.34081,0.03408,0.51138c0.00327,0.90506,0.00166,1.81013,0.00145,2.7152   c-0.00005,0.21321-0.02764,0.24138-0.24423,0.22673c-0.32069-0.02168-0.54876-0.19165-0.70865-0.46105   c-0.04337-0.07306-0.07543-0.15283-0.12069-0.24597c-0.24644,0.34947-0.57479,0.5639-0.97894,0.65526   c-0.49897,0.11279-0.98137,0.08357-1.41325-0.22183c-0.67699-0.47872-0.72893-1.46411-0.28453-2.06468   c0.32543-0.43979,0.79773-0.63929,1.3105-0.74005c0.34963-0.0687,0.70932-0.08625,1.06457-0.12608   C52.93405,11.00286,52.98082,11.0012,53.02465,10.99809z M53.0806,11.7747c-0.46772,0.00075-0.90718,0.02411-1.30212,0.26095   c-0.27246,0.16339-0.40057,0.47441-0.33669,0.78948c0.05521,0.27231,0.21836,0.45755,0.49242,0.50728   c0.37483,0.06801,0.69575-0.04848,0.94551-0.3423C53.18721,12.62838,53.04349,12.19876,53.0806,11.7747z"
   id="path3" />
	<path
   fill="#739DD2"
   d="M46.27538,10.07254C46.55727,9.638,46.9303,9.39267,47.40093,9.2858   c0.98372-0.22338,1.85295,0.34072,2.03587,1.33514c0.04036,0.21942,0.06074,0.44538,0.06245,0.66854   c0.00689,0.89949,0.00298,1.79907,0.00277,2.69861c-0.00005,0.21334-0.01892,0.23144-0.22863,0.22554   c-0.50473-0.01421-0.89054-0.35852-0.95017-0.89189c-0.03846-0.34406-0.02573-0.69387-0.03524-1.04112   c-0.01141-0.41673,0.00259-0.83598-0.03927-1.24959c-0.0531-0.52467-0.39664-0.81618-0.88406-0.80682   c-0.46164,0.00886-0.90524,0.40565-0.94349,0.87194c-0.02792,0.34044-0.02574,0.68372-0.02837,1.02579   c-0.00417,0.54077-0.00045,1.08159-0.00142,1.62239c-0.00045,0.25044-0.10994,0.36281-0.36018,0.36833   c-0.1552,0.00342-0.31057,0.00273-0.46581,0.00018c-0.26077-0.00428-0.37024-0.11487-0.37046-0.37441   c-0.00069-0.80852,0.00306-1.61706-0.00143-2.42555c-0.003-0.54023-0.01697-1.08041-0.02626-1.62061   c-0.00413-0.24038,0.0756-0.33784,0.31379-0.35237c0.15966-0.00974,0.32092-0.00251,0.481,0.00593   c0.16311,0.0086,0.25154,0.10193,0.26716,0.26474C46.24279,9.75265,46.25753,9.89463,46.27538,10.07254z"
   id="path4" />
	<path
   fill="#739DD2"
   d="M28.07673,12.05982c-0.05684,0.51674,0.29352,0.99316,0.82546,1.1237   c0.51117,0.12543,1.01907,0.07328,1.52221-0.05942c0.0616-0.01624,0.12955-0.04688,0.18596-0.03379   c0.05997,0.01392,0.14192,0.06175,0.15802,0.11259c0.05463,0.17244,0.08758,0.35214,0.12256,0.53029   c0.02533,0.129-0.04707,0.2108-0.16126,0.24042c-0.26831,0.0696-0.53695,0.14649-0.81043,0.18572   c-0.51131,0.07334-1.02498,0.07786-1.52509-0.07982c-0.72531-0.22868-1.1968-0.71406-1.39356-1.44698   c-0.23279-0.86713-0.15304-1.70554,0.35245-2.46175c0.47807-0.71521,1.18075-0.98165,2.02678-0.91589   c1.04082,0.08089,1.5897,0.83367,1.73542,1.74694c0.03766,0.23603,0.03405,0.47946,0.0388,0.7197   c0.00438,0.2214-0.10995,0.33419-0.33612,0.33691c-0.34277,0.00413-0.68563,0.00133-1.02845,0.00136   c-0.51423,0.00006-1.02847,0.00002-1.5427,0.00002C28.18933,12.05983,28.1319,12.05982,28.07673,12.05982z M28.0532,11.21514   c0.64369,0,1.25298,0.00162,1.86218-0.00455c0.03196-0.00033,0.08138-0.06271,0.09041-0.10337   c0.01209-0.05442-0.00429-0.11634-0.01378-0.17417c-0.04716-0.28743-0.14073-0.55502-0.39636-0.72306   c-0.30869-0.20291-0.64303-0.20903-0.95857-0.03286C28.24856,10.39406,28.11001,10.76913,28.0532,11.21514z"
   id="path5" />
	<path
   fill="#739DD2"
   d="M55.32363,10.64462c0-1.0176-0.00021-2.03521,0.00012-3.05281   c0.0001-0.32416,0.09726-0.42124,0.41944-0.42166c0.15532-0.0002,0.31069-0.00255,0.46594,0.00079   c0.20398,0.00439,0.31666,0.11324,0.33149,0.31562c0.00312,0.04263,0.00085,0.08566,0.00085,0.1285   c0.00002,2.01378,0.00004,4.02757,0,6.04135c-0.00001,0.35624-0.10119,0.45661-0.46012,0.45689   c-0.11247,0.00009-0.22495,0.00059-0.33742-0.0001c-0.30415-0.00188-0.41987-0.11524-0.42006-0.41577   C55.32323,12.67983,55.32363,11.66223,55.32363,10.64462z"
   id="path6" />
	<path
   fill="#739DD2"
   d="M24.71501,10.03346c0.21449-0.28913,0.4413-0.51519,0.7443-0.62023   c0.26896-0.09324,0.55338-0.14952,0.83538-0.19459c0.16888-0.02699,0.27777,0.0886,0.28856,0.27162   c0.01038,0.17603,0.00961,0.35355,0.00008,0.52967c-0.00949,0.17524-0.11982,0.25423-0.3349,0.27164   c-0.22862,0.01852-0.45977,0.02728-0.68441,0.06924c-0.45986,0.08591-0.70847,0.38161-0.71399,0.85153   c-0.00924,0.78685-0.00568,1.57386-0.0069,2.36079c-0.00068,0.43834-0.0709,0.50805-0.51592,0.50805   c-0.10172,0-0.20344,0.00028-0.30516-0.00006c-0.27859-0.00091-0.39143-0.11129-0.39157-0.38669   c-0.00051-1.01185,0.00174-2.02371-0.00133-3.03556c-0.00099-0.32605-0.01483-0.65208-0.02343-0.9781   c-0.00688-0.26058,0.08009-0.35457,0.33425-0.35683c0.14454-0.00128,0.28913-0.00184,0.43365,0.00021   c0.18738,0.00266,0.26073,0.05903,0.29374,0.24748C24.69176,9.71084,24.69725,9.85334,24.71501,10.03346z"
   id="path7" />
	<path
   fill="#739DD2"
   d="M37.64104,11.71766c-0.00004-0.65847-0.0009-1.31695,0.00037-1.97541   c0.00055-0.28514,0.11201-0.39855,0.39655-0.40524c0.14446-0.0034,0.28934-0.00604,0.43355,0.00089   c0.2751,0.01322,0.38204,0.12868,0.38589,0.40472c0.00068,0.04817,0.0001,0.09636,0.0001,0.14454   c0,1.2527,0.00007,2.5054-0.00004,3.75811c-0.00003,0.36258-0.10539,0.4679-0.46734,0.46805   c-0.12848,0.00006-0.2571,0.00365-0.38542-0.00094c-0.24847-0.00889-0.36195-0.12267-0.36282-0.37113   C37.63953,13.06672,37.64108,12.39219,37.64104,11.71766z"
   id="path8" />
	<path
   fill="#77cef4"
   d="M 14.00477,0.88856 C 12.87628,0.56017 11.72556,0.43949 10.55395,0.52821 10.35826,0.54303 10.16449,0.58339 9.96983,0.61198 9.62533,0.67681 9.2827,0.75559 8.93576,0.80253 8.60441,0.84737 8.39042,1.03097 8.2466,1.31159 8.12503,1.5488 8.00151,1.78736 7.90854,2.03641 7.7,2.59505 7.61915,3.18274 7.5699,3.77316 7.5532,3.97338 7.56984,4.17975 7.60018,4.37889 7.61233,4.45862 7.68967,4.54923 7.76248,4.59034 7.80024,4.61166 7.90481,4.54917 7.95852,4.50133 8.13395,4.34507 8.2904,4.16668 8.47126,4.01756 8.9442,3.62763 9.4262,3.2487 9.90459,2.86538 9.95013,2.83793 9.99689,2.81231 10.04102,2.78276 11.18532,2.01662 12.4068,1.41307 13.73258,1.02898 13.84296,0.997 13.95341,0.96525 14.08469,0.92737 14.04263,0.90669 14.02465,0.89435 14.00477,0.88856 Z"
   id="path9"
   style="display:inline" />
	<path
   fill="#82d3f5"
   d="M 19.72733,5.58896 C 19.49084,5.51987 19.29942,5.45997 19.10585,5.40808 18.18145,5.16025 17.24391,4.98794 16.28846,4.91572 16.22037,4.91057 16.14565,4.87028 16.09172,4.82517 15.96294,4.71744 15.97554,4.62344 16.12074,4.537 c 0.5067,-0.30164 1.03482,-0.55794 1.59631,-0.74125 0.17749,-0.05795 0.35686,-0.11148 0.53816,-0.15549 0.04516,-0.01096 0.12042,0.00596 0.1494,0.03874 0.504,0.57008 0.94659,1.18347 1.32272,1.90996 z"
   id="path10"
   style="display:inline" />
	<path
   fill="#739DD2"
   d="M38.23888,8.62034c-0.40827,0.00193-0.71056-0.28846-0.71379-0.68571   c-0.00325-0.3985,0.29327-0.69228,0.70272-0.69625c0.42551-0.00412,0.72496,0.27598,0.73104,0.6838   C38.9648,8.32161,38.65878,8.61836,38.23888,8.62034z"
   id="path11" />
	<path
   fill="#6490cb"
   d="M 15.4004,1.42447 C 15.26716,1.38031 15.12644,1.2849 15.00235,1.30307 c -0.2264,0.03316 -0.44293,0.13362 -0.66358,0.206 l -10e-6,8e-5 C 14.0287,1.62895 13.71862,1.74868 13.40854,1.86842 13.11865,2.00596 12.82875,2.14351 12.53885,2.28106 12.24887,2.4407 11.95888,2.60035 11.66889,2.75999 11.37874,2.94405 11.08858,3.1281 10.79843,3.31216 10.52896,3.50349 9.19964,4.52057 8.8119,4.84663 8.75867,4.89139 8.74936,4.98839 8.71972,5.06121 8.79173,5.07897 8.86746,5.12098 8.93514,5.11059 9.40898,5.03785 9.88116,4.95428 10.35387,4.87422 10.42179,4.86879 10.48994,4.86547 10.55758,4.85766 10.82237,4.82705 11.08699,4.79503 11.35167,4.76353 11.69476,4.74318 12.03785,4.72282 12.38093,4.70244 12.71307,4.68836 13.06772,4.78124 13.34359,4.49985 13.61582,4.34347 13.88805,4.18712 14.16028,4.03078 14.42369,3.90867 14.6871,3.78655 14.95052,3.66448 15.04764,3.62186 15.14597,3.5818 15.24166,3.5362 15.47999,3.42263 15.71712,3.30653 15.95474,3.19145 16.31508,3.04645 16.6757,2.90213 17.03556,2.75593 17.12136,2.72107 17.20461,2.67993 17.31385,2.63044 16.69864,2.15326 16.0819,1.7381 15.4004,1.42447 Z"
   id="path12"
   style="display:inline" />
</g>
<g
   id="g13">
	<linearGradient
   id="SVGID_1_"
   gradientUnits="userSpaceOnUse"
   x1="12.66381"
   y1="5.60006"
   x2="7.96181"
   y2="20.88154">
		<stop
   offset="0"
   style="stop-color:#7EA4D7"
   id="stop12" />
		<stop
   offset="1"
   style="stop-color:#0F6CB6"
   id="stop13" />
	</linearGradient>
	<path
   fill="url(#SVGID_1_)"
   d="m 20.7245,8.75 c 0,-0.07001 -0.0099,-0.14001 -0.01996,-0.21002 C 20.65449,8.32001 20.6045,8.09998 20.54451,7.88001 20.50453,7.70002 20.46455,7.51996 20.41451,7.32996 20.3445,7.09998 20.26454,6.85999 20.18452,6.63 20.13453,6.51995 20.1045,6.35998 20.02455,6.32 19.80452,6.20995 19.56453,6.14996 19.33455,6.07 18.96455,5.96996 18.60451,5.88 18.23451,5.77996 17.83455,5.70995 17.43452,5.60998 17.02455,5.57 16.1645,5.48998 15.30452,5.44 14.44453,5.38 c -0.04999,0 -0.10999,0.01001 -0.16998,0.01996 -0.36005,0.01001 -0.73004,0.01001 -1.09003,0.01001 -0.28003,0.02002 -0.56,0.04004 -0.84003,0.04999 C 12.11451,5.47998 11.87452,5.48999 11.64454,5.51001 11.48451,5.51996 11.31452,5.53998 11.15449,5.54999 10.93452,5.57996 10.70454,5.59998 10.48451,5.63 10.11451,5.67999 9.75453,5.71997 9.39454,5.76995 9.06453,5.82001 8.74452,5.87 8.42451,5.91998 8.20454,5.96997 7.9745,6.01001 7.75453,6.04998 7.6545,6.07001 7.55452,6.07996 7.45454,6.09998 7.26454,6.14997 7.08454,6.15998 6.9145,6.04999 6.86452,5.96997 6.82454,5.88 6.77455,5.78998 6.75453,5.58997 6.7245,5.38 6.70454,5.16998 6.63453,4.28998 6.65449,3.41998 6.9145,2.57 7.0345,2.14996 7.2245,1.76 7.37452,1.35998 6.9045,1.57001 6.42452,1.82996 5.98451,2.14996 5.42451,2.51001 4.93452,2.92999 4.48451,3.40997 2.63454,5.35999 1.74452,7.69 1.83455,10.38 c 0.03998,1.40997 0.39996,2.75 1.06,4.01001 1.94995,3.71997 6.07001,5.75 10.17999,4.92999 3.51001,-0.70001 5.89001,-2.79004 7.17999,-6.12 0.17999,-0.47003 0.26001,-0.97003 0.39001,-1.46002 0.04999,-0.39001 0.09998,-0.77002 0.13995,-1.16003 C 20.7945,10.24999 20.7945,9.91998 20.7945,9.58996 20.77455,9.31 20.75453,9.02997 20.7245,8.75 Z"
   id="path13"
   inkscape:label="path13"
   style="display:inline;fill-rule:evenodd"
   sodipodi:nodetypes="ccccccccccccccccccccccccccccccccccc" />
<path
   fill="url(#SVGID_1_)"
   d="m 7.68453,10.73999 c -0.07001,-0.25 -0.19,-0.48999 -0.39001,-0.66003 -0.5,-0.45996 -1.25,-0.33997 -1.63,0.25 -0.26996,0.39001 -0.33997,0.83002 -0.32996,1.28003 0,0.06 0,0.10999 0.00995,0.15997 0.01001,0.45001 0.08002,0.88 0.34003,1.26001 0.19,0.29004 0.46997,0.46002 0.83002,0.47003 0.57996,0.01996 1,-0.29004 1.16998,-0.90002 0.16997,-0.62 0.16997,-1.23999 -1e-5,-1.85999 z m 0,0 c -0.07001,-0.25 -0.19,-0.48999 -0.39001,-0.66003 -0.5,-0.45996 -1.25,-0.33997 -1.63,0.25 -0.26996,0.39001 -0.33997,0.83002 -0.32996,1.28003 0,0.06 0,0.10999 0.00995,0.15997 0.01001,0.45001 0.08002,0.88 0.34003,1.26001 0.19,0.29004 0.46997,0.46002 0.83002,0.47003 0.57996,0.01996 1,-0.29004 1.16998,-0.90002 0.16997,-0.62 0.16997,-1.23999 -1e-5,-1.85999 z m 0,0 c -0.07001,-0.25 -0.19,-0.48999 -0.39001,-0.66003 -0.5,-0.45996 -1.25,-0.33997 -1.63,0.25 -0.26996,0.39001 -0.33997,0.83002 -0.32996,1.28003 0,0.06 0,0.10999 0.00995,0.15997 0.01001,0.45001 0.08002,0.88 0.34003,1.26001 0.19,0.29004 0.46997,0.46002 0.83002,0.47003 0.57996,0.01996 1,-0.29004 1.16998,-0.90002 0.16997,-0.62 0.16997,-1.23999 -1e-5,-1.85999 z m 0,0 c -0.07001,-0.25 -0.19,-0.48999 -0.39001,-0.66003 -0.5,-0.45996 -1.25,-0.33997 -1.63,0.25 -0.26996,0.39001 -0.33997,0.83002 -0.32996,1.28003 0,0.06 0,0.10999 0.00995,0.15997 0.01001,0.45001 0.08002,0.88 0.34003,1.26001 0.19,0.29004 0.46997,0.46002 0.83002,0.47003 0.57996,0.01996 1,-0.29004 1.16998,-0.90002 0.16997,-0.62 0.16997,-1.23999 -1e-5,-1.85999 z m 0.98998,2.40002 c -0.28997,0.81995 -0.91998,1.23999 -1.76,1.33997 -0.46997,0.06 -0.94,0.03003 -1.38,-0.16998 C 4.86452,14 4.48451,13.45001 4.33455,12.76001 4.2245,12.25 4.19453,11.72998 4.17452,11.20996 c -0.02997,-0.94 -0.01001,-1.85999 0,-2.77997 C 4.17452,8 4.24452,7.58997 4.52455,7.25 4.64455,7.09998 4.82454,6.95996 4.99452,6.87 5.19453,6.76001 5.29451,6.82996 5.29451,7.06 V 9.18 C 5.58455,9.05 5.86452,8.88001 6.1545,8.8 c 0.90002,-0.21003 2.05004,0.14 2.51001,1.34001 0.36004,0.98999 0.35003,2.00995 0.01,3 z m 8.16999,1.25 c -0.17999,0.13995 -0.37994,0.14996 -0.57996,0.03998 -0.19,-0.10004 -0.29004,-0.26001 -0.29004,-0.48999 v -2.37 c -0.01,-0.32001 -0.02997,-0.64001 -0.09998,-0.94 -0.15002,-0.65002 -0.62,-0.92999 -1.27002,-0.79004 -0.28998,0.07001 -0.52997,0.23999 -0.62,0.52002 -0.08002,0.23999 -0.13,0.51001 -0.13,0.77002 -0.01996,0.92999 -0.01001,1.83997 -0.01001,2.76996 0,0.41003 -0.34998,0.67999 -0.72998,0.58002 C 12.85451,14.39996 12.70454,14.19 12.70454,13.88 v -2.84003 c 0,-0.28998 -0.04004,-0.54999 -0.19,-0.78998 -0.21002,-0.35999 -0.54999,-0.46002 -0.94,-0.44 -0.35004,0.01996 -0.60999,0.17999 -0.77002,0.48999 -0.16998,0.34003 -0.20001,0.71002 -0.21002,1.07001 V 13.88 c 0,0.33997 -0.16998,0.54999 -0.45996,0.60999 C 9.7845,14.56 9.4745,14.31 9.4745,13.95996 c -0.00995,-1 -0.01996,-2.00995 0,-3.00995 0.02002,-0.73004 0.26001,-1.38 0.89001,-1.84003 0.71002,-0.51001 2.07001,-0.59003 2.85999,0.25 0.01001,0.02002 0.03003,0.03003 0.06,0.06 0.06,-0.07001 0.11005,-0.12 0.17004,-0.15997 0.66998,-0.58002 1.42999,-0.65002 2.23999,-0.39001 0.77002,0.23999 1.16998,0.83002 1.33002,1.59998 0.04999,0.23999 0.06995,0.48004 0.06995,0.72003 0.01001,0.88995 0,1.78998 0.01001,2.69 0,0.20996 -0.07001,0.38995 -0.26001,0.51 z m 2.09002,-1.44 c 0,0.39996 -0.09003,0.77997 -0.33002,1.09998 -0.13995,0.15997 -0.31,0.29999 -0.48999,0.40002 -0.21002,0.12 -0.32001,0.02997 -0.32001,-0.21002 v -2.46002 h 0.01001 v -2.44 c 0,-0.25 0.09003,-0.44 0.32001,-0.56 0.21002,-0.08997 0.40997,-0.06 0.59998,0.08002 0.14001,0.10999 0.21002,0.26001 0.21002,0.44 0,1.21997 0.01001,2.44 0,3.65002 z m -0.69,-4.49005 c -0.38,0 -0.67999,-0.31 -0.67999,-0.67999 0,-0.38 0.29999,-0.69 0.67999,-0.69 0.38,0 0.69,0.31 0.69,0.69 0,0.36999 -0.30999,0.67999 -0.69,0.67999 z m -10.95001,1.62 c -0.5,-0.45996 -1.25,-0.33997 -1.63,0.25 -0.26996,0.39001 -0.33997,0.83002 -0.32996,1.28003 0,0.06 0,0.10999 0.00995,0.15997 0.01001,0.45001 0.08002,0.88 0.34003,1.26001 0.19,0.29004 0.46997,0.46002 0.83002,0.47003 0.57996,0.01996 1,-0.29004 1.16998,-0.90002 0.16998,-0.62 0.16998,-1.23999 0,-1.85999 C 7.61452,10.48999 7.49452,10.25 7.29451,10.07996 Z m 0.39002,0.66003 c -0.07001,-0.25 -0.19,-0.48999 -0.39001,-0.66003 -0.5,-0.45996 -1.25,-0.33997 -1.63,0.25 -0.26996,0.39001 -0.33997,0.83002 -0.32996,1.28003 0,0.06 0,0.10999 0.00995,0.15997 0.01001,0.45001 0.08002,0.88 0.34003,1.26001 0.19,0.29004 0.46997,0.46002 0.83002,0.47003 0.57996,0.01996 1,-0.29004 1.16998,-0.90002 0.16997,-0.62 0.16997,-1.23999 -1e-5,-1.85999 z m 0,0 c -0.07001,-0.25 -0.19,-0.48999 -0.39001,-0.66003 -0.5,-0.45996 -1.25,-0.33997 -1.63,0.25 -0.26996,0.39001 -0.33997,0.83002 -0.32996,1.28003 0,0.06 0,0.10999 0.00995,0.15997 0.01001,0.45001 0.08002,0.88 0.34003,1.26001 0.19,0.29004 0.46997,0.46002 0.83002,0.47003 0.57996,0.01996 1,-0.29004 1.16998,-0.90002 0.16997,-0.62 0.16997,-1.23999 -1e-5,-1.85999 z"
   id="path55"
   inkscape:label="path55"
   style="display:inline;fill:#ffffff;fill-opacity:1;fill-rule:evenodd"
   sodipodi:nodetypes="ccccccccccccccccccccccccccccccccccccccccccccsccccccscccccscssccccscccccccccccccccsccsccscsssssccccccccccccccccccccccccccc" /></g>
</svg>
