<?xml version="1.0" encoding="UTF-8" standalone="no"?>
<!-- Created with Inkscape (http://www.inkscape.org/) -->

<svg
   version="1.1"
   id="svg1"
   width="334.51096"
   height="47.509998"
   viewBox="0 0 334.51096 47.509998"
   sodipodi:docname="BYOld.svg"
   inkscape:version="1.4.2 (f4327f4, 2025-05-13)"
   xmlns:inkscape="http://www.inkscape.org/namespaces/inkscape"
   xmlns:sodipodi="http://sodipodi.sourceforge.net/DTD/sodipodi-0.dtd"
   xmlns="http://www.w3.org/2000/svg"
   xmlns:svg="http://www.w3.org/2000/svg">
  <defs
     id="defs1" />
  <sodipodi:namedview
     id="namedview1"
     pagecolor="#ffffff"
     bordercolor="#000000"
     borderopacity="0.25"
     inkscape:showpageshadow="2"
     inkscape:pageopacity="0.0"
     inkscape:pagecheckerboard="0"
     inkscape:deskcolor="#d1d1d1"
     inkscape:zoom="1"
     inkscape:cx="199.5"
     inkscape:cy="-192.5"
     inkscape:window-width="1188"
     inkscape:window-height="981"
     inkscape:window-x="-8"
     inkscape:window-y="0"
     inkscape:window-maximized="0"
     inkscape:current-layer="svg1" />
  <path
     style="display:inline;fill:#2c2f57;fill-opacity:1;stroke:none;stroke-width:0.5;stroke-dasharray:none;stroke-opacity:1"
     d="m 295.79339,38.413294 c -0.67526,4.38464 2.2473,7.628553 6.73683,8.586535 4.55843,0.972685 10.24997,0.47289 14.65654,-2.5 v 2.5 h 13.53179 l 0.0513,-4.132096 c 0.073,-5.881636 5.79643,-21.325422 2.94584,-25.694369 -2.85059,-4.368947 -11.78874,-5.378922 -22.03824,-4.26351 -7.25611,0.789654 -11.13267,4.823034 -11.85657,11.322391 l 12.74027,-0.134124 c 0.0521,-0.156358 1.54003,-3.444795 2.93321,-4.043065 0.87283,-0.374816 3.81949,-1.007786 5.09926,-0.126932 1.08394,0.746067 1.88992,2.153095 1.74722,3.593497 -0.20444,2.063684 -5.69863,2.168494 -9.5918,2.608797 -12.06096,1.364053 -16.71298,4.094593 -16.95566,12.282876 z m 24.38579,-5.952622 c -1.91345,9.806828 -11.76773,8.070045 -11.57168,5.26991 -1.11891,-5.509952 11.96327,-7.276891 11.57168,-5.26991 z"
     id="path26" />
  <path
     style="display:inline;fill:#2c2f57;fill-opacity:1;stroke:none;stroke-width:0.5;stroke-dasharray:none;stroke-opacity:1"
     d="M 133.18676,46.999829 140.18706,14 h -13.569 l -7.4313,32.999829 z"
     id="path25" />
  <path
     style="display:inline;fill:#2c2f57;fill-opacity:1;stroke:none;stroke-width:0.5;stroke-dasharray:none;stroke-opacity:1"
     d="m 218.40392,17.651302 0.059,-3.651473 h -13.27616 l -7,33 h 13.44936 l 4.03902,-18.225558 c 1.7153,-7.740081 12.55674,-8.687406 10.69313,0.394501 l -3.81958,17.831057 h 12.63807 l 4.9564,-24.791056 c 1.34835,-6.744197 -6.15162,-9.20985 -13.73924,-8.603377 -2.91949,0.233353 -5.41562,2.725475 -8,4.045905 z"
     id="path24" />
  <path
     style="display:inline;fill:#2c2f57;fill-opacity:1;stroke:none;stroke-width:0.5;stroke-dasharray:none;stroke-opacity:1"
     d="m 258.1368,17.618502 0.059,-3.651472 h -13.27614 l -7,33.032799 h 13.44936 l 4.03902,-18.258357 c 1.71236,-7.740732 12.55674,-8.687406 10.69313,0.394501 l -3.81958,17.863856 h 12.63807 l 4.9564,-24.823855 c 1.34663,-6.744538 -6.15162,-9.20985 -13.73924,-8.603377 -2.91949,0.233353 -5.41562,2.725475 -8,4.045905 z"
     id="path23" />
  <path
     style="display:inline;fill:#2c2f57;fill-opacity:1;stroke:none;stroke-width:0.5;stroke-dasharray:none;stroke-opacity:1"
     d="m 113.44268,17.460489 c 0,0 0.25995,-3.43777 -0.97343,-3.46066 h -11.05863 l -7.223861,33 h 12.870271 l 4.66977,-18.729623 c 1.88534,-5.02414 5.7069,-4.175245 10.25806,-4.270377 l 1.92039,-10 h -4.69149 c -2.11023,-0.0085 -2.9707,-0.183359 -5.77108,3.460656 z"
     id="path22" />
  <path
     style="display:inline;fill:#2c2f57;fill-opacity:1;stroke:none;stroke-width:0.5;stroke-dasharray:none;stroke-opacity:1"
     d="m 158.32576,20.999829 h 5.861 l 1.543,-7 h -5.862 l 2.204,-9.9999995 -12.753,-0.154 -2.238,10.1539995 h -5.351 l -1.543,7 h 5.352 l -3.267,14.823 c -1.1472,5.205086 -0.89011,11.177 4.13759,11.177 h 11.29641 l 1.62725,-8.1325 c -3.2101,-0.01297 -4.80579,-1.077018 -4.15949,-3.933824 z"
     id="path21" />
  <path
     style="display:inline;fill:#2c2f57;fill-opacity:1;stroke:none;stroke-width:0.5;stroke-dasharray:none;stroke-opacity:1"
     d="m 161.26163,38.822587 c -0.67526,4.38464 2.2473,7.21926 6.73683,8.177242 4.55843,0.972685 10.28173,0.72289 14.6883,-2.25 v 2.25 h 13.5 v -3.722803 c 0,-5.88209 5.84773,-21.325422 2.99714,-25.694369 -2.85059,-4.368947 -11.78874,-5.378922 -22.03824,-4.26351 -7.25611,0.789654 -11.13267,4.823034 -11.85657,11.322391 l 12.74027,-0.134124 c 0.0521,-0.156358 1.54003,-3.444795 2.93321,-4.043065 0.87283,-0.374816 3.81949,-1.007786 5.09926,-0.126932 1.08394,0.746067 1.88992,2.153095 1.74722,3.593497 -0.20444,2.063684 -5.69863,2.168494 -9.5918,2.608797 -12.06096,1.364053 -16.71298,4.094593 -16.95566,12.282876 z m 24.38579,-5.952622 c -1.91345,9.806828 -11.76773,8.070045 -11.57168,5.26991 -1.11891,-5.509952 11.96327,-7.276891 11.57168,-5.26991 z"
     id="path20" />
  <path
     style="display:inline;fill:#2c2f57;fill-opacity:1;stroke:none;stroke-width:0.5;stroke-dasharray:none;stroke-opacity:1"
     d="M 129.70306,4.9652567e-7 127.49906,10 h 13.569 L 143.27206,4.9652567e-7 Z"
     id="path19" />
  <path
     style="display:inline;fill:#2c2f57;fill-opacity:1;stroke:none;stroke-width:0.5;stroke-dasharray:none;stroke-opacity:1"
     d="m 50.186756,46.999829 c 0,0 24.016263,0.15309 30.31425,0 12.330533,-0.299728 21.172874,-17.01679 9.10666,-23.855233 6.535023,-3.47411 7.446043,-6.69629 7.608053,-11.601948 C 97.377729,6.6369905 92.985069,1.0813745 88.835686,0.9911085 L 60.55245,0.3758295 Z m 20,-28 1.793,-8.135405 6.445778,4.05e-4 c 2.169292,1.36e-4 2.259912,-0.0021 3.723902,0.430497 3.12582,0.923753 2.97218,5.253745 -0.50122,7.198482 -1.44365,0.808291 -2.920476,0.506021 -5.013872,0.506021 z m -4,17 1.891,-8.579086 7.844,8.6e-5 c 2.208695,2.4e-5 1.711411,-0.03878 3.47899,0.475823 3.53516,1.029196 3.70832,5.439046 0.3488,7.353462 -1.633278,0.783509 -1.383831,0.749715 -3.827569,0.749715 z"
     id="path5" />
  <g
     id="g16"
     transform="matrix(0.91717332,0,0,0.91717332,-9.4168964,-11.095203)">
    <path
       style="display:inline;fill:#2c2f57;fill-opacity:1;stroke:none;stroke-width:0.5;stroke-dasharray:none;stroke-opacity:1"
       d="M 48.870136,49.664466 C 34.61516,49.54565 35.772181,36.909526 34.46066,27.948816 c 0.766925,-0.695734 17.093078,9.983523 14.479735,21.610979 m 0,0 C 58.37732,34.501775 46.611777,17.741515 32,13.122732 c -7.656645,-2.420266 -13.059323,-0.12913 -19.46967,2.451792 4.174374,4.125743 6.503138,8.219668 7.880564,11.154802 0.270119,0.575592 -2.075239,0.251644 -3.418776,3.590987 -1.479006,3.676052 -3.616889,8.765825 -6.724815,7.697015 l 0.04905,1.51075 c 3.934183,0.805006 5.090921,2.190509 2.555425,5.961412 2.010264,0.87092 2.316328,3.017302 2.166794,7.230423 -0.131727,3.711425 6.762138,1.036052 8.934472,1.969426 2.154387,0.95491 2.23162,4.349308 1.231698,9.208292 6.27928,-0.325118 10.589657,-1.659942 14.142132,-3.893824 0,0 1.365903,-1.729604 0.936548,-1.744078 C 37.77049,58.175018 36.060655,55.565697 37,55 c 2.381779,-1.434366 7.828222,0.225891 11.869767,-5.335534 z"
       id="path4"
       sodipodi:nodetypes="ccccscsscccscccsscc" />
    <path
       id="path16"
       style="fill:none;fill-opacity:1;stroke:#ffffff;stroke-width:0.4;stroke-dasharray:none;stroke-opacity:1"
       d="m 36.592776,55.596271 c 0,0 -2.371712,-0.383325 -3.447146,-0.883884 -0.919111,-0.427799 -1.623091,-1.217999 -2.474873,-1.767767 -0.887369,-0.572737 -2.740039,-1.59099 -2.740039,-1.59099 M 14.318912,41.807688 c 0,0 2.477664,0.396389 3.712311,0.618719 1.83114,0.329744 3.710224,0.486704 5.480077,1.06066 2.720824,0.882351 5.347885,2.115574 7.778175,3.623922 1.196557,0.742638 1.806125,2.515836 3.623922,2.563262 4.365522,0.113895 4.666546,-0.182943 6.805903,-0.53033 0.405063,-0.06577 1.149049,-0.441942 1.149049,-0.441942" />
  </g>
  <path
     style="display:inline;fill:#2c2f57;fill-opacity:1;stroke:none;stroke-width:0.5;stroke-dasharray:none;stroke-opacity:1"
     d="M 291.66707,46.999829 298.66737,14 h -13.569 l -7.4313,32.999829 z"
     id="path27" />
  <path
     style="display:inline;fill:#2c2f57;fill-opacity:1;stroke:none;stroke-width:0.5;stroke-dasharray:none;stroke-opacity:1"
     d="M 288.18337,4.9652567e-7 285.97937,10 h 13.569 L 301.75237,4.9652567e-7 Z"
     id="path28" />
</svg>
