<?xml version="1.0" encoding="UTF-8" standalone="no"?>
<svg
   width="2205.8767"
   height="359.36554"
   viewBox="0 0 170.07839 27.707946"
   version="1.1"
   id="svg7"
   sodipodi:docname="eurowings-1.svg"
   inkscape:version="1.4.2 (f4327f4, 2025-05-13)"
   xmlns:inkscape="http://www.inkscape.org/namespaces/inkscape"
   xmlns:sodipodi="http://sodipodi.sourceforge.net/DTD/sodipodi-0.dtd"
   xmlns="http://www.w3.org/2000/svg"
   xmlns:svg="http://www.w3.org/2000/svg">
  <defs
     id="defs7" />
  <sodipodi:namedview
     id="namedview7"
     pagecolor="#ffffff"
     bordercolor="#000000"
     borderopacity="0.25"
     inkscape:showpageshadow="2"
     inkscape:pageopacity="0.0"
     inkscape:pagecheckerboard="0"
     inkscape:deskcolor="#d1d1d1"
     showgrid="false"
     inkscape:zoom="0.35355339"
     inkscape:cx="569.92806"
     inkscape:cy="224.85996"
     inkscape:window-width="1920"
     inkscape:window-height="991"
     inkscape:window-x="-9"
     inkscape:window-y="-9"
     inkscape:window-maximized="1"
     inkscape:current-layer="svg7" />
  <g
     fill-rule="evenodd"
     clip-rule="evenodd"
     id="g7"
     transform="translate(-11.339606,-82.525054)">
    <path
       id="path5"
       d="m 58.777,93.866 c -2.571,0.068 -5.437,0.034 -8.131,0 1.064629,-2.060391 3.188256,-3.599461 5.266,-3.73 1.355,-0.032 2.706,0.204 3.229,1.39 0.134794,0.516428 0.127216,1.519919 -0.364,2.34 z m 3.251,8.855 c -0.489,-0.969 -0.446,-2.281 -0.008,-3.459 1.580582,-3.920765 3.160436,-7.841824 4.74,-11.763 h 3.321 l -0.116,0.346 c -1.352759,3.355426 -2.70316,6.711801 -4.054,10.068 -0.213,1.037 -0.869,2.527 0.077,3.184 1.339,0.588 3.057,0.172 4.277,-0.9 1.55,-1.453 2.624,-3.217 3.397,-5.05 1.017139,-2.539214 2.03782,-5.077006 3.058,-7.615 l 0.181,-0.068 3.144,0.035 -0.326,0.864 -6.303,15.571 -3.05,0.033 1.076,-2.768 c -1.169,1.217 -2.601,2.271 -4.16,2.8 -0.924,0.313 -1.893,0.442 -2.879,0.315 -0.508004,-0.0691 -1.843598,-0.36528 -2.375,-1.593 z m 39.687,-2.524 c 2.49288,-3.2402 3.9491,-7.216729 2.844,-10.312 -0.30095,-0.708363 -0.79251,-1.319351 -1.42,-1.765 -2.037,-1.521 -5.555,-1.106 -7.942,0.14 -1.69,0.853 -3.068,2.091 -4.1245,3.5515 -1.6435,2.2685 -2.5145,5.0745 -2.6035,7.8325 -0.0039,2.4357 1.463428,4.10795 3.146,4.53 3.645378,0.85704 7.560704,-0.792 10.1,-3.977 z m -0.197,-8.34 c 0.637,2.146 -0.568,4.603 -1.799,6.505 -1.418,2.008 -3.711,3.322 -6.085,2.977 -0.88,-0.139 -1.63,-0.729 -1.856,-1.592 -0.419,-1.971 0.5,-4.118 1.371,-5.917 0.388,-0.751 0.979,-1.45 1.6765,-2.019 1.0075,-0.813 2.2405,-1.353 3.4265,-1.374 1.87152,0 2.76737,0.339641 3.266,1.42 z m 13.542,12.142 2.35,-11.519 c 0.10586,-0.491661 0.17967,-1.075737 0.299,-1.661 -0.61421,0.959244 -1.23258,1.915819 -1.85,2.873 -2.14832,3.447467 -4.29547,6.89566 -6.444,10.343 h -4.291 c 0.0269,-0.2871 0.0558,-0.57402 0.084,-0.861 1.01763,-5.202537 2.03581,-10.404964 3.056,-15.607 1.11855,-0.0629 2.23939,-0.07458 3.359,-0.035 -0.90606,4.072099 -1.8154,8.143468 -2.724,12.215 l 1.787,-2.664 c 2.0193,-3.171173 4.0367,-6.343555 6.054,-9.516 1.285,-0.035 2.912,-0.035 4.33,-0.035 l -0.502,2.63 c -0.63217,3.159763 -1.26517,6.320079 -1.898,9.481 l -0.014,0.104 0.334,-0.416 c 1.6821,-2.745011 3.3653,-5.490975 5.048,-8.234 l 2.188,-3.565 h 3.564 l -10.583,16.503 h -4.154 l 0.008,-0.037 m 48.255,-12.693 c -0.508,-0.831 -1.48,-1.074 -2.561,-1.004 -3.62383,0.724767 -5.13076,4.918686 -5.595,6.433 -0.531,1.35 -1.031,3.219 0.006,4.223 1.086,0.656 2.67,0.207 3.824,-0.381 2.548,-1.42 3.464,-4.049 4.318,-6.471 0.31691,-0.975703 0.58258,-2.046816 0.008,-2.8 z m -26.101,-7.198 c 0.059,0.588 -0.115,1.35 -0.686,1.73 -0.922,0.656 -2.262,0.83 -3.168,0.381 -0.416,-0.244 -0.527,-0.693 -0.461,-1.177 0.066,-0.486 0.367,-0.901 0.723,-1.211 0.984,-0.623 2.447,-0.691 3.305,-0.139 z m -59.791,18.374 4.221,-10.67 1.679,-4.244 c 0.952,-0.138 2.045,-0.035 3.055,-0.069 -0.278,1.003 -0.762,2.007 -1.143,3.01 1.371,-1.66 3.189,-3.807 5.505,-3.287 0.292,0.137 0.604,0.137 0.813,0.379 -0.47,1.143 -0.809,2.353 -1.373,3.426 -0.726,-0.519 -1.996,-0.589 -2.948,-0.208 -0.56,0.27 -1.032,0.605 -1.44,0.9915 -1.418,1.3425 -2.027,3.2675 -2.772,4.9625 -0.930653,2.272833 -2.823613,7.11834 -2.908,7.263 h -3.252 c 0.191781,-0.51633 0.37604,-1.0358 0.563,-1.554 z m 61.772,-14.914 h 3.186 c -0.352,1.037 -0.83,2.007 -1.182,3.044 h 0.068 c 2.076,-2.249 4.881,-3.77 7.803,-3.389 1.02,0.137 1.932,0.796 2.258,1.695 0.32401,0.859414 0.16497,1.86538 -0.39,3.562 -1.6679,3.764065 -2.90782,7.83064 -4.62942,11.556 H 143.012 c 1.5009,-4.0024 3.02381,-7.541033 4.23,-10.829 0.25266,-0.772946 0.54283,-1.776358 0.044,-2.316 -1.166,-0.831 -3.162,-0.416 -4.453,0.415 -2.20892,1.492944 -3.33044,3.94683 -4.085,5.777 -0.90828,2.310326 -1.85189,4.60778 -2.754,6.92 l -3.293,0.033 c 2.08249,-5.512705 4.31677,-10.986354 6.495,-16.468 z m 26.772,15.35 c 0.449,-1.125 0.828,-1.992 1.256,-3.055 1.156,1.398 2.842,2.111 4.875,1.771 1.139,-0.393 2.67,-0.895 2.863,-2.289 0.09,-1.424 -1.543,-1.703 -2.5,-2.193 -1.545,-0.516 -2.859,-1.68 -2.947,-3.409 -0.14121,-1.935658 0.914,-3.831051 2.983,-5.206 2.648,-1.844 6.834,-1.917 8.807,0.389 l 0.113,0.152 c -0.80707,2.27833 -0.0795,0.213541 -1.211,3.292 -0.90278,-1.112246 -2.2954,-2.146359 -4.285,-1.924 -1.4164,0.189916 -2.49803,0.901655 -2.928,1.846 -0.107,0.443 -0.08,0.917 0.166,1.253 1.576,1.33 4.408,1.312 4.988,3.744 0.406,2.027 -0.406,4.215 -2.08,5.564 -2.08649,1.70946 -5.33596,2.41692 -7.964,1.392 -0.46565,-0.19064 -1.46713,-0.65191 -2.136,-1.327 z m -117.803,1.188 c -1.338411,-0.45345 -2.767248,-2.02022 -2.626,-4.202 0.318955,-4.292251 2.273549,-7.355067 3.66,-9.021 2.325,-2.746 5.667,-4.374 9.125,-3.865 1.394,0.169 2.663,0.746 3.327,1.933 1.17514,2.355634 -0.364026,5.430944 -1.551,7.8 l -0.667,0.066 H 49.364 c -0.491,1.289 -0.8,2.984 0.059,4.002 1.466,1.39 4.345,0.847 6.173,-0.102 0.968,-0.475 1.79,-1.152 2.681,-1.832 -0.296,1.119 -0.873,2.274 -1.279,3.426 -2.476975,2.03057 -5.962541,2.77911 -8.833,1.795 z m 80.934,-0.07 -3.289,0.037 c 2.14726,-5.562335 4.4173,-11.079675 6.653,-16.608 l 3.346,-0.173 c -2.16299,5.600996 -4.43531,11.180966 -6.71,16.744 z m 25.584,5.916 c -2.232,0.141 -4.102,-0.344 -5.473,-1.693 0.88942,-2.31764 0.94615,-2.46439 1.0153,-2.62651 0.93808,1.09422 2.68118,2.06505 5.1887,1.55451 2.62607,-0.48826 4.25807,-3.12442 5.057,-5.572 -1.36038,1.21958 -3.90183,2.95924 -6.907,2.421 -1.11367,-0.24158 -2.28636,-1.55488 -2.289,-3.458 -0.049,-2.664 1.176,-5.016 2.129,-7.404 0.60648,-1.191685 3.29436,-5.969201 7.446,-6.056 1.699,-0.034 3.098,0.623 3.914,1.973 0.154,0.381 0.275,0.762 0.361,1.141 l 0.99,-2.664 c 0.982,-0.104 2.119,-0.069 3.049,-0.035 l -0.047,0.347 c -2.29071,5.675927 -4.59674,11.345682 -6.884,17.023 -1.35097,2.84397 -4.37105,4.87333 -7.55,5.049 z"
       sodipodi:nodetypes="cccccccccccccccccccccccccccccccccccccccccccccccccccccccccccccccccccccccccccccccccccccccccccccccccccccccccccccccccccccccccccccccccccccccccccccccccccccccccccccc" />
    <path
       d="m 40.111,84.35 c -2.205,0.248 -4.355,0.75 -6.288,1.636 -2.404,0.214 -4.756,0.688 -7.011,1.262 l 1.089,-1.321 c -0.208,-0.642 -0.869,-0.804 -1.466,-0.99 -2.134,-0.477 -4.524,0.019 -6.636,0.413 -0.07,-0.125 -0.057,-0.28 -0.087,-0.43 4.496,-1.411 9.403,-2.82 14.371,-2.275 2.139,0.168 4.213,0.713 6.028,1.705 z M 29.59,88.21 c 0,0 -7.277,6.368 -9.338,10.239 -0.261,0.434 -0.585,1.006 -0.884,1.5 -0.114,-0.104 -0.332,-0.092 -0.36,-0.221 1.013,-3.098 4.686,-8.535 4.686,-8.535 0,0 1.259,-1.72 1.937,-2.516 1.183,-0.258 2.718,-0.488 3.959,-0.467 z"
       fill="#c92233"
       id="path6" />
    <path
       d="m 45.155,87.608 c -6.625,0.737 -12.251,4.374 -16.357,9.277 -1.763,1.961 -3.039,4.133 -4.225,6.32 -0.13,0.029 -0.287,-0.094 -0.4,-0.152 1.232,-3.84 3.563,-7.002 5.93,-10.273 0.933,-1.241 1.937,-2.401 2.913,-3.625 -0.261,-0.442 -0.809,-0.543 -1.25,-0.693 -3.639,-0.699 -7.297,0.318 -10.387,1.824 -4.104,2.06 -8.434,5.563 -9.022,10.5 -0.25,2.662 1.175,4.996 3.197,6.322 5.075,3.229 12.466,2.619 17.812,0.174 2.963,-1.355 4.201,-2.355 6.139,-3.889 l 0.6,0.508 c -4.874,4.02 -9.137,6.199 -16.639,6.332 -4.608,-0.129 -9.388,-1.463 -11.455,-5.717 -1.718,-3.795 0.112,-7.799 2.658,-10.557 4.4,-4.659 10.697,-6.702 17.063,-7.795 4.138,-0.586 8.753,-0.699 12.466,0.996 0.262,0.117 0.644,0.29 0.957,0.448 z"
       fill="#348cc9"
       id="path7" />
  </g>
</svg>
