<?xml version="1.0" encoding="UTF-8" standalone="no"?>
<svg
   width="2260.5674"
   height="515.60596"
   viewBox="0 0 174.29517 39.754457"
   version="1.1"
   id="svg7"
   sodipodi:docname="FCA.svg"
   inkscape:version="1.4.2 (f4327f4, 2025-05-13)"
   xmlns:inkscape="http://www.inkscape.org/namespaces/inkscape"
   xmlns:sodipodi="http://sodipodi.sourceforge.net/DTD/sodipodi-0.dtd"
   xmlns="http://www.w3.org/2000/svg"
   xmlns:svg="http://www.w3.org/2000/svg">
  <defs
     id="defs7" />
  <sodipodi:namedview
     id="namedview7"
     pagecolor="#ffffff"
     bordercolor="#000000"
     borderopacity="0.25"
     inkscape:showpageshadow="2"
     inkscape:pageopacity="0.0"
     inkscape:pagecheckerboard="0"
     inkscape:deskcolor="#d1d1d1"
     inkscape:zoom="0.6184"
     inkscape:cx="-28.298836"
     inkscape:cy="320.98965"
     inkscape:window-width="1920"
     inkscape:window-height="991"
     inkscape:window-x="-9"
     inkscape:window-y="-9"
     inkscape:window-maximized="1"
     inkscape:current-layer="svg7" />
  <g
     fill-rule="evenodd"
     clip-rule="evenodd"
     id="g7"
     transform="translate(-9.9568234,-76.282544)">
    <path
       id="path9"
       d="m 40.822,105.814 c -0.771,-0.58 -2.604,-2.027 -4.051,-2.027 -2.026,0.098 -2.797,1.158 -4.726,1.158 -1.93,0 -2.508,-2.604 -6.077,-2.797 -3.569,-0.098 -5.787,2.219 -7.716,1.93 -2.026,-0.291 -3.279,-1.834 -4.437,-2.508 -1.157,-0.771 -2.219,-0.58 -3.279,-0.098 0.0031,-0.85246 -0.5364317,10.56258 -0.484,9.84 v 0 0 c 9.26,-5.402 26.14,-4.244 30.77,-4.727 z"
       sodipodi:nodetypes="ccsccccccccc"
       style="display:inline;fill:#ffffff" />
    <path
       d="m 67.733,93.467 -5.401,0.675 v 0.482 c 0,0 1.833,0.29 1.833,2.991 v 8.873 h 3.568 z m -2.122,-2.122 c 1.158,0 2.026,-0.868 2.026,-1.929 0,-1.158 -0.868,-2.026 -2.026,-2.026 -1.061,0 -2.025,0.868 -2.025,2.026 -10e-4,1.061 0.964,1.929 2.025,1.929 z m 9.645,7.137 c 0,-0.771 0.868,-2.411 2.315,-2.411 0.868,0 1.061,0.386 1.833,0.386 0.771,0 1.35,-0.482 1.35,-1.543 0,-1.061 -0.482,-1.543 -1.736,-1.543 -1.061,0 -2.218,0.289 -3.762,2.315 v -2.218 l -5.401,0.675 v 0.482 c 0,0 1.833,0.29 1.833,2.991 v 8.873 h 3.568 z m -20.93,-0.289 h 5.594 v -2.025 h -5.594 v -7.042 h 3.472 c 2.219,0 2.99,2.604 2.99,2.604 H 61.56 L 61.078,87.389 H 48.249 v 0.675 c 0,0 2.218,0.482 2.218,2.797 v 15.625 h 3.858 v -8.293 z m 27.2,5.209 c 1.351,1.35 2.99,1.736 4.244,1.736 1.254,0 2.219,-0.578 2.219,-1.543 0,-2.605 -6.27,-1.834 -6.27,-6.174 0,-3.086 2.894,-4.051 5.208,-4.051 1.254,0 3.858,0.386 3.858,2.315 0,1.158 -0.868,1.254 -1.254,1.254 -1.929,0 -0.964,-1.929 -3.376,-1.929 -0.868,0 -1.543,0.579 -1.543,1.447 0,2.412 6.463,1.447 6.463,6.656 0,2.025 -2.315,3.857 -5.306,3.857 -1.736,0 -3.183,-0.385 -4.244,-0.965 v -2.603 z m 12.443,-0.386 c 0,3.666 2.411,3.859 4.244,3.859 1.061,0 2.797,-0.193 3.088,-0.289 v -1.254 c -0.098,0 -0.869,0.096 -1.447,0.096 -1.447,0 -2.316,-0.965 -2.316,-2.701 v -7.331 h 3.859 v -1.543 h -3.859 v -4.244 h -1.253 c 0,0 -0.386,3.858 -4.147,4.63 v 1.157 h 1.833 v 7.62 z m 51.894,3.859 c -2.412,0 -6.463,-1.061 -6.463,-6.752 0,-5.691 4.244,-6.656 6.463,-6.656 h 0.289 c 2.219,0 6.463,0.965 6.463,6.656 0,5.691 -4.053,6.752 -6.463,6.752 z m 0.096,-1.352 c 1.641,0 2.797,-0.867 2.797,-5.4 0,-4.438 -1.447,-5.209 -2.797,-5.209 -1.254,0 -2.701,0.771 -2.701,5.209 0,4.533 1.158,5.4 2.701,5.4 z m 25.658,-0.384 c -0.482,0.096 -0.965,0.096 -1.834,0.096 -2.893,0 -4.822,-1.736 -4.822,-5.209 0,-2.699 0.193,-5.015 2.219,-5.015 2.41,0 0.578,2.798 2.893,2.798 1.254,0 1.736,-0.58 1.736,-1.641 0,-2.026 -2.41,-2.701 -4.34,-2.701 -2.121,0 -6.365,0.965 -6.365,6.656 0,5.691 3.471,6.752 6.461,6.752 1.062,0 3.377,-0.289 4.053,-0.578 v -1.158 z m -42.828,-5.403 c 0,-2.893 1.641,-4.051 2.99,-4.051 0.965,0 1.641,0.482 1.641,2.025 v 8.777 h 3.568 v -9.355 c 0,-2.991 -1.93,-3.762 -3.473,-3.762 -1.639,0 -2.701,0.386 -4.146,1.736 -0.193,0.193 -0.387,0.482 -0.58,0.675 v -9.066 l -5.498,0.579 v 0.482 c 0,0 1.834,0.386 1.834,3.087 v 15.625 h 3.664 z m 29.998,-6.269 -5.4,0.675 v 0.482 c 0,0 1.832,0.29 1.832,2.991 v 8.873 h 3.568 z m -2.121,-2.122 c 1.156,0 2.025,-0.868 2.025,-1.929 0,-1.158 -0.869,-2.026 -2.025,-2.026 -1.061,0 -1.93,0.868 -1.93,2.026 0,1.061 0.869,1.929 1.93,1.929 z m -48.615,5.594 c 0,4.533 1.736,6.463 2.701,7.428 0.869,0.867 3.184,2.508 6.945,2.508 2.025,0 4.727,-0.676 5.209,-1.061 v -1.736 c -0.387,0.191 -2.412,0.674 -3.666,0.674 -1.35,0 -6.654,-0.385 -6.654,-7.908 0,-7.717 3.568,-7.91 4.629,-7.91 2.314,0 3.857,2.315 4.148,3.762 h 0.771 l -0.578,-4.823 c -0.484,-0.193 -3.088,-0.579 -4.148,-0.579 -3.666,0 -9.357,1.832 -9.357,9.645 z m 68.582,1.352 c 0.096,-1.834 0.482,-3.281 2.41,-3.281 1.352,0 2.123,0.868 2.123,3.281 z m 0,1.445 h 7.619 c 0,-3.375 -1.447,-6.269 -5.016,-6.269 -2.219,0 -6.365,0.965 -6.365,6.656 0,5.691 3.471,6.848 6.365,6.848 1.543,0 3.857,-0.578 4.631,-0.965 v -1.061 c -0.387,0.096 -1.545,0.289 -2.316,0.289 -2.893,0 -4.918,-1.927 -4.918,-5.498 z"
       fill="#3685c3"
       id="path3"
       style="display:inline" />
    <path
       d="m 10.052,111.312 c 9.26,-5.402 26.14,-4.244 30.77,-4.727 v 6.559 c 0,1.639 0,2.893 -2.508,2.893 -4.244,0 -11.575,-0.578 -15.336,-0.578 -2.026,0 -7.524,0.482 -10.224,0.482 -1.351,0 -2.797,-0.771 -2.797,-2.025 -0.001,-0.771 -0.001,-1.641 0.095,-2.604 z"
       fill="#4ea5bf"
       id="path4"
       style="display:inline" />
    <path
       d="m 10.535,100.219 c 0.193,-3.279 -0.482,-20.931 -0.482,-21.413 0,-0.869 0.482,-2.219 1.833,-2.219 2.99,0 3.762,0.289 6.27,0.386 6.173,0.193 11.285,-0.675 15.818,-0.675 2.701,0 6.559,-0.386 6.559,2.7 0,1.254 -0.193,2.219 -0.29,4.244 -0.675,9.549 0.579,13.119 0.579,21.607 v 0.965 c -0.771,-0.58 -2.604,-2.027 -4.051,-2.027 -2.026,0.098 -2.797,1.158 -4.726,1.158 -1.93,0 -2.508,-2.604 -6.077,-2.797 -3.569,-0.098 -5.787,2.219 -7.716,1.93 -2.026,-0.291 -3.279,-1.834 -4.437,-2.508 -1.157,-0.771 -2.219,-0.58 -3.279,-0.098 v -1.253 z"
       fill="#3685c3"
       id="path5"
       style="display:inline" />
    <path
       d="m 26.257,87.294 c 0.29,2.508 0.771,2.412 1.833,5.016 -1.543,-1.158 -4.34,-3.086 -6.366,-2.604 -1.061,0.289 -0.964,1.35 0.097,2.122 2.025,1.543 5.305,2.025 5.98,2.122 -2.315,1.254 -6.27,5.016 -5.112,6.27 0.29,0.289 1.061,0.58 4.051,-1.832 0.868,-0.771 2.315,-2.508 2.604,-2.991 0.097,0.193 0.193,0.868 0.675,2.413 0.868,2.314 1.254,3.953 2.701,3.762 1.64,-0.098 0.772,-2.799 -0.097,-4.244 A 15.225,15.225 0 0 0 30.694,94.53 c 2.604,1.157 4.726,2.604 6.752,2.122 1.061,-0.289 0.868,-1.543 -0.097,-2.122 -2.604,-1.543 -4.244,-1.351 -6.173,-1.447 2.411,-1.736 5.016,-4.148 4.919,-5.98 -0.096,-0.868 -1.061,-1.447 -2.508,-0.289 -0.868,0.675 -3.086,4.051 -3.762,5.401 -0.097,-0.386 -0.193,-0.772 -0.097,-1.351 0.097,-2.219 -0.579,-5.691 -2.604,-5.401 -1.06,0.191 -0.867,1.445 -0.867,1.831 z"
       fill="#c82e7d"
       id="path6"
       style="display:inline" />
    <path
       d="m 21.723,84.304 c 0.386,-3.183 -0.482,-5.112 -3.279,-5.112 -2.701,-0.097 -5.69,3.375 -5.787,5.787 -0.193,2.797 1.35,3.858 3.568,4.051 2.412,0.096 5.016,-1.736 5.498,-4.726 z"
       fill="#f2d740"
       id="path7"
       inkscape:label="path7"
       style="display:inline" />
  </g>
</svg>
