<?xml version="1.0" encoding="UTF-8" standalone="no"?>
<svg
   width="3033.1943"
   height="566.92969"
   viewBox="0 0 3033.1943 566.92969"
   version="1.1"
   xml:space="preserve"
   style="clip-rule:evenodd;fill-rule:evenodd;stroke-linejoin:round;stroke-miterlimit:1.41421"
   id="svg1"
   sodipodi:docname="LH.svg"
   inkscape:version="1.4.2 (f4327f4, 2025-05-13)"
   xmlns:inkscape="http://www.inkscape.org/namespaces/inkscape"
   xmlns:sodipodi="http://sodipodi.sourceforge.net/DTD/sodipodi-0.dtd"
   xmlns="http://www.w3.org/2000/svg"
   xmlns:svg="http://www.w3.org/2000/svg"><defs
   id="defs1" /><sodipodi:namedview
   id="namedview1"
   pagecolor="#ffffff"
   bordercolor="#000000"
   borderopacity="0.25"
   inkscape:showpageshadow="2"
   inkscape:pageopacity="0.0"
   inkscape:pagecheckerboard="0"
   inkscape:deskcolor="#d1d1d1"
   inkscape:zoom="0.26653638"
   inkscape:cx="1498.8573"
   inkscape:cy="230.73773"
   inkscape:window-width="1920"
   inkscape:window-height="991"
   inkscape:window-x="-9"
   inkscape:window-y="-9"
   inkscape:window-maximized="1"
   inkscape:current-layer="svg1" />
    <g
   id="g39"
   transform="translate(-9.4492234,-9.4472611)"><path
     id="path28"
     style="clip-rule:evenodd;fill:#0a1d3d;fill-rule:nonzero;stroke-linejoin:round;stroke-miterlimit:1.41421"
     d="m -82.434909,170.32373 c -117.566001,0 -212.599161,-95.032168 -212.599161,-212.599168 0,-117.567002 95.03316,-212.599162 212.599161,-212.599162 117.567,0 212.599169,95.03216 212.599169,212.599162 0,117.567 -95.032169,212.599168 -212.599169,212.599168 z m 0,-12.75589 c 110.338,0 199.841809,-89.505278 199.841809,-199.843278 0,-110.338002 -89.503809,-199.841812 -199.841809,-199.841812 -110.338001,0 -199.841811,89.50381 -199.841811,199.841812 0,110.338 89.50381,199.843278 199.841811,199.843278 z"
     transform="matrix(1.33333,0,0,-1.33333,402.827,236.545)" /><path
     style="clip-rule:evenodd;fill:#0a1d3d;fill-rule:nonzero;stroke-linejoin:round;stroke-miterlimit:1.41421"
     d="m 0,0 c -1.616,0 -2.976,-0.042 -3.741,-0.127 -0.893,-1.616 -2.211,-3.784 -4.167,-6.803 30.44,0 58.075,-2.508 88.642,-7.992 l -8.63,-8.333 c -27.592,4.889 -50.507,6.844 -79.714,6.844 -4.251,0 -5.144,0 -6.164,-0.042 -1.021,-1.53 -3.317,-4.506 -5.612,-7.27 2.593,0.17 7.61,0.255 14.539,0.255 24.021,0 46.468,-1.785 70.829,-5.697 l -8.631,-8.375 c -18.536,2.891 -41.196,4.549 -61.518,4.549 -7.227,0 -15.432,-0.255 -22.787,-0.68 -1.658,-1.913 -5.994,-6.59 -7.312,-8.035 9.735,1.02 20.449,1.488 33.203,1.488 18.154,0 35.5,-1.191 51.91,-3.614 l -8.631,-8.29 c -11.691,1.445 -25.891,2.295 -38.432,2.295 -32.353,0 -57.862,-7.014 -84.221,-23.127 25.126,-26.954 66.28,-44.002 106.158,-44.002 h 3.741 l -13.944,-13.479 c -57.522,10.8 -118.062,36.096 -169.206,70.746 -49.189,33.203 -66.407,43.023 -104.797,59.986 l -0.255,9.864 25.976,-11.139 8.843,7.015 84.815,-38.858 -5.527,-4.421 -43.534,18.918 -4.294,-3.358 22.618,-12.627 c 19.089,-10.629 33.628,-15.39 47.063,-15.39 29.377,0 55.736,20.832 72.741,57.436 12.797,1.659 26.444,2.424 42.854,2.424 C 26.486,10.161 59.179,6.93 96.209,0 L 87.196,-8.715 C 64.154,-3.911 24.998,0 0,0"
     id="path1"
     transform="matrix(1.33333,0,0,-1.33333,402.827,236.545)" /></g><g
   id="g40"
   style="clip-rule:evenodd;fill-rule:evenodd;stroke-linejoin:round;stroke-miterlimit:1.41421"
   transform="matrix(1.33333,0,0,-1.33333,119.49397,227.09774)"><path
     id="path39"
     style="fill:#0a1d3d;fill-rule:nonzero"
     d="m 2092.9499,26.159304 c -60.33,0 -89.4906,-23.0827874 -91.9206,-66.411787 h 59.5314 c 0.81,11.34 7.2892,19.841358 32.3892,19.841358 22.28,0 32.8097,-7.287237 32.8097,-18.221237 0,-9.719 -6.0801,-13.361995 -21.0601,-14.980995 l -38.88,-4.050303 c -52.64,-5.671 -76.5295,-27.537312 -76.5295,-67.22331 0,-36.849 22.6705,-65.1945 70.8605,-65.1945 32.8,0 52.2392,10.52897 69.2492,31.58797 v -25.51471 h 55.881 v 134.037929 c 0,56.2849998 -32.8008,76.129585 -92.3308,76.129585 z m 34.0196,-118.243948 v -12.556676 c 0,-22.27 -21.0593,-38.87265 -53.4493,-38.87265 -15.8,0 -25.1104,7.28864 -25.1104,21.05864 0,10.528 6.4804,19.43561 27.1304,22.26861 l 35.2296,4.863298 c 6.08,0.807 12.5497,2.023778 16.1997,3.238778 z" /><path
     style="fill:#0a1d3d;fill-rule:nonzero"
     d="m 1896.15,-56.043 c 51.83,-6.886 77.75,-23.083 77.75,-65.603 0,-42.925 -30.37,-68.436 -94.76,-68.436 -70.05,0 -94.76,27.939 -95.97,68.843 h 60.34 c 1.62,-14.986 12.14,-22.275 35.63,-22.275 23.89,0 33.61,5.671 33.61,17.008 0,10.528 -8.1,15.387 -29.15,18.222 l -21.47,2.837 c -44.95,6.073 -70.86,23.485 -70.86,63.981 0,38.875 28.75,67.627 89.09,67.627 55.88,0 85.85,-22.272 88.68,-66.412 h -59.53 c -2.02,11.741 -8.5,19.032 -29.15,19.032 -20.25,0 -27.94,-6.885 -27.94,-15.795 0,-8.906 4.86,-13.766 22.27,-16.197 l 21.46,-2.832"
     id="path37" /><path
     style="fill:#0a1d3d;fill-rule:nonzero"
     d="m 1686.98,26.161 c 53.05,0 80.18,-23.486 80.18,-90.708 v -119.461 h -61.15 v 116.627 c 0,27.13 -11.74,39.277 -37.25,39.277 -23.09,0 -36.85,-12.147 -36.85,-39.277 v -116.627 h -61.15 V 20.086 h 57.5 V -3.402 c 8.51,15.795 25.92,29.563 58.72,29.563"
     id="path36" /><path
     id="path35"
     style="fill:#0a1d3d;fill-rule:nonzero"
     d="m 1453.2598,26.159304 c -60.34,0 -89.4991,-23.0827874 -91.9191,-66.411787 h 59.5197 c 0.81,11.34 7.2894,19.844287 32.3994,19.844287 22.27,0 32.8009,-7.290237 32.8009,-18.221237 0,-9.722 -6.0801,-13.364924 -21.0601,-14.983924 l -38.8712,-4.050303 c -52.65,-5.668 -76.5397,-27.536312 -76.5397,-67.22331 0,-36.849 22.6807,-65.1945 70.8707,-65.1945 32.8,0 52.239,10.52897 69.239,31.58797 v -25.51471 h 55.8912 v 134.037929 c 0,56.2879998 -32.8008,76.129585 -92.3308,76.129585 z m 34.0109,-118.243948 v -12.552276 c 0,-22.273 -21.0608,-38.87705 -53.4508,-38.87705 -15.79,0 -25.1105,7.28864 -25.1105,21.05864 0,10.528 6.4807,19.43561 27.1407,22.26861 l 35.2296,4.863298 c 6.07,0.811 12.551,2.023778 16.191,3.238778 z" /><path
     style="fill:#0a1d3d;fill-rule:nonzero"
     d="m 1252.4,26.161 c 51.84,0 78.97,-23.486 78.97,-90.708 v -119.461 h -61.15 v 116.627 c 0,27.13 -11.74,39.277 -37.25,39.277 -23.09,0 -36.85,-12.147 -36.85,-39.277 v -116.627 h -61.15 v 283.06 h 61.55 V 0.245 c 10.53,14.984 27.13,25.916 55.88,25.916"
     id="path33" /><path
     style="fill:#0a1d3d;fill-rule:nonzero"
     d="m 1070.45,20.087 h 46.57 v -49.809 h -46.57 v -79.37 c 0,-21.868 11.34,-27.537 29.16,-27.537 7.29,0 17.41,1.214 17.41,1.214 v -48.998 c 0,0 -14.17,-3.238 -29.15,-3.238 -49,0 -78.56,22.271 -78.56,71.673 v 86.256 h -30.78 v 49.809 h 30.78 v 59.527 h 61.14 z"
     id="path32" /><path
     style="fill:#0a1d3d;fill-rule:nonzero"
     d="m 856.643,27.78 c 0,49.403 31.183,75.727 80.181,75.727 15.795,0 25.917,-2.43 25.917,-2.43 V 51.674 c 0,0 -8.504,0.807 -15.795,0.807 -19.032,0 -29.157,-6.479 -29.157,-24.296 v -8.098 h 44.952 v -49.809 h -44.952 v -154.286 h -61.146 v 154.286 h -30.775 v 49.809 h 30.775 v 7.693"
     id="path31" /><path
     style="fill:#0a1d3d;fill-rule:nonzero"
     d="m 748.521,20.087 h 61.146 v -204.095 h -57.501 v 23.487 c -8.505,-15.793 -25.916,-29.56 -57.909,-29.56 -52.236,0 -79.368,23.487 -79.368,90.708 v 119.46 h 61.147 V -96.537 c 0,-27.133 11.745,-39.28 36.446,-39.28 22.272,0 36.039,12.147 36.039,39.28 z"
     id="path30" /><path
     style="clip-rule:evenodd;fill:#0a1d3d;fill-rule:nonzero;stroke-linejoin:round;stroke-miterlimit:1.41421"
     d="m 479.229,-126.91 h 121.89 v -57.098 H 413.628 V 99.458 h 65.601 z"
     id="path29" /></g>
</svg>
