<?xml version="1.0" encoding="UTF-8" standalone="no"?>
<!-- Generator: Adobe Illustrator 15.0.0, SVG Export Plug-In . SVG Version: 6.00 Build 0)  -->

<svg
   version="1.1"
   id="Ebene_1"
   x="0px"
   y="0px"
   width="206.05186"
   height="23.399778"
   viewBox="0 0 206.05186 23.399778"
   enable-background="new 0 0 223 55.5"
   xml:space="preserve"
   sodipodi:docname="Lufthansa_Regional_Logo.svg"
   inkscape:version="1.4.2 (f4327f4, 2025-05-13)"
   xmlns:inkscape="http://www.inkscape.org/namespaces/inkscape"
   xmlns:sodipodi="http://sodipodi.sourceforge.net/DTD/sodipodi-0.dtd"
   xmlns="http://www.w3.org/2000/svg"
   xmlns:svg="http://www.w3.org/2000/svg"><defs
   id="defs11" /><sodipodi:namedview
   id="namedview11"
   pagecolor="#ffffff"
   bordercolor="#000000"
   borderopacity="0.25"
   inkscape:showpageshadow="2"
   inkscape:pageopacity="0.0"
   inkscape:pagecheckerboard="0"
   inkscape:deskcolor="#d1d1d1"
   showgrid="false"
   inkscape:zoom="3.694078"
   inkscape:cx="81.346414"
   inkscape:cy="23.145153"
   inkscape:window-width="1920"
   inkscape:window-height="991"
   inkscape:window-x="-9"
   inkscape:window-y="-9"
   inkscape:window-maximized="1"
   inkscape:current-layer="Ebene_1" />
<g
   id="g11"
   transform="translate(7.5518581,-15.767112)">
	
	<g
   id="g10">
		<path
   fill="#00225f"
   d="m 76.396,30.148 c 0,0.635 -0.089,1.083 -0.266,1.342 -0.415,0.581 -1.102,0.871 -2.062,0.871 -0.885,0 -1.327,-0.341 -1.327,-1.023 0,-0.648 0.531,-1.099 1.592,-1.352 0.837,-0.205 1.524,-0.389 2.062,-0.553 v 0.715 z M 23.8,34.287 h 9.462 V 31.514 H 27.324 V 20.224 H 23.8 Z M 43.638,24.172 h -3.295 v 5.843 c 0,1.412 -0.555,2.118 -1.665,2.118 -0.978,0 -1.467,-0.706 -1.467,-2.118 v -5.843 h -3.295 v 5.976 c 0,1.291 0.168,2.227 0.506,2.806 0.633,1.084 1.694,1.626 3.183,1.626 1.157,0 2.131,-0.427 2.923,-1.283 l 0.103,0.989 h 3.008 V 24.172 Z m 5.688,-3.948 c -2.481,-0.042 -3.67,1.17 -3.567,3.633 v 0.314 h -1.436 v 2.251 h 1.436 v 7.863 h 3.295 v -7.863 h 1.99 v -2.251 h -1.99 v -0.314 c -0.007,-0.517 0.087,-0.876 0.283,-1.08 0.265,-0.223 0.695,-0.335 1.289,-0.335 h 0.517 v -2.218 z m 3.611,3.948 h -1.403 v 2.251 h 1.403 v 4.908 c -0.041,1.936 0.903,2.921 2.833,2.955 h 2.485 V 32.002 H 57.61 c -0.672,-0.007 -1.08,-0.113 -1.223,-0.319 -0.09,-0.16 -0.142,-0.583 -0.155,-1.27 v -3.99 h 1.893 v -2.251 h -1.893 v -3.165 h -3.295 z m 6.068,10.115 H 62.3 v -5.731 c 0,-1.4 0.553,-2.1 1.658,-2.1 0.961,0 1.442,0.7 1.442,2.1 v 5.731 h 3.295 v -5.864 c 0,-1.312 -0.168,-2.271 -0.505,-2.875 -0.631,-1.113 -1.679,-1.669 -3.141,-1.669 -1.243,0 -2.159,0.477 -2.75,1.429 v -5.083 h -3.295 v 14.062 z m 15.832,-8.288 c 0.974,0 1.46,0.315 1.46,0.945 0,0.376 -0.194,0.63 -0.583,0.76 -0.129,0.042 -0.621,0.141 -1.475,0.298 -1.904,0.322 -3.188,0.798 -3.85,1.428 -0.608,0.575 -0.911,1.277 -0.911,2.106 0,1.137 0.489,1.993 1.468,2.568 0.705,0.404 1.499,0.606 2.382,0.606 1.211,0 2.303,-0.417 3.274,-1.25 l 0.197,0.826 h 3.077 C 79.722,34 79.635,33.807 79.614,33.704 79.6,33.602 79.593,33.33 79.593,32.889 v -5.181 c 0,-2.641 -1.565,-3.961 -4.694,-3.961 -1.771,0 -3.091,0.465 -3.962,1.394 -0.55,0.585 -0.828,1.339 -0.834,2.26 h 3.008 c 0.02,-0.934 0.596,-1.402 1.726,-1.402 z m 5.931,8.288 h 3.295 v -5.731 c 0,-1.4 0.549,-2.1 1.647,-2.1 0.968,0 1.452,0.7 1.452,2.1 v 5.731 h 3.295 v -5.864 c 0,-1.319 -0.168,-2.277 -0.504,-2.875 -0.63,-1.113 -1.672,-1.669 -3.125,-1.669 -1.207,0 -2.19,0.477 -2.951,1.429 l -0.103,-1.136 h -3.008 v 10.115 z m 19.655,-8.776 c -0.673,-1.175 -2.04,-1.763 -4.101,-1.763 -1.47,0 -2.634,0.295 -3.492,0.886 -0.907,0.618 -1.36,1.493 -1.36,2.625 0,0.975 0.422,1.709 1.266,2.203 0.473,0.289 1.197,0.515 2.172,0.68 l 1.06,0.185 c 1.222,0.213 1.833,0.601 1.833,1.164 0,0.625 -0.525,0.937 -1.574,0.937 -1.208,0 -1.808,-0.511 -1.8,-1.534 H 91.19 c 0,0.901 0.233,1.637 0.701,2.208 0.872,1.073 2.389,1.609 4.552,1.609 1.318,0 2.39,-0.271 3.213,-0.812 1.002,-0.665 1.504,-1.57 1.504,-2.715 0,-1.707 -1.18,-2.766 -3.54,-3.178 l -1.135,-0.195 c -1.06,-0.185 -1.59,-0.507 -1.59,-0.967 0,-0.562 0.442,-0.843 1.326,-0.843 0.939,0 1.44,0.436 1.502,1.305 h 3.112 c -0.062,-0.814 -0.199,-1.412 -0.412,-1.795 z m 6.711,0.488 c 0.433,0 0.786,0.088 1.058,0.262 0.272,0.175 0.408,0.402 0.408,0.683 0,0.376 -0.196,0.63 -0.587,0.76 -0.131,0.042 -0.625,0.141 -1.484,0.298 -1.188,0.206 -2.102,0.442 -2.741,0.709 -1.36,0.562 -2.04,1.51 -2.04,2.846 0,1.123 0.494,1.972 1.483,2.547 0.707,0.404 1.503,0.606 2.389,0.606 0.933,0 1.729,-0.197 2.389,-0.589 0.151,-0.087 0.449,-0.308 0.896,-0.661 l 0.186,0.826 h 3.082 c -0.186,-0.36 -0.278,-0.673 -0.278,-0.938 0,-0.061 0,-0.143 0,-0.245 0,-0.108 0,-0.18 0,-0.214 v -5.181 c 0,-2.641 -1.565,-3.961 -4.695,-3.961 -1.81,0 -3.141,0.465 -3.994,1.394 -0.551,0.605 -0.829,1.359 -0.835,2.26 h 3.019 c 0.02,-0.934 0.602,-1.402 1.744,-1.402 z m 1.563,4.149 c 0,0.628 -0.093,1.076 -0.277,1.342 -0.411,0.581 -1.103,0.871 -2.074,0.871 -0.89,0 -1.335,-0.341 -1.335,-1.023 0,-0.648 0.534,-1.099 1.603,-1.352 0.828,-0.198 1.522,-0.382 2.084,-0.553 v 0.715 z"
   id="path1" />
		<g
   id="g9">
			<path
   fill="#00225f"
   d="m 125.248,22.902 c 1.543,0 2.315,0.555 2.315,1.663 0,0.347 -0.085,0.655 -0.256,0.924 -0.171,0.269 -0.396,0.454 -0.676,0.556 -0.301,0.102 -0.78,0.153 -1.436,0.153 h -2.135 v -3.295 h 2.188 z m -5.711,11.388 h 3.524 v -5.318 h 2.125 c 0.772,0.007 1.32,0.196 1.643,0.568 0.355,0.441 0.537,1.061 0.544,1.859 0.027,1.012 0.068,1.653 0.123,1.921 0.068,0.358 0.198,0.682 0.39,0.971 h 3.759 c -0.268,-0.31 -0.437,-0.537 -0.505,-0.682 -0.13,-0.227 -0.203,-0.864 -0.216,-1.91 v -0.63 c 0.007,-1.573 -0.452,-2.637 -1.375,-3.194 -0.26,-0.151 -0.644,-0.299 -1.149,-0.443 0.662,-0.144 1.188,-0.37 1.577,-0.679 0.806,-0.638 1.208,-1.509 1.208,-2.614 0,-0.727 -0.191,-1.396 -0.574,-2.007 -0.417,-0.665 -0.947,-1.135 -1.59,-1.409 -0.758,-0.33 -2,-0.494 -3.723,-0.494 h -5.762 V 34.29 Z"
   id="path2" />
			<path
   fill="#00225f"
   d="m 136.015,26.733 c 0.371,-0.444 0.879,-0.666 1.524,-0.666 0.7,0 1.225,0.274 1.575,0.82 0.171,0.267 0.268,0.592 0.289,0.974 h -3.811 c 0.034,-0.457 0.176,-0.833 0.423,-1.128 z m 2.965,5.007 c -0.391,0.352 -0.861,0.527 -1.411,0.527 -0.693,0 -1.235,-0.283 -1.627,-0.85 -0.248,-0.361 -0.409,-0.829 -0.484,-1.402 h 7.425 c 0.014,-0.178 0.022,-0.308 0.022,-0.391 0,-0.486 -0.052,-1.008 -0.155,-1.563 -0.254,-1.344 -0.808,-2.382 -1.661,-3.116 -0.915,-0.795 -2.081,-1.193 -3.498,-1.193 -1.575,0 -2.872,0.483 -3.889,1.451 -1.087,1.03 -1.63,2.381 -1.63,4.056 0,0.81 0.145,1.577 0.433,2.301 0.289,0.724 0.69,1.323 1.206,1.796 0.996,0.906 2.301,1.359 3.916,1.359 1.683,0 3.037,-0.521 4.061,-1.564 0.597,-0.61 0.927,-1.296 0.989,-2.058 h -3.254 c -0.103,0.262 -0.251,0.479 -0.443,0.647 z"
   id="path3" />
			<path
   fill="#00225f"
   d="m 150.471,27.027 c 0.332,0.447 0.498,1.058 0.498,1.833 0,0.729 -0.138,1.306 -0.415,1.731 -0.353,0.529 -0.888,0.793 -1.607,0.793 -0.636,0 -1.151,-0.22 -1.544,-0.659 -0.429,-0.481 -0.643,-1.116 -0.643,-1.906 0,-0.728 0.173,-1.315 0.519,-1.762 0.401,-0.508 0.936,-0.763 1.607,-0.763 0.697,0.002 1.225,0.246 1.585,0.733 z m 0.635,-1.977 c -0.281,-0.306 -0.535,-0.524 -0.761,-0.657 -0.576,-0.34 -1.258,-0.511 -2.045,-0.511 -1.364,0 -2.495,0.471 -3.392,1.411 -0.898,0.935 -1.346,2.14 -1.346,3.616 0,1.648 0.538,2.922 1.613,3.822 0.87,0.735 1.935,1.102 3.197,1.102 1,0 1.887,-0.3 2.662,-0.901 v 0.721 c 0,1.317 -0.642,1.976 -1.926,1.976 -0.467,0 -0.841,-0.088 -1.123,-0.263 -0.206,-0.128 -0.368,-0.367 -0.484,-0.716 h -3.347 c 0.062,0.866 0.423,1.582 1.084,2.148 0.867,0.743 2.051,1.115 3.552,1.115 1.486,0 2.643,-0.236 3.469,-0.708 1.019,-0.575 1.641,-1.297 1.868,-2.167 0.069,-0.274 0.104,-0.801 0.104,-1.581 v -9.281 h -3.01 z"
   id="path4" />
			<path
   fill="#00225f"
   d="m 155.859,24.175 h 3.295 V 34.29 h -3.295 z m 0,-3.948 h 3.295 v 2.61 h -3.295 z"
   id="path5" />
			<path
   fill="#00225f"
   d="m 168.238,29.215 c 0,0.878 -0.166,1.568 -0.498,2.069 -0.394,0.59 -0.995,0.885 -1.803,0.885 -0.808,0 -1.409,-0.294 -1.802,-0.885 -0.333,-0.508 -0.498,-1.201 -0.498,-2.079 0,-0.892 0.165,-1.588 0.498,-2.089 0.394,-0.59 0.979,-0.885 1.761,-0.885 1.562,-0.001 2.342,0.995 2.342,2.984 z m -6.473,-3.982 c -0.971,0.954 -1.455,2.292 -1.455,4.014 0,1.688 0.484,3.016 1.455,3.983 0.99,0.989 2.379,1.483 4.168,1.483 1.794,0 3.191,-0.494 4.188,-1.483 0.962,-0.96 1.445,-2.292 1.445,-3.994 0,-1.709 -0.482,-3.043 -1.445,-4.004 -1.004,-0.988 -2.373,-1.482 -4.106,-1.482 -1.829,0.001 -3.247,0.495 -4.25,1.483 z"
   id="path6" />
			<path
   fill="#00225f"
   d="m 172.71,24.175 h 3.008 l 0.103,1.132 c 0.758,-0.95 1.735,-1.425 2.934,-1.425 0.916,0 1.684,0.228 2.304,0.682 0.737,0.544 1.17,1.305 1.301,2.282 0.048,0.331 0.073,0.861 0.073,1.59 v 5.854 h -3.295 v -5.721 c 0,-0.541 -0.052,-0.959 -0.156,-1.257 -0.201,-0.568 -0.638,-0.852 -1.311,-0.852 -0.299,0 -0.578,0.071 -0.838,0.213 -0.26,0.142 -0.453,0.331 -0.577,0.566 -0.167,0.305 -0.25,0.749 -0.25,1.33 v 5.721 h -3.295 V 24.175 Z"
   id="path7" />
			<path
   fill="#00225f"
   d="m 190.375,30.169 c 0,0.316 -0.021,0.592 -0.062,0.825 -0.083,0.454 -0.376,0.812 -0.883,1.073 -0.424,0.22 -0.89,0.33 -1.397,0.33 -0.328,0 -0.605,-0.058 -0.832,-0.175 -0.343,-0.178 -0.513,-0.463 -0.513,-0.855 0,-0.646 0.533,-1.099 1.602,-1.36 0.938,-0.227 1.632,-0.413 2.085,-0.557 z m -3.028,-3.595 c 0.294,-0.381 0.775,-0.572 1.439,-0.572 0.438,0 0.784,0.076 1.038,0.228 0.302,0.173 0.453,0.411 0.453,0.714 0,0.373 -0.196,0.628 -0.585,0.767 -0.13,0.042 -0.624,0.145 -1.479,0.311 -0.562,0.089 -1.025,0.178 -1.39,0.267 -1.133,0.268 -1.959,0.651 -2.481,1.152 -0.611,0.583 -0.916,1.285 -0.916,2.107 0,0.521 0.131,1.011 0.396,1.47 0.264,0.459 0.627,0.822 1.087,1.089 0.686,0.404 1.479,0.607 2.378,0.607 0.947,0 1.747,-0.192 2.399,-0.577 0.191,-0.117 0.49,-0.344 0.896,-0.68 l 0.186,0.833 h 3.083 c -0.144,-0.274 -0.227,-0.469 -0.247,-0.586 -0.021,-0.116 -0.031,-0.386 -0.031,-0.812 v -5.179 c 0,-0.908 -0.169,-1.634 -0.506,-2.177 -0.729,-1.19 -2.122,-1.785 -4.177,-1.785 -0.997,0 -1.847,0.145 -2.548,0.433 -0.949,0.385 -1.612,0.971 -1.99,1.755 -0.193,0.406 -0.289,0.895 -0.289,1.466 h 3.017 c 0.007,-0.325 0.096,-0.603 0.267,-0.831 z"
   id="path8" />
			<path
   fill="#00225f"
   d="M 195.205,20.227 H 198.5 V 34.29 h -3.295 z"
   id="path9" />
		</g>
	</g>
</g>
<g
   id="g39"
   transform="matrix(0.04127497,0,0,0.04127457,-0.39001641,-0.38993164)"
   style="clip-rule:evenodd;fill-rule:evenodd;stroke-linejoin:round;stroke-miterlimit:1.41421"><path
     id="path28"
     style="clip-rule:evenodd;fill:#00225f;fill-opacity:1;fill-rule:nonzero;stroke-linejoin:round;stroke-miterlimit:1.41421"
     d="m -82.434909,170.32373 c -117.566001,0 -212.599161,-95.032168 -212.599161,-212.599168 0,-117.567002 95.03316,-212.599162 212.599161,-212.599162 117.567,0 212.599169,95.03216 212.599169,212.599162 0,117.567 -95.032169,212.599168 -212.599169,212.599168 z m 0,-12.75589 c 110.338,0 199.841809,-89.505278 199.841809,-199.843278 0,-110.338002 -89.503809,-199.841812 -199.841809,-199.841812 -110.338001,0 -199.841811,89.50381 -199.841811,199.841812 0,110.338 89.50381,199.843278 199.841811,199.843278 z"
     transform="matrix(1.33333,0,0,-1.33333,402.827,236.545)" /><path
     style="clip-rule:evenodd;fill:#00225f;fill-opacity:1;fill-rule:nonzero;stroke-linejoin:round;stroke-miterlimit:1.41421"
     d="m 0,0 c -1.616,0 -2.976,-0.042 -3.741,-0.127 -0.893,-1.616 -2.211,-3.784 -4.167,-6.803 30.44,0 58.075,-2.508 88.642,-7.992 l -8.63,-8.333 c -27.592,4.889 -50.507,6.844 -79.714,6.844 -4.251,0 -5.144,0 -6.164,-0.042 -1.021,-1.53 -3.317,-4.506 -5.612,-7.27 2.593,0.17 7.61,0.255 14.539,0.255 24.021,0 46.468,-1.785 70.829,-5.697 l -8.631,-8.375 c -18.536,2.891 -41.196,4.549 -61.518,4.549 -7.227,0 -15.432,-0.255 -22.787,-0.68 -1.658,-1.913 -5.994,-6.59 -7.312,-8.035 9.735,1.02 20.449,1.488 33.203,1.488 18.154,0 35.5,-1.191 51.91,-3.614 l -8.631,-8.29 c -11.691,1.445 -25.891,2.295 -38.432,2.295 -32.353,0 -57.862,-7.014 -84.221,-23.127 25.126,-26.954 66.28,-44.002 106.158,-44.002 h 3.741 l -13.944,-13.479 c -57.522,10.8 -118.062,36.096 -169.206,70.746 -49.189,33.203 -66.407,43.023 -104.797,59.986 l -0.255,9.864 25.976,-11.139 8.843,7.015 84.815,-38.858 -5.527,-4.421 -43.534,18.918 -4.294,-3.358 22.618,-12.627 c 19.089,-10.629 33.628,-15.39 47.063,-15.39 29.377,0 55.736,20.832 72.741,57.436 12.797,1.659 26.444,2.424 42.854,2.424 C 26.486,10.161 59.179,6.93 96.209,0 L 87.196,-8.715 C 64.154,-3.911 24.998,0 0,0"
     id="path1-1"
     transform="matrix(1.33333,0,0,-1.33333,402.827,236.545)" /></g></svg>
