<?xml version="1.0" encoding="UTF-8" standalone="no"?>
<!-- Created with Inkscape (http://www.inkscape.org/) -->

<svg
   version="1.1"
   id="svg1"
   width="651.55243"
   height="228.93391"
   viewBox="0 0 1303.1049 457.86785"
   sodipodi:docname="MONOld.svg"
   inkscape:version="1.4.2 (f4327f4, 2025-05-13)"
   xml:space="preserve"
   xmlns:inkscape="http://www.inkscape.org/namespaces/inkscape"
   xmlns:sodipodi="http://sodipodi.sourceforge.net/DTD/sodipodi-0.dtd"
   xmlns="http://www.w3.org/2000/svg"
   xmlns:svg="http://www.w3.org/2000/svg"><defs
     id="defs1" /><sodipodi:namedview
     id="namedview1"
     pagecolor="#ffffff"
     bordercolor="#000000"
     borderopacity="0.25"
     inkscape:showpageshadow="2"
     inkscape:pageopacity="0.0"
     inkscape:pagecheckerboard="0"
     inkscape:deskcolor="#d1d1d1"
     showgrid="false"
     inkscape:zoom="0.91531044"
     inkscape:cx="319.01745"
     inkscape:cy="178.62792"
     inkscape:window-width="1920"
     inkscape:window-height="991"
     inkscape:window-x="-9"
     inkscape:window-y="-9"
     inkscape:window-maximized="1"
     inkscape:current-layer="svg1" /><path
     id="path32"
     style="fill:#000000;stroke-width:0.33164"
     d="m 549.23802,204.95433 c 0,-2.18884 0.0458,-3.9797 0.10185,-3.9797 0.97171,0 7.48221,-1.44976 8.744,-1.94711 3.37649,-1.3309 6.66938,-3.51983 7.98965,-5.3111 l 0.75096,-1.01884 -0.22507,-75.53918 c -0.21311,-71.531101 -0.19425,-75.604101 0.35545,-76.762541 0.87999,-1.85444 1.87595,-2.35384 4.37677,-2.1946 2.73539,0.17418 3.59925,0.82627 5.22291,3.94251 1.44803,2.77918 15.19723,28.54811 28.7408,53.86639 4.97623,9.302541 13.2787,24.823351 18.44993,34.490701 5.17122,9.66734 13.46794,25.2206 18.43717,34.5628 4.96921,9.3422 9.18418,16.94412 9.36658,16.89314 0.18241,-0.051 4.55782,-7.99308 9.72315,-17.64911 5.16533,-9.65602 13.62013,-25.46606 18.78845,-35.1334 5.16832,-9.66734 13.26857,-24.81506 18.00051,-33.661601 14.5282,-27.16092 27.13505,-50.78302 28.4824,-53.36892 1.62363,-3.11624 2.4875,-3.76833 5.22288,-3.94251 2.50073,-0.15923 3.49677,0.34016 4.37665,2.19433 0.54952,1.15812 0.56825,5.23406 0.35252,76.758591 l -0.22782,75.53551 0.75386,1.02279 c 1.32305,1.79508 4.61326,3.98305 7.99255,5.31504 1.26182,0.49735 7.77232,1.94711 8.744,1.94711 0.0563,0 0.10186,1.79086 0.10186,3.9797 v 3.97969 h -38.47026 -38.47028 v -3.77792 c 0,-4.336 -0.32861,-3.96139 3.81387,-4.34765 8.16504,-0.76133 12.8162,-2.93415 15.41891,-7.203 0.65154,-1.0686 0.66319,-1.6748 0.66441,-34.56686 0,-20.59927 -0.1172,-33.35798 -0.3066,-33.16413 -0.33973,0.34768 -6.30551,10.83759 -24.88708,43.76007 -19.27204,34.14583 -19.9833,35.37852 -20.24846,35.09217 -0.13742,-0.14841 -3.1951,-5.49319 -6.79484,-11.87728 -3.59975,-6.3841 -11.18006,-19.81557 -16.84515,-29.84772 -5.6651,-10.03215 -12.57518,-22.26971 -15.35578,-27.19458 -2.7806,-4.92488 -5.28366,-9.25279 -5.56236,-9.6176 -0.45561,-0.59637 -0.50809,2.71587 -0.52026,32.83249 -0.0133,32.92205 -0.003,33.5144 0.64961,34.58344 2.6027,4.26885 7.25389,6.44167 15.41892,7.203 4.14248,0.38626 3.81387,0.0116 3.81387,4.34765 v 3.77792 h -38.47027 -38.47026 z m 98.40504,-46.81297 c -3.75001,-6.6408 -8.86486,-15.76005 -23.83686,-42.49865 -4.16727,-7.44237 -7.57686,-13.59272 -7.57686,-13.66745 0,-0.0747 3.46046,-6.297711 7.68992,-13.828841 4.22946,-7.53112 11.90615,-21.22949 17.05931,-30.44083 5.15315,-9.21134 9.49038,-16.74789 9.63827,-16.74789 0.1479,0 4.04077,6.41726 8.65082,14.26058 4.61006,7.84331 10.4549,17.76768 12.98854,22.05414 2.53365,4.28647 6.76533,11.47324 9.40373,15.97062 l 4.79707,8.177051 -2.32507,4.2595 c -2.4091,4.4134 -17.15535,31.32308 -26.68682,48.69944 -3.00161,5.47208 -5.57774,10.07528 -5.72473,10.22934 -0.14699,0.15405 -1.98179,-2.7561 -4.07732,-6.46701 z M 567.27551,28.027549 c -2.71575,-0.59077 -4.53573,-1.56698 -6.65098,-3.56751 -6.33715,-5.99343 -5.62218,-16.4655501 1.47667,-21.6283301 1.92101,-1.39711 6.12365,-2.8317000169483 8.29544,-2.8317000169483 2.01833,0 5.38597,1.0745800169483 7.41996,2.3676500169483 5.99659,3.8122 8.23676,11.5973901 5.1976,18.0629701 -1.74041,3.70257 -6.05265,6.98459 -10.19208,7.75713 -2.22565,0.41538 -3.00393,0.39289 -5.54661,-0.16021 z m 81.12293,0.0606 c -7.32397,-1.6664 -12.16964,-8.67185 -10.98021,-15.87419 0.96101,-5.8190901 4.69057,-9.9184601 10.62585,-11.67946012 2.42714,-0.72013 4.46704,-0.67252 7.0153,0.16374 2.98986,0.98118002 4.64036,2.03312002 6.72805,4.28809002 2.35326,2.5418 3.24439,4.81337 3.44317,8.7768401 0.1762,3.51325 -0.48285,5.84753 -2.46385,8.72663 -2.99885,4.35842 -9.1995,6.77439 -14.36831,5.59835 z m 78.5987,-0.16864 c -4.18174,-1.09305 -7.45632,-3.86428 -9.39039,-7.94691 -0.97864,-2.06584 -1.05627,-2.4857 -1.05627,-5.71197 0,-3.2155 0.0797,-3.65049 1.04077,-5.6788201 1.8653,-3.93679 4.575,-6.30851 8.84542,-7.74205002 3.1509,-1.05772 4.93453,-1.05772 8.08542,0 5.15463,1.73037002 8.24473,4.96339002 9.55614,9.99820012 2.06515,7.92872 -3.22771,16.03517 -11.33678,17.36325 -2.54761,0.41723 -3.19108,0.38568 -5.74431,-0.2817 z" /><path
     id="path1"
     style="fill:#000000;stroke-width:1"
     d="m 326.13734,455.89752 c -12.21556,-2.4103 -18.00566,-4.34072 -27.13619,-9.04726 -18.64506,-9.61102 -30.24674,-23.76486 -35.56251,-43.38563 -2.1588,-7.9682 -2.98982,-28.99242 -1.51932,-38.43739 4.82687,-31.00264 24.92913,-53.13879 55.5819,-61.20549 11.34464,-2.9855 35.63897,-3.70902 47.81217,-1.42394 21.71567,4.07637 36.67025,12.48208 48.54422,27.2859 10.76909,13.42629 15.31921,27.57736 15.36342,47.78082 0.0537,24.54969 -6.51087,42.58807 -20.73784,56.9841 -10.77099,10.899 -23.02141,16.85224 -43.45953,21.11967 -13.79426,2.88021 -25.45727,2.97895 -38.88632,0.32922 z m 26.36401,-39.03827 c 5.2618,-1.43946 12.44596,-8.89967 14.76307,-15.33035 0.96966,-2.6911 2.28758,-9.16132 2.9287,-14.37828 2.47619,-20.14914 -3.42945,-38.6957 -14.0462,-44.11196 -13.18265,-6.72529 -27.36251,-0.56988 -33.23193,14.4258 -2.08631,5.33025 -2.35211,7.67447 -2.38111,21.00008 -0.0365,16.75224 1.19163,22.33208 6.66661,30.28969 5.25094,7.63199 15.28281,10.84565 25.30086,8.10502 z M 673.7239,455.8778 c -26.46604,-6.40161 -38.89355,-21.88912 -37.42972,-46.64597 1.09876,-18.58275 10.54417,-30.8482 29.09294,-37.779 8.69467,-3.24878 16.1951,-4.82211 35.62419,-7.47266 30.76952,-4.19764 36.80874,-6.09044 39.89186,-12.50287 1.20044,-2.49674 1.20044,-3.47854 0,-6.87799 -1.81976,-5.15324 -6.69728,-7.74434 -15.80466,-8.39598 -12.47074,-0.89227 -21.26265,3.34525 -22.79051,10.98455 l -0.55531,2.77655 h -28.37511 -28.37511 v -2.45079 c 0,-9.86569 5.77475,-22.31486 13.71911,-29.57556 12.91107,-11.79997 33.41931,-16.97384 67.2812,-16.97384 25.66128,0 38.55755,2.12915 51.6718,8.53095 12.19654,5.9538 18.51137,14.93397 21.29468,30.28264 0.6818,3.7601 1.2142,24.18359 1.37911,52.90562 0.2429,42.30309 0.4375,47.13159 2.0325,50.44042 0.97011,2.0125 2.63191,4.44476 3.69302,5.405 4.71962,4.27116 3.66541,4.43595 -28.37591,4.43595 h -30.30512 l -1.26022,-7.50003 c -0.69313,-4.12501 -1.49685,-7.50003 -1.78605,-7.50003 -0.28919,0 -2.34201,1.5546 -4.56181,3.45466 -11.23831,9.61958 -32.96606,16.67892 -50.60843,16.44266 -4.22056,-0.0565 -11.17415,-0.94944 -15.45245,-1.98428 z m 54.97096,-34.7382 c 4.91673,-2.52921 8.63751,-7.06331 10.86803,-13.24362 1.81888,-5.03973 3.18978,-19.93811 1.83284,-19.91851 -0.49109,0.007 -3.77322,0.91573 -7.29361,2.01918 -3.5204,1.10345 -10.27043,2.94906 -15.00006,4.10135 -17.17249,4.18374 -22.09939,8.03201 -22.09939,17.26124 0,8.6321 6.94267,12.89739 20.00008,12.28726 5.17181,-0.24166 8.80136,-1.01987 11.69211,-2.5069 z m 290.80904,35.88025 c -1.65,-0.42053 -5.8713,-1.30974 -9.3807,-1.97601 -29.52354,-5.60516 -50.80433,-23.94267 -59.27766,-51.07921 -2.04581,-6.55166 -2.34191,-9.52319 -2.34191,-23.50009 0,-18.78947 1.13171,-24.14297 8.13853,-38.50014 3.89322,-7.97736 6.02563,-10.88005 13.30435,-18.10993 7.13673,-7.08889 10.33644,-9.43136 18.11267,-13.25995 15.57342,-7.66755 22.18622,-9.01499 44.44482,-9.05623 22.6648,-0.042 31.2965,1.65868 46.5001,9.16176 11.8602,5.85305 21.6322,15.12964 27.2374,25.85653 3.8892,7.44283 6.7624,16.73275 6.7634,21.86798 l 6e-4,3.03991 -29.319,-0.27855 -29.319,-0.27856 -1.3018,-5.07916 c -3.5494,-13.84929 -19.6627,-19.97599 -32.5989,-12.39492 -8.9808,5.26309 -12.58,14.2124 -13.2485,32.94162 -0.2964,8.30133 -0.017,14.90596 0.7819,18.50007 3.3156,14.91254 12.0501,23.10219 24.6198,23.08414 10.5248,-0.0151 18.1128,-5.75573 21.1159,-15.975 l 1.7681,-6.01674 29.6009,-0.001 29.6007,-10e-4 -0.8096,5.12176 c -1.3963,8.8329 -4.9251,17.7606 -10.0467,25.41801 -10.7754,16.11068 -26.2949,24.86766 -52.1499,29.42601 -11.5159,2.03032 -26.5129,2.5378 -32.1955,1.08947 z M 0,350.96443 V 248.96404 H 40.424935 80.84987 l 1.474885,5.03131 c 0.811183,2.76722 8.823374,31.11733 17.804865,63.00024 8.9815,31.88291 16.56419,57.9684 16.85041,57.96775 0.39427,-8.9e-4 29.12895,-100.06835 35.10751,-122.26059 l 1.0133,-3.76131 40.20002,0.2613 40.20003,0.2613 0.25475,101.75039 0.25474,101.75039 h -30.00486 -30.00485 l 0.0215,-44.25017 c 0.0174,-35.87724 0.38703,-48.12219 1.95347,-64.71345 1.81252,-19.19745 1.95468,-24.48298 0.50849,-18.90487 -0.33767,1.30241 -8.57814,30.49312 -18.31216,64.86825 l -17.69823,62.50024 H 117.10289 93.732039 L 76.363542,391.46459 c -9.552666,-33.55013 -17.846898,-62.73316 -18.43161,-64.85119 -0.584712,-2.11803 -1.252935,-3.66114 -1.484946,-3.42913 -0.232011,0.23202 0.288151,6.91496 1.155915,14.851 1.122874,10.26915 1.730736,28.91662 2.108398,64.67936 l 0.530582,50.25019 H 30.120945 0 Z m 453.00173,28.00011 v -74.00029 h 27.00011 27.0001 v 11.00005 c 0,6.05002 0.3375,10.97269 0.75,10.93927 0.41251,-0.0334 2.30851,-1.94594 4.21336,-4.25002 8.75428,-10.58913 20.58375,-18.23771 31.836,-20.58423 7.40268,-1.54372 22.38297,-1.34756 30.7009,0.40203 19.34852,4.06975 32.1413,17.00652 38.06461,38.49304 1.59123,5.77216 1.83582,12.40695 2.18425,59.25023 l 0.39238,52.7502 H 585.57278 556.00213 V 410.07 c 0,-40.19161 -0.12712,-43.30642 -2.0172,-49.42577 -1.38816,-4.49434 -2.95704,-7.32176 -5.03108,-9.06694 -7.65211,-6.43883 -22.53573,-5.96231 -29.44062,0.94258 -6.67667,6.67666 -6.85067,8.03236 -7.27654,56.69478 l -0.38288,43.75017 h -29.42603 -29.42605 z m 380.00146,0 v -74.00029 h 26.4734 26.4733 l 0.2768,14.75006 0.27671,14.75006 2.259,-4.85387 c 3.78292,-8.12841 10.38054,-16.63607 16.04897,-20.69507 7.75962,-5.5566 13.90565,-7.36479 25.19219,-7.4117 l 9.50004,-0.0395 0.265,29.15655 0.2649,29.15655 -9.79964,-0.53999 c -24.47839,-1.34882 -36.08334,8.933 -38.06754,33.72724 -0.3741,4.67502 -0.67191,20.08758 -0.66181,34.25013 l 0.018,25.7501 H 862.263 833.00319 Z m 308.24651,-27.75011 0.2547,-101.75039 29.2501,-0.2651 29.2501,-0.26511 v 37.20797 37.20797 l 5.804,-5.77362 c 12.167,-12.10321 20.3436,-15.69696 37.1962,-16.34827 26.1264,-1.00973 42.9104,7.56426 52.3381,26.73646 6.8303,13.89021 6.9887,15.45918 7.3967,73.25028 l 0.3653,51.7502 h -29.4936 -29.4936 l -0.3064,-44.75017 -0.3065,-44.75017 -3,-5.98964 c -4.0246,-8.0351 -7.4778,-10.01042 -17.5001,-10.01042 -11.7212,0 -17.7685,4.10644 -21.1803,14.38242 -0.8365,2.51941 -1.3125,16.89922 -1.568,47.36781 l -0.3669,43.75017 h -29.4473 -29.4473 z" /><g
     id="g38"
     transform="matrix(1,0,0,0.63264929,0,-2.1116948e-5)"><rect
       style="fill:#f5961e;fill-opacity:1;stroke-width:1.30746"
       id="rect36"
       width="489.23801"
       height="165.1265"
       x="0"
       y="3.3378601e-05" /><rect
       style="fill:#1a1a1a;fill-opacity:1;stroke-width:1.30747"
       id="rect37"
       width="489.23801"
       height="165.1265"
       x="0"
       y="-330.25253"
       transform="scale(1,-1)" /><rect
       style="fill:#f5961e;fill-opacity:1;stroke-width:1.30747"
       id="rect36-4"
       width="489.23801"
       height="165.1265"
       x="813.86005"
       y="3.3378601e-05" /><rect
       style="fill:#1a1a1a;fill-opacity:1;stroke-width:1.30747"
       id="rect37-5"
       width="489.23801"
       height="165.1265"
       x="813.86005"
       y="-330.25253"
       transform="scale(1,-1)" /></g></svg>
