<?xml version="1.0" encoding="UTF-8" standalone="no"?>
<svg
   height="103.35513"
   viewBox="0 0 823.63526 226.62155"
   width="375.6705"
   version="1.1"
   id="svg19"
   sodipodi:docname="SV.svg"
   inkscape:version="1.4.2 (f4327f4, 2025-05-13)"
   xmlns:inkscape="http://www.inkscape.org/namespaces/inkscape"
   xmlns:sodipodi="http://sodipodi.sourceforge.net/DTD/sodipodi-0.dtd"
   xmlns="http://www.w3.org/2000/svg"
   xmlns:svg="http://www.w3.org/2000/svg">
  <defs
     id="defs19" />
  <sodipodi:namedview
     id="namedview19"
     pagecolor="#ffffff"
     bordercolor="#000000"
     borderopacity="0.25"
     inkscape:showpageshadow="2"
     inkscape:pageopacity="0.0"
     inkscape:pagecheckerboard="0"
     inkscape:deskcolor="#d1d1d1"
     inkscape:zoom="1.5807912"
     inkscape:cx="235.32519"
     inkscape:cy="52.189055"
     inkscape:window-width="1920"
     inkscape:window-height="991"
     inkscape:window-x="-9"
     inkscape:window-y="-9"
     inkscape:window-maximized="1"
     inkscape:current-layer="g19" />
  <g
     clip-rule="evenodd"
     fill="#006631"
     fill-rule="evenodd"
     transform="translate(91.335362,-567.6797)"
     id="g19">
    <g
       id="g7"
       transform="matrix(0.99999587,0,0,0.99999587,0.00110693,0.00234704)">
      <path
         d="m 574.88,700.41 h 16.1 v 93.86 c -5.37,0 -10.73,0 -16.1,0 0.07,-5.11 0,-10.21 -0.2,-15.32 -5.04,5.04 -10.08,10.08 -15.12,15.12 -10.47,0.2 -20.94,0.26 -31.42,0.2 -0.07,-15.84 0,-31.68 0.2,-47.52 5.04,-5.04 10.08,-10.08 15.12,-15.12 10.47,-0.2 20.94,-0.26 31.42,-0.2 0,-10.33 0,-20.68 0,-31.02 z m -31.03,47.13 h 31.02 v 30.63 c -10.34,0 -20.68,0 -31.02,0 0,-10.21 0,-20.42 0,-30.63 z"
         id="path1" />
      <path
         d="m 600.01,700.41 h 16.1 v 15.71 c -5.37,0 -10.73,0 -16.1,0 0,-5.23 0,-10.47 0,-15.71 z"
         id="path2" />
      <path
         d="m 327.08,715.73 h 47.52 v 16.1 c -15.58,0 -31.15,0 -46.73,0 v 15.32 h 46.73 c 0.07,10.47 0,20.95 -0.2,31.42 -5.17,5.17 -10.34,10.34 -15.51,15.51 -15.71,0.2 -31.42,0.26 -47.13,0.2 0,-5.37 0,-10.73 0,-16.1 h 46.73 c 0,-5.11 0,-10.21 0,-15.32 -15.58,0 -31.15,0 -46.73,0 -0.07,-10.6 0,-21.21 0.2,-31.81 5.11,-5.06 10.16,-10.16 15.12,-15.32 z"
         id="path3" />
      <path
         d="m 399.33,731.44 h 47.13 v 62.83 c -5.24,0 -10.47,0 -15.71,0 0.07,-5.11 0,-10.21 -0.2,-15.32 -5.04,5.04 -10.08,10.08 -15.12,15.12 -10.47,0.2 -20.94,0.26 -31.42,0.2 -0.07,-15.84 0,-31.68 0.2,-47.52 5.12,-5.05 10.16,-10.16 15.12,-15.31 z m 0.4,16.1 h 31.02 v 30.63 c -10.34,0 -20.68,0 -31.02,0 0,-10.21 0,-20.42 0,-30.63 z"
         id="path4" />
      <path
         d="m 455.88,731.44 h 16.1 v 46.73 h 30.63 c 0,-15.58 0,-31.15 0,-46.73 h 16.1 c 0.07,15.71 0,31.42 -0.2,47.13 -5.17,5.17 -10.34,10.34 -15.51,15.51 -15.71,0.2 -31.42,0.26 -47.13,0.2 0.01,-20.95 0.01,-41.9 0.01,-62.84 z"
         id="path5" />
      <path
         d="m 600.01,731.44 h 16.1 v 62.83 c -5.37,0 -10.73,0 -16.1,0 0,-20.94 0,-41.89 0,-62.83 z"
         id="path6" />
      <path
         d="m 640.85,731.44 h 47.52 v 62.83 c -5.37,0 -10.73,0 -16.1,0 0.07,-5.11 0,-10.21 -0.2,-15.32 -5.04,5.04 -10.08,10.08 -15.12,15.12 -10.47,0.2 -20.94,0.26 -31.42,0.2 -0.07,-15.84 0,-31.68 0.2,-47.52 5.12,-5.05 10.16,-10.16 15.12,-15.31 z m 0.79,16.1 h 30.63 v 30.63 c -10.21,0 -20.42,0 -30.63,0 0,-10.21 0,-20.42 0,-30.63 z"
         id="path7" />
    </g>
    <g
       id="g15"
       transform="matrix(0.99999587,0,0,0.99999587,0.00110693,0.00234704)">
      <path
         d="m 283.48,567.68 h 16.1 v 16.1 c -5.37,0 -10.73,0 -16.1,0 0,-5.37 0,-10.73 0,-16.1 z"
         id="path8" />
      <path
         d="m 314.9,567.68 h 15.71 v 16.1 c -5.24,0 -10.47,0 -15.71,0 0,-5.37 0,-10.73 0,-16.1 z"
         id="path9" />
      <path
         d="m 690.73,567.68 h 16.1 c 0.07,26.18 0,52.36 -0.2,78.54 -5.04,5.04 -10.08,10.08 -15.12,15.12 -56.55,0.2 -113.1,0.26 -169.65,0.2 0.07,5.24 0,10.47 -0.2,15.71 -5.17,5.17 -10.34,10.34 -15.51,15.51 -15.71,0.2 -31.42,0.26 -47.13,0.2 0,-5.37 0,-10.73 0,-16.1 h 46.73 c 0.07,-10.08 0,-20.16 -0.2,-30.24 -4.91,4.91 -9.82,9.82 -14.73,14.73 -10.6,0.2 -21.21,0.26 -31.81,0.2 -0.07,-15.84 0,-31.68 0.2,-47.52 5.04,-5.04 10.08,-10.08 15.12,-15.12 15.84,-0.2 31.68,-0.26 47.52,-0.2 v 46.73 h 9.03 c -0.07,-10.34 0,-20.68 0.2,-31.02 5.17,-5.17 10.34,-10.34 15.51,-15.51 15.71,-0.2 31.42,-0.26 47.13,-0.2 v 16.1 c -15.58,0 -31.15,0 -46.73,0 v 30.63 h 56.16 c 0,-15.58 0,-31.15 0,-46.73 h 16.1 v 46.73 h 14.92 c 0,-15.58 0,-31.15 0,-46.73 h 16.1 v 46.73 h 15.32 c 0,-15.58 0,-31.15 0,-46.73 h 16.1 v 46.73 h 9.03 c 0.01,-25.93 0.01,-51.84 0.01,-77.76 z m -215.6,47.12 h 30.63 v 30.63 c -10.21,0 -20.42,0 -30.63,0 0,-10.21 0,-20.42 0,-30.63 z"
         id="path10" />
      <path
         d="m 716.25,567.68 h 16.1 v 93.86 c -5.37,0 -10.73,0 -16.1,0 0,-31.29 0,-62.58 0,-93.86 z"
         id="path11" />
      <path
         d="m 283.48,598.7 h 47.13 v 46.73 h 31.02 c 0,-15.58 0,-31.15 0,-46.73 h 15.71 c 0.07,15.84 0,31.68 -0.2,47.52 -5.04,5.04 -10.08,10.08 -15.12,15.12 -15.71,0.2 -31.42,0.26 -47.13,0.2 0.07,-4.98 0,-9.95 -0.2,-14.92 -4.91,4.91 -9.82,9.82 -14.73,14.73 -10.73,0.2 -21.47,0.26 -32.2,0.2 -0.07,-15.71 0,-31.42 0.2,-47.13 5.26,-5.19 10.43,-10.43 15.52,-15.72 z m 0.4,16.1 h 31.02 v 31.02 c -10.34,0 -20.68,0 -31.02,0 0,-10.33 0,-20.68 0,-31.02 z"
         id="path12" />
      <path
         d="m 402.48,598.7 h 47.13 c 0.07,15.84 0,31.68 -0.2,47.52 -5.04,5.04 -10.08,10.08 -15.12,15.12 -15.84,0.2 -31.68,0.26 -47.52,0.2 0,-5.37 0,-10.73 0,-16.1 h 46.73 c 0,-10.21 0,-20.42 0,-30.63 -10.34,0 -20.68,0 -31.02,0 0,-5.38 0,-10.74 0,-16.11 z"
         id="path13" />
      <path
         d="m 330.22,676.85 h 16.1 v 16.1 c -5.37,0 -10.73,0 -16.1,0 0,-5.37 0,-10.73 0,-16.1 z"
         id="path14" />
      <path
         d="m 361.63,676.85 h 15.71 v 16.1 c -5.24,0 -10.47,0 -15.71,0 0,-5.37 0,-10.73 0,-16.1 z"
         id="path15" />
    </g>
    <g
       id="g18"
       transform="matrix(0.66867682,0,0,0.66867682,-270.96369,430.19975)">
      <path
         d="m 269.35,293.17 c 72.25,14.12 144.45,28.52 216.58,43.2 1.11,23.61 1.96,47.17 2.55,70.69 -22.68,-11.68 -46.11,-21.57 -70.3,-29.65 -25.43,-8.34 -51.35,-10.3 -77.76,-5.89 15.74,0.46 31.32,2.29 46.73,5.5 18.69,5.31 36.76,12.25 54.19,20.81 13.73,6.87 27.22,14.13 40.45,21.8 -21.54,13.32 -43.4,26.15 -65.58,38.49 3.58,4.43 7.37,8.68 11.39,12.76 0.39,0.26 0.79,0.26 1.18,0 20.02,-12.94 40.24,-25.58 60.67,-37.9 1.69,37.21 3.07,74.38 4.12,111.53 -21.84,-24.14 -43.77,-48.22 -65.78,-72.26 -6.76,4.39 -13.89,8.12 -21.4,11.19 -14.73,4.76 -29.65,5.54 -44.77,2.36 -5.35,-1.37 -10.72,-2.68 -16.1,-3.93 25.56,-1.2 48.73,-9.18 69.51,-23.96 -48.9,-53.76 -97.66,-107.62 -146.28,-161.6 -0.34,-1.17 -0.15,-2.22 0.6,-3.14 z"
         id="path16" />
      <path
         d="m 728.43,293.17 c 2.75,-0.59 3.86,0.46 3.34,3.14 -48.91,53.75 -97.67,107.62 -146.28,161.6 20.74,14.86 43.91,22.84 69.51,23.96 -8.3,2.21 -16.68,4.04 -25.13,5.5 -17.12,1.65 -33.22,-1.62 -48.3,-9.82 -3.01,-1.77 -6.02,-3.53 -9.03,-5.3 -21.87,24.1 -43.73,48.18 -65.58,72.26 -0.13,-0.72 -0.26,-1.44 -0.39,-2.16 1.37,-36.47 2.88,-72.93 4.52,-109.37 20.32,12.48 40.55,25.12 60.67,37.9 0.39,0.26 0.79,0.26 1.18,0 3.7,-4.26 7.5,-8.45 11.39,-12.57 -22.13,-12.5 -43.99,-25.4 -65.58,-38.68 25.07,-15.15 51.38,-27.78 78.93,-37.9 9.82,-3.53 19.9,-6.02 30.24,-7.46 10.69,-1.36 21.43,-2.28 32.2,-2.75 -25.97,-4.35 -51.5,-2.52 -76.58,5.5 -24.59,8.17 -48.41,18.18 -71.47,30.04 0.46,-23.56 1.31,-47.12 2.55,-70.69 71.28,-14.43 142.56,-28.83 213.81,-43.2 z"
         id="path17" />
      <path
         d="m 499.87,205.6 c 3.57,4.73 5.72,10.09 6.48,16.1 6.46,-5.57 13.85,-7.28 22.19,-5.11 -3.87,1.91 -7.01,4.65 -9.43,8.25 27.6,-2.89 49.2,7.06 64.8,29.85 -0.2,0.4 -0.46,0.47 -0.79,0.2 -15.74,-11.31 -33.28,-16.15 -52.62,-14.53 29,7.13 45.82,25.39 50.46,54.78 -9.58,-11.41 -20.38,-21.43 -32.4,-30.04 -3.49,-2.4 -7.15,-4.36 -11,-5.89 13.16,16.3 18.06,34.83 14.73,55.57 -5.22,-18.43 -15.04,-33.87 -29.45,-46.34 2.77,14.01 3.29,28.15 1.57,42.41 -0.51,4.14 -1.37,8.2 -2.55,12.17 -3.19,-12.9 -7.05,-25.6 -11.58,-38.09 -2.5,-6.7 -5.9,-12.85 -10.21,-18.46 -4.32,5.89 -7.72,12.31 -10.21,19.24 -4.44,12.26 -8.23,24.7 -11.39,37.31 -4.52,-18.24 -4.85,-36.43 -0.98,-54.59 -14.4,12.42 -24.15,27.87 -29.26,46.34 -3.5,-20.78 1.41,-39.3 14.73,-55.57 -7.02,3.21 -13.57,7.27 -19.64,12.17 -8.64,7.07 -16.49,14.92 -23.56,23.56 3.09,-25.13 16.7,-42.41 40.84,-51.84 3.07,-1.15 6.21,-2.07 9.43,-2.75 -9.32,-1.14 -18.49,-0.35 -27.49,2.36 -9.32,2.76 -17.96,6.89 -25.92,12.37 7.89,-12.78 19.02,-21.87 33.38,-27.29 10.28,-3.25 20.75,-4.17 31.42,-2.75 -2.41,-3.63 -5.55,-6.44 -9.43,-8.44 8.14,-2.09 15.47,-0.52 21.99,4.71 1.09,-5.57 3.05,-10.81 5.89,-15.7 z"
         id="path18" />
    </g>
  </g>
</svg>
