<?xml version="1.0" encoding="UTF-8" standalone="no"?>
<svg
   viewBox="0 0 454.13171 88.000076"
   xml:space="preserve"
   style="clip-rule:evenodd;fill-rule:evenodd;stroke-linejoin:round;stroke-miterlimit:2"
   version="1.1"
   id="svg2"
   sodipodi:docname="UA.svg"
   width="454.13171"
   height="88.000076"
   inkscape:version="1.4.2 (f4327f4, 2025-05-13)"
   xmlns:inkscape="http://www.inkscape.org/namespaces/inkscape"
   xmlns:sodipodi="http://sodipodi.sourceforge.net/DTD/sodipodi-0.dtd"
   xmlns="http://www.w3.org/2000/svg"
   xmlns:svg="http://www.w3.org/2000/svg"><defs
     id="defs2" /><sodipodi:namedview
     id="namedview2"
     pagecolor="#ffffff"
     bordercolor="#000000"
     borderopacity="0.25"
     inkscape:showpageshadow="2"
     inkscape:pageopacity="0.0"
     inkscape:pagecheckerboard="0"
     inkscape:deskcolor="#d1d1d1"
     inkscape:zoom="3.8216478"
     inkscape:cx="460.27266"
     inkscape:cy="44.090929"
     inkscape:window-width="1920"
     inkscape:window-height="991"
     inkscape:window-x="-9"
     inkscape:window-y="-9"
     inkscape:window-maximized="1"
     inkscape:current-layer="svg2" /><path
     d="m 388.72494,11.24632 a 54.590346,57.141526 0 0 0 -18.59324,3.405082 l -0.0661,0.0266 v 2.335673 c 0.36088,-0.143651 0.981,-0.36179 1.88575,-0.579928 0.45238,-0.106408 0.90476,-0.202176 1.35205,-0.281983 l 0.47271,-0.06917 c 5.84534,-0.877872 10.87741,0.367111 13.90174,3.995651 6.61285,7.943417 1.13348,24.261206 -12.24471,36.445014 -1.70277,1.553568 -3.45129,2.958164 -5.22522,4.219109 l -0.14232,0.09577 v 3.889241 c 0.53878,-0.388392 1.07757,-0.782104 1.60619,-1.191778 0.72686,1.287546 5.57086,9.379935 5.65727,9.518267 0.36089,-0.24474 1.40288,-0.941718 2.66852,-1.840872 a 67.810969,70.97999 0 0 0 4.99649,-3.937126 l -7.39561,-8.879814 c 0.74718,-0.771464 3.25305,-3.37848 5.24047,-5.852484 0.46762,0.372431 6.6281,5.373644 9.0933,7.688036 a 63.485421,66.452296 0 0 0 5.29639,-6.874009 c -3.40047,-2.335673 -10.45553,-6.549462 -10.45553,-6.549462 1.17415,-1.947281 2.18056,-3.899882 3.00399,-5.825881 0,0 8.22922,3.367838 11.58902,5.096981 a 42.935256,44.941757 0 0 0 2.47537,-6.453694 c -4.16798,-1.766386 -11.60935,-3.623219 -12.28029,-3.788153 0.43713,-1.681259 0.72686,-3.319954 0.84376,-4.900125 a 90.018159,94.224992 0 0 1 12.68692,2.383557 21.205859,22.196876 0 0 0 -0.0661,-5.166147 74.4899,77.971048 0 0 0 -12.692,-1.271585 14.648918,15.333508 0 0 0 -0.83868,-3.548734 c 0,0 5.96225,-0.548005 12.19388,0.218138 a 16.875228,17.663861 0 0 0 -1.14365,-2.064331 28.367665,29.693376 0 0 0 -1.03691,-1.404596 c 0,0 -5.27097,-0.420314 -11.37553,0.537365 a 12.229457,12.800979 0 0 0 -1.88576,-2.207983 49.334627,51.640191 0 0 1 10.30812,-1.127933 c -1.53503,-1.101331 -3.13106,-1.840872 -3.13106,-1.840872 -4.3103,0.08513 -8.829,1.34075 -9.18989,1.441839 -1.23006,-0.755503 -2.19073,-1.058768 -2.30763,-1.096011 l -0.0102,-0.0053 0.005,-0.0053 c 0.35072,-0.111729 3.68002,-1.165176 6.11981,-1.441839 h -0.0102 c -3.31914,-0.457558 -7.88866,0.633132 -8.41728,0.766143 a 25.861795,27.070399 0 0 0 -2.42963,-0.356469 c 0,0 2.46012,-0.744862 5.71318,-1.223701 2.96333,-0.436276 12.9004,-1.713182 19.24894,7.230478 6.01307,8.47014 3.82743,21.611627 -4.33571,34.215749 a 66.037037,69.123156 0 0 1 -7.7006,9.917301 c -2.50078,2.718744 -5.03207,5.070379 -7.44644,7.076185 a 65.823555,68.899698 0 0 1 -11.98548,8.028544 c -0.86918,0.48416 -1.73835,0.941718 -2.61261,1.377994 v 4.096738 c 6.97374,-3.452965 11.10613,-6.740997 11.10613,-6.740997 l 5.87075,8.725522 c 0,0 4.5492,-2.984767 9.11364,-6.916572 h 0.005 -0.005 l -7.03473,-8.33713 h -0.005 a 78.286826,81.945417 0 0 0 7.34479,-7.773163 c 0,0 7.29904,6.783561 8.09706,7.581627 2.3178,-2.734706 4.44245,-5.607744 6.32821,-8.603151 a 186.44585,195.15906 0 0 0 -8.82392,-6.7676 c 0,0 2.9735,-4.979932 4.18323,-8.017903 0,0 4.81351,2.750667 9.3627,5.841843 1.11316,-2.607015 2.03824,-5.309799 2.69902,-8.071107 -2.98874,-1.888757 -9.63209,-4.990573 -9.63209,-4.990573 0.56928,-2.340994 0.90983,-4.628783 1.00641,-6.836765 0,0 4.82876,1.601452 9.69817,4.160584 a 27.910204,29.214536 0 0 0 -0.41171,-6.310042 C 414.84586,30.336096 409.36141,28.9315 409.36141,28.9315 a 20.199445,21.143429 0 0 0 -1.42321,-4.948009 c 0,0 4.98632,0.978961 9.39319,2.851756 a 14.537094,15.216458 0 0 0 -2.45504,-4.011612 c -2.82609,-1.617414 -9.25087,-2.846436 -9.25087,-2.846436 a 18.720321,19.595181 0 0 0 -2.32797,-2.575092 c 2.02299,0.292624 5.17439,1.042806 5.17439,1.042806 -3.46654,-1.777027 -7.37021,-2.798552 -7.41595,-2.814513 -0.005,0 -0.7726,-0.532044 -1.69769,-1.048127 0,0 9.68801,2.080292 14.94881,6.235556 0.47779,0.372431 0.93525,0.792746 1.3978,1.260944 0.5337,0.532044 0.99624,1.127934 1.40288,1.713182 10.48602,15.019602 1.41813,43.962796 -24.1387,64.201749 h 9.50503 a 354.15614,370.70698 0 0 1 -1.93659,-2.250546 83.48155,87.382907 0 0 0 8.37662,-9.353333 l 6.32821,6.592025 c 2.48046,-2.952844 4.77793,-6.107865 6.81109,-9.42782 0,0 -3.32422,-3.335916 -6.86192,-6.554782 2.84134,-4.804357 4.59495,-9.592753 4.59495,-9.592753 0.26939,0.207497 3.7156,2.888999 7.24821,6.331323 1.70277,-3.910523 2.76002,-8.890455 2.76002,-8.890455 -3.68002,-3.50617 -7.45662,-6.012097 -7.45662,-6.012097 a 41.390055,43.324343 0 0 0 0.99625,-8.081748 c 0,0 4.00024,2.489966 7.45661,5.671589 a 29.623141,31.007524 0 0 0 -0.64044,-7.01234 c -3.43096,-3.107137 -7.23805,-5.19275 -7.23805,-5.19275 -0.005,0 -0.37105,-2.607015 -1.59095,-5.756716 l 0.0305,0.01596 c 0.23381,0.12237 2.05349,1.09069 5.26588,3.484888 -2.50587,-3.399761 -6.81617,-6.746318 -6.81617,-6.746318 a 19.762315,20.685871 0 0 0 -1.40796,-2.160099 53.309455,55.800775 0 0 1 9.62701,8.842572 c 1.05725,1.388634 2.02808,3.160341 2.78035,5.187429 0.20332,0.553325 0.38122,1.106651 0.53879,1.654656 2.3483,8.294566 0.90475,17.615977 -1.74344,25.250809 -3.05482,8.800007 -8.1428,17.020087 -14.11013,24.000504 h 11.25354 c 1.09283,-1.617413 2.07383,-3.160341 3.08024,-4.932047 -0.75227,-1.197099 -4.17814,-5.389606 -4.17814,-5.389606 a 67.246767,70.389421 0 0 0 4.92533,-10.188643 c 0,0 2.2873,2.6549 4.08156,5.384286 1.76377,-4.415966 2.5872,-9.023467 2.5872,-9.023467 -1.20973,-2.112214 -3.91383,-5.389605 -3.91383,-5.389605 a 41.766189,43.718055 0 0 0 0.981,-8.544627 c 1.35205,1.6919 3.17681,4.362761 3.17681,4.362761 v -0.01596 c -0.34564,-5.235313 -2.92775,-10.002427 -3.49704,-11.00267 l -0.0559,-0.324546 a 41.806853,43.760619 0 0 0 -1.26564,-4.852242 c 2.90742,4.485131 4.77284,9.528908 4.77284,9.528908 1.19449,3.245469 1.91117,7.342208 1.91117,11.800736 0,2.362276 -0.45237,14.684415 -9.44402,28.586724 h 2.84642 a 92.010656,96.310605 0 0 0 4.75759,-10.779211 c 0.0356,0.111729 0.6557,1.81959 1.11316,3.591297 0.95558,-3.527452 1.63669,-7.203876 2.01791,-10.981388 -0.12199,-0.489481 -0.37613,-1.287547 -0.51845,-1.766386 0,0 0.60994,-3.213546 0.85392,-6.874009 a 53.665258,56.173206 0 0 1 -0.981,20.744396 c -0.5032,2.090933 -1.11315,4.144623 -1.77901,6.065301 h 2.42454 c 2.023,-6.097224 3.06499,-12.524315 3.06499,-18.983329 0,-31.853475 -24.66223,-57.764018 -54.97665,-57.764018 m -18.65932,38.051787 v 7.682716 c 1.30122,-0.883193 2.60244,-1.862154 3.87825,-2.942204 z m 1.76885,-31.80027 a 26.58865,27.831222 0 0 0 -1.76885,1.351392 v 1.782348 a 44.261893,46.330392 0 0 1 5.15914,-3.639181 22.867967,23.93666 0 0 0 -3.39029,0.505441 m 4.95582,30.252022 -6.72467,-4.921407 v -4.203147 c 3.42079,-5.091661 3.91383,-10.938825 0.91492,-13.790581 a 5.2557186,5.501335 0 0 0 -0.91492,-0.696977 V 22.04153 l 0.0559,0.03192 c 0,0 4.28488,-3.548734 7.68534,-5.0757 0.82343,0.05852 1.61128,0.180895 2.35847,0.36179 -5.08798,2.255867 -8.84425,5.059738 -9.10347,5.256595 0.52353,0.324547 0.99624,0.7289 1.06232,0.782104 a 56.92848,59.588928 0 0 1 10.42503,-5.20871 c 0.73702,0.351149 1.44863,0.792745 2.06366,1.287546 -5.91142,1.739784 -11.5941,4.841601 -11.5941,4.841601 0.32023,0.393712 0.60487,0.814027 0.84885,1.266264 a 4.9151643,5.1448655 0 0 1 0.0966,-0.04256 c 6.05374,-2.713425 12.47852,-4.10206 12.47852,-4.10206 0.50321,0.72358 0.92001,1.526967 1.23515,2.41548 0,0 -5.7691,0.691657 -13.19013,3.181623 0.32531,1.074729 0.4168,1.878116 0.4168,1.888757 0,0 6.99915,-1.638696 13.44935,-1.819591 a 16.366938,17.131817 0 0 1 -0.0915,3.548734 c -3.82234,-0.207498 -12.92073,0.297944 -13.28162,0.324546 0,0 -0.0305,1.372674 -0.37105,2.665541 0,0 6.64843,0.223458 12.69708,1.404596 a 28.921701,30.273304 0 0 1 -1.77393,4.46917 234.75374,245.72452 0 0 0 -11.75675,-3.192264 19.655574,20.574141 0 0 1 -1.58586,3.224186 c 0,0 7.47186,3.415723 10.3437,5.086341 h 0.005 v 0.0053 c -1.24531,1.947281 -3.7156,4.681988 -3.7156,4.681988 a 179.8025,188.20524 0 0 0 -2.03316,-1.574851"
     style="fill:#ffffff;fill-rule:nonzero;stroke-width:5.20031"
     id="path1" /><path
     d="m 388.72494,11.24741 c 30.31442,0 54.97665,25.910543 54.97665,57.764017 0,6.459014 -1.04199,12.886106 -3.06499,18.988651 h 13.4951 V 0 h -84.06608 v 14.679094 l 0.0661,-0.0266 c 5.96184,-2.256495 12.25362,-3.408742 18.59324,-3.405082 m -18.65932,27.378984 c 3.42079,-5.091661 3.91383,-10.938824 0.91492,-13.79058 -0.28012,-0.266113 -0.58687,-0.499797 -0.91492,-0.696978 z m 17.61225,-18.547053 c -3.02433,-3.628541 -8.0564,-4.873523 -13.90174,-3.995651 l -0.47271,0.06917 c -0.45294,0.08172 -0.90378,0.175734 -1.35205,0.281983 -0.90475,0.218138 -1.52487,0.436276 -1.88575,0.579928 v 1.835552 c 0.57945,-0.47884 1.16398,-0.931077 1.76885,-1.351392 1.16398,-0.266022 2.29747,-0.430955 3.39029,-0.505442 -1.68752,1.010884 -3.63936,2.378237 -5.15914,3.639181 v 1.409917 l 0.0559,0.03192 c 0,0 4.28488,-3.548734 7.68534,-5.0757 0.82343,0.05853 1.61128,0.180895 2.35847,0.36179 -5.08798,2.255866 -8.84425,5.059738 -9.10347,5.256594 0.52353,0.324547 0.99624,0.728901 1.06232,0.782105 3.2973,-2.101744 6.79028,-3.846965 10.42503,-5.208711 0.73702,0.351149 1.44863,0.792746 2.06366,1.287547 -5.91142,1.739784 -11.5941,4.8416 -11.5941,4.8416 0.32023,0.393713 0.60487,0.814028 0.84885,1.266265 0.032,-0.01453 0.0642,-0.02873 0.0966,-0.04256 6.05374,-2.713424 12.47852,-4.102059 12.47852,-4.102059 0.50321,0.72358 0.92001,1.526966 1.23515,2.41548 0,0 -5.7691,0.691657 -13.19013,3.181623 0.32531,1.074729 0.4168,1.878115 0.4168,1.888756 0,0 6.99915,-1.638695 13.44935,-1.81959 0.087,1.183036 0.0563,2.37233 -0.0915,3.548733 -3.82234,-0.207497 -12.92073,0.297945 -13.28162,0.324547 0,0 -0.0305,1.372674 -0.37105,2.665541 0,0 6.64843,0.223458 12.69708,1.404596 -0.47642,1.536888 -1.06962,3.031385 -1.77393,4.469169 -3.89196,-1.170045 -7.81218,-2.234489 -11.75675,-3.192264 -0.43692,1.121494 -0.96761,2.200413 -1.58586,3.224187 0,0 7.47186,3.415722 10.3437,5.086341 h 0.005 v 0.0053 c -1.24531,1.947281 -3.7156,4.681987 -3.7156,4.681987 -0.67418,-0.529932 -1.35192,-1.054896 -2.03316,-1.57485 l -6.72467,-4.921407 v 6.469655 l 3.87825,4.740512 c -1.2428,1.050927 -2.53732,2.033007 -3.87825,2.942203 v 3.857319 l 0.14232,-0.09577 c 1.77393,-1.260944 3.52245,-2.66554 5.22522,-4.219108 13.37819,-12.183808 18.85756,-28.501598 12.24471,-36.445014 m 16.46859,0.675695 c -6.34854,-8.943659 -16.28561,-7.666754 -19.24894,-7.230478 -3.25306,0.47884 -5.71318,1.223702 -5.71318,1.223702 0.72685,0.06916 1.71802,0.207497 2.42963,0.356469 0.52862,-0.133011 5.09814,-1.223701 8.41728,-0.766143 h 0.0102 c -2.43979,0.276663 -5.76909,1.33011 -6.11981,1.441839 l -0.005,0.0053 0.0102,0.0053 c 0.1169,0.03724 1.07757,0.340508 2.30763,1.096011 0.36089,-0.101089 4.87959,-1.356713 9.18989,-1.44184 0,0 1.59603,0.739541 3.13106,1.840873 -3.46434,-0.0039 -6.91944,0.374186 -10.30812,1.127933 0.65061,0.60653 1.30122,1.33543 1.88576,2.207982 6.10456,-0.957679 11.37553,-0.537364 11.37553,-0.537364 0,0 0.7116,0.909795 1.03691,1.404596 0.40663,0.617171 0.82343,1.388635 1.14365,2.064331 -6.23163,-0.766143 -12.19388,-0.218138 -12.19388,-0.218138 0.40664,1.111972 0.6862,2.29843 0.83868,3.548733 0.69128,-0.0053 5.96733,0.0053 12.692,1.271585 0.21349,1.612094 0.23382,3.341237 0.0661,5.166148 -4.16912,-1.110827 -8.40896,-1.907388 -12.68692,-2.383557 -0.1169,1.58017 -0.40663,3.218866 -0.84376,4.900125 0.67094,0.164933 8.11231,2.021767 12.28029,3.788153 -0.66464,2.214927 -1.49224,4.372617 -2.47537,6.453694 -3.3598,-1.729143 -11.58902,-5.096982 -11.58902,-5.096982 -0.82343,1.926 -1.82984,3.878601 -3.00399,5.825882 0,0 7.05506,4.213789 10.45553,6.549462 -1.6179,2.411728 -3.38726,4.708133 -5.29639,6.874008 -2.4652,-2.314391 -8.62568,-7.315605 -9.0933,-7.688036 -1.66726,2.027251 -3.41565,3.979823 -5.24047,5.852484 l 7.39561,8.879815 c -1.60537,1.393949 -3.27272,2.707787 -4.99649,3.937125 -1.26564,0.899155 -2.30763,1.596132 -2.66852,1.840873 -0.0864,-0.138332 -4.93041,-8.230721 -5.65727,-9.518268 -0.52862,0.409674 -1.06741,0.803387 -1.60619,1.191779 v 16.642336 c 0.87426,-0.436276 1.74343,-0.893834 2.61261,-1.377994 4.26058,-2.214976 8.27922,-4.906883 11.98548,-8.028544 2.62958,-2.182939 5.11724,-4.546907 7.44644,-7.076185 2.96842,-3.192264 5.55053,-6.52818 7.7006,-9.9173 8.16314,-12.604122 10.34878,-25.745609 4.33571,-34.21575 m 12.9614,3.037972 c -0.41748,-0.614043 -0.887,-1.187427 -1.40288,-1.713182 -0.43958,-0.451333 -0.90648,-0.872494 -1.3978,-1.260944 -5.2608,-4.155264 -14.94881,-6.235556 -14.94881,-6.235556 0.92509,0.516083 1.69261,1.048127 1.69769,1.048127 0.0457,0.01596 3.94941,1.037486 7.41595,2.814512 0,0 -3.1514,-0.750182 -5.17439,-1.042806 0.83868,0.766144 1.63161,1.654657 2.32797,2.575093 0,0 6.42478,1.229022 9.25087,2.846436 0,0 1.35206,1.4578 2.45504,4.011611 -4.40687,-1.872795 -9.39319,-2.851755 -9.39319,-2.851755 0.66077,1.553568 1.13348,3.218866 1.42321,4.948009 0,0 5.48445,1.404596 9.60668,3.479567 0.3558,2.04837 0.48796,4.165905 0.41171,6.310042 -4.86941,-2.559131 -9.69817,-4.160584 -9.69817,-4.160584 -0.1132,2.30874 -0.4504,4.599446 -1.00641,6.836766 0,0 6.64335,3.101816 9.63209,4.990572 -0.67348,2.767486 -1.57658,5.468116 -2.69902,8.071108 -4.54919,-3.091176 -9.3627,-5.841843 -9.3627,-5.841843 -1.20973,3.037971 -4.18323,8.017903 -4.18323,8.017903 0.0762,0.0532 5.02699,3.612579 8.82392,6.767599 -1.91089,3.021874 -4.02568,5.896917 -6.32821,8.603152 -0.79802,-0.798066 -8.09706,-7.581627 -8.09706,-7.581627 -2.2009,2.670861 -4.65594,5.277876 -7.34479,7.773163 h 0.005 l 7.03473,8.337129 h 0.005 -0.005 c -4.56444,3.931805 -9.11364,6.916572 -9.11364,6.916572 l -5.87075,-8.725521 c 0,0 -4.13239,3.288032 -11.10613,6.740997 v 2.53253 h 22.90354 c 25.55683,-20.244275 34.62472,-49.187468 24.1387,-64.20707 m -1.62145,64.20707 c 5.96733,-6.985738 11.05531,-15.205818 14.11013,-24.005826 2.64819,-7.634831 4.09174,-16.956242 1.74344,-25.250808 -0.15982,-0.558393 -0.33954,-1.110332 -0.53879,-1.654657 -0.67485,-1.864405 -1.61198,-3.612839 -2.78035,-5.187429 -2.85784,-3.341787 -6.09016,-6.310733 -9.62701,-8.842571 0.51846,0.702298 0.99625,1.425878 1.40796,2.160099 0,0 4.3103,3.346556 6.81617,6.746318 -3.21239,-2.394198 -5.03207,-3.362519 -5.26588,-3.484889 l -0.0305,-0.01596 c 1.2199,3.1497 1.58587,5.756716 1.59095,5.756716 0,0 3.80709,2.085613 7.23805,5.19275 0.47779,2.29843 0.67094,4.655385 0.64044,7.012339 -3.45637,-3.181623 -7.45661,-5.671589 -7.45661,-5.671589 -0.0888,2.720696 -0.42233,5.426578 -0.99625,8.081749 0,0 3.7766,2.505927 7.45662,6.012097 0,0 -1.05725,4.979932 -2.76002,8.890455 -2.31102,-2.238819 -4.73028,-4.352039 -7.24821,-6.331323 0,0 -1.75361,4.788396 -4.59495,9.592753 3.5377,3.218866 6.86192,6.554782 6.86192,6.554782 -2.03316,3.319955 -4.33063,6.474975 -6.81109,9.42782 l -6.32821,-6.592025 c -2.56964,3.328264 -5.36938,6.454453 -8.37662,9.353333 l 1.93659,2.255867 z m 11.25354,0 h 3.16157 c 8.99165,-13.907631 9.44402,-26.22977 9.44402,-28.592045 0,-4.458529 -0.71668,-8.555267 -1.91117,-11.800736 0,0 -1.86542,-5.043777 -4.77284,-9.528908 0.31514,1.000243 0.92509,3.032651 1.26564,4.852241 l 0.0559,0.324547 c 0.56929,1.000243 3.1514,5.767357 3.49704,11.00267 v 0.01596 c 0,0 -1.82476,-2.67086 -3.17681,-4.36276 -0.0577,2.875048 -0.38632,5.737121 -0.981,8.544626 0,0 2.7041,3.277391 3.91383,5.389606 0,0 -0.82343,4.607501 -2.5872,9.023466 -1.79426,-2.729385 -4.08156,-5.384285 -4.08156,-5.384285 -1.37547,3.530229 -3.02266,6.937653 -4.92533,10.188643 0,0 3.42587,4.192506 4.17814,5.389605 -1.00641,1.771707 -1.98741,3.314634 -3.08024,4.937369 m 6.00799,0 c 1.79522,-3.489542 3.38408,-7.091162 4.75759,-10.784532 0.0356,0.111729 0.6557,1.81959 1.11316,3.591297 0.95558,-3.527452 1.63669,-7.203876 2.01791,-10.981388 -0.12199,-0.489481 -0.37613,-1.287547 -0.51845,-1.766387 0,0 0.60994,-3.213545 0.85392,-6.874008 0.90775,6.918512 0.57506,13.953541 -0.981,20.744396 -0.4962,2.053245 -1.08994,4.079303 -1.77901,6.070622 z M 168.24399,33.795435 h 16.25511 v 32.295071 h 12.5141 V 33.795435 h 16.25004 V 21.909572 h -45.01925 z m 76.08593,14.891911 h 26.01428 v -9.374615 h -26.01428 v -6.581384 h 28.02203 V 21.909572 h -40.54121 v 44.180934 h 40.76994 V 55.268731 h -28.25076 z m 60.46618,5.517297 h 11.14172 c 8.15297,0 11.8279,-3.123099 11.8279,-10.204604 0,-7.081506 -3.67493,-10.204604 -11.8279,-10.204604 H 304.7961 Z M 292.27692,21.909572 h 24.11836 c 16.76848,0 24.46399,7.62419 24.46399,22.090467 0,14.466276 -7.69551,22.090467 -24.46399,22.090467 H 292.27692 Z M 137.18239,66.090506 h 12.51918 V 21.909572 H 137.18239 Z M 103.70133,47.617938 80.391146,21.909572 H 68.044782 v 44.180934 h 11.65509 V 38.08903 L 105.13979,66.090506 H 115.3615 V 21.909572 H 103.70133 Z M 0,44.452276 V 21.909572 h 12.519183 v 21.877649 c 0,8.416936 3.817258,11.96567 11.167131,11.96567 7.349873,0 11.167131,-3.548734 11.167131,-11.96567 V 21.909572 h 12.519183 v 22.542704 c 0,15.748503 -7.609101,22.537384 -23.686314,22.537384 C 7.6091013,66.98966 0,60.200779 0,44.452276"
     style="fill:#1414d2;fill-rule:nonzero;stroke-width:5.20031"
     id="path2"
     sodipodi:nodetypes="csccccccccccccccccccccccccccccccccccccccccccccccccccccccccccccccccccccccccccccccccccccccccccccccccccccccccccccccccccccccccccccccccccccccccccccsccccccccccccccccccsccccccccccccccccccccccccccccccccccccccccccccccssscccssscccccccccccccccccccccsssccssc" /></svg>
