<?xml version="1.0" encoding="UTF-8" standalone="no"?>
<!-- Created with Inkscape (http://www.inkscape.org/) -->

<svg
   width="100.00015mm"
   height="8.6873941mm"
   viewBox="0 0 100.00015 8.6873941"
   version="1.1"
   id="svg1"
   inkscape:version="1.4.2 (f4327f4, 2025-05-13)"
   sodipodi:docname="YS.svg"
   xmlns:inkscape="http://www.inkscape.org/namespaces/inkscape"
   xmlns:sodipodi="http://sodipodi.sourceforge.net/DTD/sodipodi-0.dtd"
   xmlns="http://www.w3.org/2000/svg"
   xmlns:svg="http://www.w3.org/2000/svg">
  <sodipodi:namedview
     id="namedview1"
     pagecolor="#ffffff"
     bordercolor="#000000"
     borderopacity="0.25"
     inkscape:showpageshadow="2"
     inkscape:pageopacity="0.0"
     inkscape:pagecheckerboard="0"
     inkscape:deskcolor="#d1d1d1"
     inkscape:document-units="mm"
     inkscape:zoom="0.68862935"
     inkscape:cx="111.09024"
     inkscape:cy="-3.6304"
     inkscape:window-width="1920"
     inkscape:window-height="991"
     inkscape:window-x="-9"
     inkscape:window-y="-9"
     inkscape:window-maximized="1"
     inkscape:current-layer="layer1" />
  <defs
     id="defs1" />
  <g
     inkscape:label="Layer 1"
     inkscape:groupmode="layer"
     id="layer1"
     transform="translate(-75.665505,-149.61496)">
    <path
       id="path1"
       d="m 152.35199,158.02642 v -8.08425 h 1.9117 v 6.71018 h 6.33378 v 1.37407 z m -5.90832,-3.20781 -1.56351,-2.99438 -1.53212,2.99438 z m 4.21746,3.19123 h -2.49308 l -0.99025,-1.83303 h -4.53461 l -0.93486,1.83303 h -2.42993 l 4.41854,-8.06767 h 2.42147 z m -22.31038,0.0166 v -8.08425 h 1.61961 l 5.9824,5.33294 v -5.33294 h 1.68593 v 8.08425 l -1.68593,-0.0166 -5.9824,-5.25568 v 5.25568 z m -13.25386,-4.03578 c 0,-0.83432 0.17956,-1.53317 0.54116,-2.09902 0.27058,-0.41522 0.63782,-0.79058 1.1042,-1.12184 0.46672,-0.32949 0.97754,-0.57503 1.53246,-0.73519 0.74013,-0.21731 1.59032,-0.32385 2.55658,-0.32385 1.74766,0 3.14466,0.37359 4.19418,1.12184 1.04881,0.74683 1.57374,1.78682 1.57374,3.11785 0,1.32221 -0.52211,2.35444 -1.56281,3.10127 -1.04104,0.74471 -2.4324,1.11795 -4.17159,1.11795 -1.7646,0 -3.16689,-0.37148 -4.20794,-1.11231 -1.04104,-0.74295 -1.55998,-1.76565 -1.55998,-3.0667 z m 2.28071,-0.0554 c 0,0.92569 0.33655,1.62877 1.0033,2.10679 0.66957,0.47801 1.518,0.71614 2.54811,0.71614 1.02694,0 1.87255,-0.23601 2.5333,-0.71226 0.65793,-0.47449 0.98848,-1.18498 0.98848,-2.13325 0,-0.93733 -0.32173,-1.63618 -0.96167,-2.09903 -0.64276,-0.46108 -1.49719,-0.69144 -2.56011,-0.69144 -1.06574,0 -1.92299,0.23424 -2.57492,0.70097 -0.64911,0.46672 -0.97649,1.16945 -0.97649,2.11208 z m -6.37928,4.07458 v -8.06767 h 1.98331 v 8.06767 z m -4.62633,-4.04812 h 1.91629 l 0.0328,3.4932 c -0.92534,0.34678 -2.82434,0.70591 -4.63338,0.68721 -1.74132,-0.018 -3.778254,-0.40393 -4.818949,-2.06692 -0.421922,-0.67381 -0.632883,-1.40512 -0.632883,-2.19604 0,-0.85796 0.236008,-1.62208 0.705555,-2.28989 0.472017,-0.66604 1.159577,-1.17863 2.068687,-1.53387 1.75119,-0.69603 5.29273,-0.52882 6.93985,0.23248 l -0.0339,1.61572 c -1.75613,-0.69779 -4.93431,-1.50566 -6.59483,-0.14534 -0.56233,0.46249 -0.84102,1.14582 -0.84102,2.05387 0,0.97684 0.28363,1.71238 0.85372,2.20168 1.03328,0.89147 3.89149,0.97332 4.98616,0.32809 z m -30.706485,4.0647 v -8.08425 h 5.716411 c 1.592792,0 3.584575,0.44555 3.552472,2.49907 -0.02716,1.71344 -1.226608,2.28741 -2.280002,2.51919 l 2.959805,3.06599 h -2.671233 l -1.61537,-1.76001 c -0.413808,-0.45085 -0.731308,-0.77999 -0.956028,-0.9913 h -2.47015 v 2.75131 z m 2.187927,-4.36739 3.774017,0.005 c 1.597731,0.002 1.589617,-2.23096 -0.01376,-2.23096 l -3.760258,7e-4 v 2.22497"
       style="fill:#193456;fill-opacity:1;fill-rule:evenodd;stroke:none;stroke-width:0.0352778" />
    <path
       id="path2"
       d="m 91.673503,149.7312 c 2.614436,0 5.061303,1.62772 4.985103,4.91879 h -8.036631 c 0.601839,2.49272 4.327173,2.41899 7.357887,1.34055 l -0.02399,1.59667 c -0.871009,0.49883 -3.14572,0.62865 -4.28237,0.62865 -2.867025,0 -5.205589,-1.9057 -5.205589,-4.2425 0,-2.3368 2.338564,-4.24216 5.20559,-4.24216 z m -2.977092,3.26567 h 5.89139 c -0.271992,-1.56351 -1.726495,-1.82527 -2.88149,-1.82527 -1.155347,0 -2.615141,0.26176 -3.0099,1.82527"
       style="fill:#ca5b2c;fill-opacity:1;fill-rule:evenodd;stroke:none;stroke-width:0.0352778" />
    <path
       id="path4"
       d="m 170.16162,149.94217 h 5.50404 l -5.18971,6.75745 c -1.18992,1.54976 -5.18231,2.09656 -7.95055,1.10067 1.44462,-0.42792 2.46556,-1.11654 3.33798,-2.2539 l 4.29824,-5.60422"
       style="fill:#ed1c24;fill-opacity:1;fill-rule:evenodd;stroke:none;stroke-width:0.0352778" />
  </g>
</svg>
